<svg xmlns="http://www.w3.org/2000/svg" width="218" height="226" viewBox="0 0 218 226"><g><g><path fill="#e8a250" d="M202.628 168.17c.163 1.465.217 2.952.508 4.391 1.126 5.574-1.176 10.412-6.128 13.035-1.496.793-3.045 1.72-4.157 2.957-2.443 2.72-5.474 3.022-8.752 2.703-1.815-.178-3.613-.549-5.43-.688-4.082-.312-7.753.67-10.432 3.972-2.067 2.547-4.424 4.181-7.908 3.854-.727-.068-1.697.578-2.269 1.171-.778.806-1.358 1.837-1.885 2.843-1.02 1.95-2.61 3.242-4.674 3.737-5.492 1.316-9.942 4.371-14.218 7.892-3.593 2.957-7.697 5.266-10.64 9.038-1.305 1.672-3.345 2.493-5.52 2.158a83.29 83.29 0 0 1-8.313-1.705c-1.754-.457-3.39-1.344-5.114-1.937-2.223-.765-4.431-.806-6.687.102-1.36.546-2.841.908-4.299 1.062-2.608.277-4.917-.41-6.746-2.498-.886-1.012-1.909-2.077-3.097-2.62-4.66-2.13-9.287-4.482-14.172-5.906-2.81-.819-6.092-.038-9.16.07-1.022.037-2.039.233-3.06.335-7.907.793-10.57-2.859-12.542-8.45-.932-2.642-2.107-4.974-3.93-7.084-1.334-1.543-2.582-3.225-3.53-5.024-2.225-4.221-6.351-6.076-10.112-8.34-1.18-.71-2.022-1.258-2.195-2.694-.091-.762-.395-1.624-.89-2.189-1.865-2.126-2.733-4.654-3.559-7.296-.369-1.18-1.622-2.1-2.522-3.096-1.664-1.84-3.325-3.685-5.058-5.459-1.34-1.37-2.696-2.759-4.221-3.905-1.096-.822-1.743-1.637-1.812-3.047-.266-5.461-2.204-10.385-4.662-15.227-2.005-3.948-3.673-8.104-5.06-12.31-.61-1.845-.153-4.043-.17-6.08-.018-2.028.12-4.07-.065-6.082-.353-3.824-.45-7.525 2.244-10.707.58-.685.869-1.612 1.408-2.342 1.235-1.672 1.312-3.17.055-4.981-1.973-2.847-1.103-6.154-1.02-9.309.027-1.01.2-2.03.114-3.03-.264-3.07.278-4.5 3.228-5.6 2.588-.967 3.375-2.656 3.643-5.155a146.07 146.07 0 0 1 1.719-11.484c.219-1.16.941-2.336 1.727-3.254 1.19-1.39 1.277-2.626.72-4.373-.493-1.543-.52-3.406-.175-5.004.485-2.242 2.112-4.061 4.444-4.175 2.806-.136 3.341-1.867 3.848-3.95.513-2.102 1.033-4.204 1.633-6.282 1.062-3.68 3.166-6.213 7.252-6.738 2.654-.341 4.531-1.856 5.787-4.287 1.444-2.796 2.904-5.618 4.704-8.186 3.212-4.58 7.13-8.502 11.51-12.048 2.84-2.3 5.843-3.893 9.335-4.683 3.055-.69 5.913-.462 8.187 2.044.23.252.548.446.71.732 2.176 3.83 4.44 7.615 6.456 11.529 1.558 3.023 3.383 3.75 6.234 2.044 2.822-1.69 4.957-1.499 7.15 1.166 2.116 2.573 4.622 3.324 7.587 2.221 4.145-1.541 7.658-.283 10.836 2.23 1.237.98 2.338 1.13 3.765.908 1.685-.264 3.4-.418 5.104-.443 2.865-.042 5.615-.406 8.339-1.438 3.716-1.408 5.691-.515 8.248 2.552 3.14 3.768 6.448 7.398 11.46 8.843.873.252 1.621 1.16 2.279 1.896 2.274 2.545 4.494 5.138 6.711 7.732 1.521 1.779 3.477 2.397 5.758 2.52 3.192.17 6.414.466 9.194 2.26.906.585 1.79 1.428 2.301 2.362 2.679 4.904 5.957 9.075 11.401 11.224 3.442 1.36 5.362 4.43 7.271 7.425.724 1.135 1.4 2.502 2.468 3.18 2.832 1.794 3.802 4.528 4.107 7.51.312 3.052 1.18 5.772 3.082 8.177 2.307 2.915 3.626 6.626 7.044 8.662.429.255.533 1.002.91 1.408.98 1.052 1.86 2.37 3.082 2.993 3.466 1.767 4.598 4.874 5.335 8.294.088.412.049.988-.18 1.312-2.148 3.04-3.745 6.617-7.65 7.985-2.548.894-3.881 2.711-3.897 5.42-.016 2.673-.427 5.213-1.94 7.507-.361.547-.555 1.284-.595 1.947-.11 1.817-.707 3.201-2.325 4.287-1.626 1.092-2.176 2.964-1.97 4.856.695 6.421.157 12.995 2.772 19.188.95 2.248 1.074 4.844 1.575 7.281l-.504.09zm-50.907 35.171c1.082-.973 2.087-2.123 2.816-3.378 1.468-2.527 3.12-4.38 6.452-4.064 1.103.105 2.62-.45 3.384-1.245 1.536-1.598 3.584-2.763 4.393-5.088.34-.977 1.401-1.703 2.36-2.8l.433 2.277c3.892-1.282 7.679-1.388 11.563-.484 3.028.704 5.824.041 8.273-2.098 1.446-1.264 3.087-2.36 4.781-3.271 2.32-1.246 3.73-3.034 3.832-5.642.12-3.058-.065-6.129.08-9.185.138-2.921-.449-5.669-1.461-8.356-2.248-5.963-2.833-12.189-2.831-18.482 0-1.305.455-2.707 1.046-3.891.847-1.698 2.151-3.167 3.002-4.863.809-1.613 2.177-3.724 1.695-5.02-.68-1.828.17-2.541.854-3.67.223-.37.318-.864.332-1.306.117-3.932 2.449-6.213 5.741-7.798 1.778-.856 3.224-2.066 4.045-3.497l-2.26-5.9c2.466-1.345 2.61 1.537 4.362 2.266-1.406-3.57-3.455-5.7-6.57-6.747-1.097-.37-2.431-.624-2.169-2.135.317-1.82-.493-2.678-1.957-3.507-.8-.453-1.244-1.526-1.866-2.307-1.05-1.317-1.854-3.188-3.224-3.815-2.88-1.32-4.102-3.869-6.464-6.5l3.027.484-2.826-4.783 2.64.266c.025-3.173-1.671-5.413-4.032-6.452-1.972-.866-2.972-2.229-3.998-3.765-.979-1.466-2.487-2.632-2.505-4.707-.005-.518-1.017-1.192-1.698-1.5-1.118-.507-2.341-.78-3.521-1.148-.175-.267-.312-.58-.55-.767-3.709-2.924-6.731-6.404-9.06-10.542-.55-.977-1.758-1.788-2.844-2.205-1.239-.475-2.675-.495-4.034-.587-4.426-.3-8.548-1.14-11.153-5.309-.658-1.052-1.57-1.955-2.424-2.873-1.387-1.49-2.622-3.237-4.278-4.342-4.606-3.075-9.395-5.876-14.143-8.804l.31-2.864c-1.437.184-2.606.284-3.757.49-2.78.498-5.538 1.14-8.33 1.543-2.361.34-4.843.104-7.12.702-3.38.887-6.487.05-9.657-.718-.406-.099-.716-.59-1.07-.9l.21-.552 5.358.649c-1.334-2.13-3.139-2.796-5.284-2.45-3.133.505-6.254 1.086-9.38 1.631-1.871.327-3.616-.65-4.34-2.51l2.981.452c-.967-1.382-2.087-2.325-3.23-3.24-.16-.128-.478-.223-.646-.152-1.141.48-2.247 1.044-3.39 1.518-4.076 1.688-6.669.45-8.294-3.757-.734-1.898-1.66-3.735-2.648-5.517-.986-1.777-2.174-3.441-3.25-5.17-.954-1.533-2.12-2.389-4.109-2.52-4.213-.28-7.421 1.755-10.676 3.905-5.507 3.637-8.606 9.305-12.24 14.509-1.005 1.44-1.638 3.139-2.814 5.45 2.813-1.259 4.81-2.267 6.891-3.052 1.964-.74 3.798-2.321 6.848-1.312-1.592.711-2.586 1.176-3.595 1.602-3.871 1.632-7.948 2.907-11.554 4.997-2.507 1.452-4.977 2.603-7.736 3.383-.96.272-1.885 1.264-2.467 2.16-1.686 2.595-2.9 5.393-3.255 8.543-.36 3.22-1.645 5.671-5.423 5.89-1.662.096-2.806 1.236-2.958 2.85-.131 1.409-.107 3.02.459 4.264.895 1.967.594 3.46-.676 5.032-.704.871-1.533 1.818-1.774 2.853-.797 3.435-1.74 6.909-1.897 10.4-.173 3.84-1.153 6.677-5.086 7.906-1.559.487-1.935 1.665-1.834 3.235.1 1.573-.227 3.173-.128 4.746.148 2.354-.102 5.011.918 6.965 1.448 2.776 1.183 4.805-.41 7.26-1.467 2.263-3.129 4.552-3.1 7.48.029 2.84.057 5.682.11 8.522.006.324.11.678.269.96 1.987 3.532 1.984 3.647.714 7.234a2.57 2.57 0 0 0 .012 1.618c1.021 2.777 1.77 5.736 3.264 8.242 3.038 5.096 4.857 10.522 5.756 16.33.117.752.322 1.64.811 2.159 2.495 2.64 5.096 5.178 7.66 7.752.103.11.214.208.334.298 2.828 2.087 4.55 4.82 5.497 8.247.41 1.483 1.81 2.692 2.78 4.02l.047.053c-.003 0-.005.002-.007.003l-.052-.069c.468 2.628 1.872 4.299 4.371 5.534 4.06 2.006 7.085 5.284 9.355 9.237.62 1.08 1.259 2.243 2.174 3.04 2.765 2.409 4.614 5.237 4.962 8.96.039.412.408.793.603 1.15 3.459-.008 4.483 2.978 6.253 5.01 4.188-.3 8.273-.644 12.365-.852 1.203-.062 2.467.114 3.63.443 1.748.496 3.454 1.169 5.139 1.862 5.037 2.073 10.28 3.727 14.136 8 .756.837 2.469 1.06 3.753 1.096 1.203.034 2.485-.413 3.623-.902 2.917-1.254 5.767-1.071 8.638.064 1.803.713 3.609 1.417 5.408 2.139 6.74 2.702 9.652 1.812 13.51-4.145.052-.08.007-.224.007-.35-1.803-1.766-4.827.03-7.225-2.656 2.88.287 5.14.11 7.097.797 3.39 1.19 5.255-.671 7.847-3.028-1.074.07-1.486.122-1.896.114-.403-.007-.805-.075-1.35-.13 1.3-1.733 1.505-1.807 3.685-1.985.862-.07 1.823-.079 2.548-.47 3.186-1.722 6.302-3.573 9.443-5.378h-3.177l-.117-.944 6.665-1.912.364.787-2.356 1.542c.768-.167 1.752-.096 2.26-.553zM21.408 164.32l-.734-2.46.617-.406 2.408 2.89-1.958.274a2.505 2.505 0 0 1-.333-.298zm-2.93-93.483l.063.02a2.04 2.04 0 0 1-.01.033zm.569-1.508c4.052-2.514 5.633-7.035 8.549-10.468 5.873-6.914 12.267-13.277 19.92-18.088 5.481-3.447 11.53-5.918 18.07-7 7.967-1.32 16.028-1.4 24.032-2.193 4.95-.491 9.744.164 14.541 1.362 2.756.688 5.623.943 8.444 1.358a86.675 86.675 0 0 1 23.855 7.096c5.723 2.642 11.37 5.524 15.934 9.865 3.612 3.435 8.066 5.42 11.989 8.273.536.39 1.278.498 2.287.2l-2.32-2.835c2.355.381 7.587 4.668 9.418 7.7-1.45-.566-2.537-.988-4.266-1.662.926 1.073 1.397 1.783 2.021 2.312 1.828 1.545 3.712 3.025 5.584 4.519.873.696 1.636 1.598 3.022 1.058.34-.133 1.074.285 1.396.652 1.642 1.868 3.209 3.803 4.625 5.502-.02 0-.673-.05-1.326-.096-.347.982 1.488 4.772 2.463 5.632a44.072 44.072 0 0 1 4.25 4.295c.693.806 1.484 1.764.449 3.037-.232.284.211 1.25.51 1.814 4.597 8.647 5.963 17.607 2.915 27.098-2.162 6.732-4.018 13.564-6.28 20.26-1.237 3.66-3.022 7.135-4.58 10.683-3.855 8.781-7.826 17.503-13.01 25.611-4.591 7.184-10.263 13.365-16.984 18.61-6.64 5.181-13.895 9.137-22.022 11.447-2.521.717-4.987 1.64-7.523 2.29-3.104.796-6.245.877-9.487.745-6.974-.283-13.869-1.059-20.74-2.182-.226-.037-.518-.172-.668-.08-2.784 1.702-4.85-.41-7.182-1.265-1.9-.697-3.895-1.13-5.824-1.755-.617-.2-1.137-.682-1.736-.961-.714-.333-1.779-1.048-2.147-.797-2.215 1.508-3.138-.392-4.5-1.384a23.124 23.124 0 0 0-4.068-2.38c-2.767-1.248-5.603-2.342-8.594-3.577l2.676 4.732c-3.747-1.584-5.565-4.165-5.211-6.416-3.281-2.61-6.763-4.863-9.602-7.75-5.58-5.674-10.863-11.645-16.131-17.616-1.491-1.69-2.562-3.767-3.721-5.728-4.114-6.959-8.555-13.74-11.66-21.255-.295-.714-.792-1.344-1.253-2.109l-1.31 1.076c-.253-.304-.619-.54-.638-.8-.136-1.78-.159-3.57-.306-5.349-.054-.653-.337-1.288-.532-1.927-1.127-3.684-2.178-7.394-3.42-11.039-.716-2.098-1.862-4.036-1.805-6.374.028-1.141-.225-2.216.9-3.09.445-.344.637-1.165.722-1.799.62-4.617 1.182-9.242 1.787-14.058l-1.986 1.736c-.152-2.433.882-4.093 2.1-5.189 1.949-1.755 2.275-4.135 3.165-6.285.23-.554-.49-1.502-.844-2.46 1.88-3.101 3.87-6.388 5.865-9.673.435-.718.865-1.424-.318-1.796.153-.534.155-1.31.505-1.527zm146.618 3.835c-.762-1.34-1.403-2.4-1.98-3.492-3.444-6.521-7.814-12.318-13.636-16.888-7.525-5.906-15.922-10.388-25.13-12.783-9.453-2.458-19.15-3.978-28.742-5.899-.33-.066-.685 0-1.024-.04-2.483-.282-4.326.78-5.2 3.014a81.543 81.543 0 0 0-2.926 9.06c-.343 1.313-.058 2.79-.058 4.552 1.186-.461 1.832-.646 2.417-.95 6.159-3.199 12.602-4.613 19.466-2.911 3.636.9 7.261 1.892 10.814 3.076 10.667 3.554 19.456 9.893 26.413 18.659 1.583 1.994 2.404 4.622 3.388 7.035.209.511-.4 1.356-.632 2.047-.63-.345-1.392-.568-1.851-1.069-.43-.47-.518-1.243-.794-1.865-.601-1.353-.91-3.016-1.896-3.986-4.208-4.14-8.271-8.568-13.059-11.936-4.317-3.038-9.364-5.211-14.343-7.096-10.078-3.815-20.171-4.543-30.016 1.862.716 3.075 1.32 6.263 3.423 8.925l.056.036a5.341 5.341 0 0 0-.012.02l-.056-.064c1.162 3.855 3.356 7.043 6.29 9.75.622.934 1.328 1.826 1.82 2.823.204.41.13 1.2-.152 1.543-.286.348-1.092.62-1.481.462-1.036-.422-2.063-.981-2.926-1.69-1.76-1.444-3.59-2.87-5.065-4.584-2.142-2.49-4.349-5.043-5.875-7.915-1.638-3.085-2.633-6.534-3.705-9.89-1.715-5.37-2.854-10.82-1.107-16.448.08-.261-.129-.613-.199-.902h-9.06c.097 2.62-1.605 3.146-3.431 3.74a42.05 42.05 0 0 0-6 2.458C52.608 45.26 46.84 50.124 41.41 55.35 35.136 61.385 29.593 67.98 26 76.096c-2.92 6.591-5.564 13.265-7.255 20.255-1.28 5.297-3.14 10.513-3.006 16.095.015.626-.56 1.264-.923 2.027-1.912-2.12-1.907-2.12-1.383-5.09 1.685-9.566 4.05-18.95 7.891-27.893 2.15-5.005 3.937-10.215 7.265-14.638 9.523-12.655 20.752-23.295 35.357-30.053-2.098.452-4.15 1.051-6.172 1.74-6.245 2.132-11.595 5.667-16.605 9.96-4.8 4.115-9.076 8.675-12.925 13.617-5.73 7.356-9.651 15.672-12.637 24.513-3.028 8.968-4.655 18.094-4.453 27.54.045 2.12.42 4.233.67 6.585 1.56-.144 2.68-.211 3.79-.358 2.144-.285 4.273-.763 6.424-.898 5.114-.322 10.237-.496 15.356-.719 1.3-.056 2.572-.025 2.87 1.94-3.951 3.023-8.957 2.386-13.89 3.346.567 2.502.946 4.732 1.584 6.883 1.804 6.086 5.142 11.412 8.593 16.65 1.248 1.895 2.587 3.842 4.278 5.31 6.55 5.688 14.062 9.608 22.505 11.764 5.399 1.38 10.74 2.984 16.107 4.489.11.03.255.054.31.132.367.514 1.111 1.199.98 1.532-.239.606-.933 1.163-1.568 1.437-.435.188-1.11-.08-1.647-.245-7.08-2.158-14.187-4.232-21.222-6.528-12.79-4.175-21.5-12.986-27.267-24.839-2.33-4.785-4.402-9.75-4.677-15.216-5.809 1.127-8.718 6.536-6.151 11.161.923 1.664 1.755 3.38 2.569 5.101 1.958 4.145 4.139 8.128 7.43 11.416 2.257 2.256 4.396 4.63 6.622 6.917 2.544 2.615 4.986 5.354 7.722 7.753 6.064 5.316 13.296 8.293 21.113 9.98 1.162.25 2.29.654 3.637 1.047-.915 1.795-1.922 2.49-3.485 2.117-2.435-.582-4.957-.955-7.273-1.854-7.837-3.044-15.006-7.164-20.57-13.672-.295-.345-.782-.525-1.179-.783l-.493.624c8.593 8.597 15.34 19.146 26.675 24.99.719-.643 1.246-1.066 1.717-1.543 3.965-4.027 8.613-7.141 13.618-9.64 2.642-1.32 4.87-3.035 6.643-5.247 1.405-1.751 3.184-3.458 3.37-6.012-6.062-.458-11.719-1.836-17.14-3.9a157.29 157.29 0 0 1-15.58-6.948c-6.006-3.07-11.593-6.784-15.806-12.267-3.405-4.432-5.565-9.386-6.733-14.798-.27-1.253-.534-2.681 1.413-3.751.372 1.29.681 2.327.97 3.37.334 1.206.547 2.456.99 3.62 3.633 9.539 10.331 16.22 19.397 20.667 2.356 1.155 4.665 2.419 7.079 3.436 4.19 1.766 8.364 3.634 12.695 4.975 3.453 1.07 7.144 1.356 10.7 2.123 1.215.262 2.342.93 3.642 1.466 2.799-6.582 6.79-12.66 8.29-19.81.253-1.207.825-2.276 2.582-2.878.152 1.21.434 2.178.365 3.12-.341 4.662-.78 9.316-1.176 13.973-.662 7.774-3.206 14.644-9.217 19.986-1.69 1.502-3.107 3.338-4.513 5.127-1.367 1.741-2.212 3.716-1.729 6.08 2.034 0 4.043-.005 6.051.002 6.384.024 12.842.722 19.095-.888 5.173-1.333 10.194-3.257 15.282-4.917 4.164-1.359 8.032-3.311 11.428-6.072 3.266-2.653 6.408-5.46 9.585-8.22 1.022-.889 1.926-2.058 3.835-.75-.45.757-.726 1.643-1.321 2.167-7.202 6.35-14.468 12.616-23.927 15.487-6.311 1.916-12.23 5.2-18.976 5.588-3.866.222-7.742.29-11.615.36-3.15.055-6.302.01-9.672.01-.232 1.756-1.156 3.915.849 6.247 1.08-2.794 3.095-2.63 5.383-2.626 5.571.01 11.143-.372 16.714-.613 1.135-.049 2.267-.235 3.398-.218.348.005.95.46.972.745.038.478-.153 1.208-.504 1.432-.636.405-1.446.655-2.207.725-2.834.26-5.675.47-8.517.603-3.936.183-7.875.28-12.246.427 5.802 2.58 18.977 4.781 25.433 4.35.367-.642.762-1.33 1.154-2.021.393-.692.714-1.436 1.185-2.069 1.74-2.341 4.083-2.162 5.318.438.58 1.223.951 2.546 1.541 4.164 1.364-.168 2.727-.153 3.973-.526 3.386-1.01 6.704-2.248 10.083-3.282 9.174-2.809 16.536-8.56 23.76-14.536 2.66-2.2 3.07-5.024 1.619-8.002-.781-1.6-1.792-3.287-3.15-4.368-2.569-2.047-5.381-3.83-8.248-5.447-2.27-1.28-4.806-2.079-7.145-3.248-.537-.268-.752-1.179-1.115-1.793.564-.275 1.122-.77 1.695-.79 7.409-.243 14.562.702 21.001 4.765.628.396 1.287.742 1.772 1.019.577-1.226.929-2.304 1.535-3.212 4.942-7.404 9.235-15.162 13.256-23.105 6.025-11.9 9.094-24.808 13.213-37.359 1.005-3.061.049-5.976-1.603-9.503-.357 2-.623 3.194-.777 4.403-1.518 11.86-4.689 23.24-10.074 33.939-3.642 7.234-7.322 14.458-11.297 21.512-1.772 3.144-4.282 5.88-6.52 8.75-.607.778-1.383 1.684-2.79.256.473-.753.956-1.593 1.509-2.386 1.761-2.524 3.723-4.926 5.294-7.563 5.614-9.419 10.29-19.308 14.668-29.36 3.37-7.737 4.817-15.92 6.226-24.11.562-3.266.648-6.718-.833-9.94-.3.52-.409 1.042-.464 1.567-1.045 9.927-3.417 19.533-6.933 28.868-3.675 9.752-8.115 19.15-13.978 27.762-2.74 4.025-6.242 7.536-9.466 11.221-.507.58-1.373.845-2.305 1.391.072-2.249.045-2.276 1.35-3.58 6.204-6.196 11.084-13.335 14.76-21.254 2.826-6.086 5.42-12.286 7.938-18.507 4.156-10.268 6.025-21.049 6.201-32.06.065-4.025-.726-8.185-4.224-11.357-5.737 2.838-11.258 6.09-17.58 7.495-6.123 1.363-12.134 3.38-18.797 3.037.414-1.972 1.675-2.175 2.792-2.706 4.525-2.151 9.009-4.392 13.478-6.658.537-.272.913-.862 1.353-1.326 2.016-.234 3.455-1.399 4.706-2.575zM79.01 198.15c.13-1.59.253-2.925.346-4.262.376-5.41 1.982-10.174 6.215-13.968 2.346-2.102 4.338-4.67 6.18-7.248 3.386-4.741 3.428-10.35 3.738-15.89a1.83 1.83 0 0 0-.928.923c-1.699 3.476-3.316 6.995-5.09 10.431-2.993 5.793-7.062 10.4-13.114 13.405-3.607 1.791-6.648 4.748-9.87 7.274-.847.665-1.42 1.679-2.084 2.489 2.444 2.78 9.593 6.152 14.607 6.846zm9.018-163.408c-.9-.119-1.454-.212-2.01-.258-.568-.047-1.14-.087-1.706-.062-2.474.11-2.855.443-3.594 2.773-.77 2.424-1.036 4.86-.718 7.407.825 6.628 2.626 12.92 6.088 18.677.293.489.728.892 1.097 1.335-1.044-5.033-3.641-9.413-3.353-14.821.281-5.287 2.03-9.937 4.196-15.051zm100.033 97.449c-5.526 13.7-13.184 26.21-21.233 38.872l2.892 1.57c7.857-12.956 13.93-26.31 18.341-40.442zm-14.5-61.712l-18.835 12.37c8.219-1.02 20.051-5.75 22.608-9.227-1.358-1.13-2.729-2.272-3.773-3.143zm-9.263 109.674l4.227-5.091c-11.221-7.569-13.927-8.705-18.36-7.583 5.696 3.092 11.228 6.076 14.133 12.674zm.195-116.603l-.465.434 3.478 7.91c1.373-1.273 2.457-2.276 3.887-3.6l-6.9-4.744zM21.366 122.692l.049-.564c-1.884.317-3.802.503-5.645.979-2.836.731-3.165 2.482-1.065 4.854l6.66-5.269zm93.032 82.52l3.462.526c-.548-1.493-.916-2.493-1.501-4.09-.785 1.426-1.25 2.27-1.96 3.563zm77.299-86.81l.844.274 1.316-4.711-.636-.171-1.524 4.608zm-43.624-76.316c-4.543-2.191-7.666-5.405-12.485-6.209 1.406 1.74 3.843 1.62 4.452 3.771-3.39-.772-8.437-3.325-9.562-4.7 1.681-.148 3.55-.725 5.219-.368 2.613.558 5.175 1.57 7.598 2.727 1.78.85 3.586 1.944 4.778 4.779zM113.38 219.06c-2.308-.358-4.202-.62-6.079-.968-.404-.075-1.102-.608-1.069-.69.828-2.059-1.95-1.952-2.157-3.794l8.473 1.98.832 3.472zm85.435-111.676c4.373 2.874 4.524 9.213 2.124 14.353 0-2.388.268-4.815-.075-7.153-.348-2.375-1.299-4.66-2.049-7.2zm1.158 14.676c-.748 2.924-1.192 5.935-3 8.63-.062-2.542-3.092-4.61-.999-7.66l1.426 1.559 1.688-2.782.885.253zM64.106 202.955c3.391-1.787 6.166-.671 9.65 1.028M70.56 24.775c-3.83 2.105-7.84 3.571-12.228 3.824m140.39 143.847l-6.602 9.755M179.485 61.28l-.028-.011-.049-.053.077.064zm4.632 5.09l-.544.59-9.187-7.061.329-.57 4.742 1.94 4.66 5.101zM56.188 17.523c3.824-3.198 8.615-3.56 13.474-3.703m30.66 196.773c3.168-.376 6.175.392 9.615 1.099m-11.26 5.867c-3.632 1.392-5.941.427-8.66-3.273 1.932-.89 2.811.97 4.128 1.46 1.34.499 2.657 1.06 4.532 1.813zM28.42 48.57l8.366-7.248m6.977-6.636l11.575-4.79.291.682c-3.517 2.403-7.57 3.544-11.512 4.944l-.354-.836zm141.353 122.62l2.816-10.074m-2.065 13.92c-.696 3.119-2.245 5.738-4.412 7.995m11.578-36.465c1.031 2.313.542 5.422-1.427 9.073M72.794 20.996L62.328 23.32c.09-.332.068-.865.312-1.054 1.434-1.111 7.265-2.067 10.154-1.269zm91.018 171.654c.911-2.89 3.674-6.744 5.827-8.452m36.311-77.911l-6.168-7.576m-84.04 112.114c2.971.101 5.987-.754 8.892.944h-8.923l.03-.944zm77.727-59.158c1.51 3.457-1.147 5.516-2.24 8.098l-.673-.242 2.913-7.856zm-169.784 8.31c3.053 1.76 4.553 3.782 5.464 6.498m56.37-139.177l7.653 1.098m-5.9 181.042c2.7-.044 5.062.83 7.469 2.46m-56.722-33.029l5.1 5.464M132.18 28.12c-1.815.74-5.409.613-8.787-.32m40.559 22.815c3.63-.608 6.079.9 6.915 3.814m-53.957-21.568c2.503-.817 4.475.362 6.97 1.081m54.684 135.416c-.145 2.268-1.553 4.588-4.653 7.665m8.129-1.964c-.805 2.854-2.392 5.157-4.623 7.008l-.572-.395 4.502-7.083.693.47zM14.619 143.56c2.161 2.327 2.562 4.647 2.632 7.086M27.78 39.921c1.313-3.105 3.7-5.288 6.51-7.559M136.405 206.56c-1.886 1.87-4.185 2.215-6.635 2.025M111.665 28.918c2.814-.599 4.575 1.558 6.835 2.41M45.183 189.845c2.043 1.162 4.212 2.208 4.144 5.35-1.618-1.566-3.237-3.132-4.855-4.7l.711-.65zm-.003-4.88c3.778 1.549 4.394 2.318 4.45 5.106m-17.759-13.86c1.218 1.321 2.76 2.501 3.119 5.239-1.04-.684-1.654-.96-2.098-1.406-.985-.992-1.89-2.064-2.827-3.108.626-.265 1.65-.895 1.806-.725zm23.486 22.375c1.61 1.329 3.117 2.62 3.222 4.772m3.813 1.6l5.756 1.88c-1.274 1-1.298 1.086-3.158.545-1.081-.314-2.066-.956-3.094-1.45l.496-.975zM9.36 135.31c-1.593-1.925-1.233-4.023-.727-6.133m198.324-21.105c1.844 1.785 1.435 3.768.746 5.784M18.537 61.789c.924 2.543-1.133 4.053-2.027 5.967m138.202-16.433c2.627-.251 4.202.367 6.006 2.357M154.4 49.34c-1.724-1.562-4.438-1.814-4.566-4.945M97.19 29.755c2.877-.682 4.489-.427 7.22.94m-70.426 145.19c-1.52-1.632-2.377-3.517-2.386-6.36M50.697 14.18c1.075-2.568 1.65-2.865 5.395-3.222M189.14 165.396l-2.71 5.848-.688-.303c.118-2.279 1.557-4.021 2.365-6.02l1.033.475zm6.163-73.272c1.965 1.158 3.013 2.727 3.82 4.603m-9.473 56.413l2.416-6.73m-1.78 27.071l-2.44 4.658c-1.087-2.464.3-3.756 1.565-5.104l.875.446zM67.113 7.646c-2.447.43-4.894.86-7.342 1.292l-.158-.75 7.277-1.502.223.96zM82.88 208.977l-4.674-2.192M7.284 87.485c.194-2.274 1.268-4.061 3.37-6.185M158.27 195.28l4.724-4.45m16.382-4.253l4.2-5.159m-28.773 16.156l-4.986 2.112c.924-2.061 1.024-2.112 4.626-2.843l.36.731zm-139.547-46.01c1.687 1.024 2.31 2.405 1.475 4.682m179.392 7.624l-2.736 4.287c-.554-2.256.768-3.48 1.87-4.82.29.177.578.355.866.533zm-10.238-91.523l3.454 4.187c-2.298-.714-2.902-1.382-4.003-3.749l.55-.438zM26.682 54.927l4.664-3.322c-1.357 2.888-1.623 3.105-4.206 3.908l-.458-.586zm-5.842 5.566l3.432-2.697m-2.23-7.326l-3.403 3.205m103.633 166.917l-3.634 1.083c.656-2.018 2.095-1.77 3.359-2.009l.275.926zM43.079 38.573l-4.3 2.212-.383-.77 4.333-2.15.35.708zM3.887 118.009c.833-1.64 1.342-2.638 2.03-3.99m12.614-43.13a4.175 4.175 0 0 0-.073.012l.02-.065.053.053zm-2.55 3.272c.321-1.797.808-2.964 2.477-3.26-.552 1.86-.614 1.85-2.477 3.26zM42.82 32.12c-1.417-1.427-1.009-2.205 1.002-2.715m39.78-6.536l-2.098-.135.062-.54 2.082.327-.046.348zm2.75 100.046c4.314 2.192 8.746 1.861 12.805-.263 7.31-3.825 13.083-9.47 17.453-16.48 1.767-2.835 1.752-5.896.244-8.81-1.096-2.115-2.488-4.084-3.825-6.067-3.57-5.293-8.85-6.059-14.49-4.927-3.92.787-7.644 2.364-10.32 5.657-.341.42-.867.718-1.357.983-.266.143-.635.098-.937.135-.87-1.018-.745-1.981.088-2.785 4.098-3.951 9.053-6.036 14.688-6.518 1.688-.143 3.393-.127 5.09-.109 2.802.03 5.163 1.38 6.966 3.259 2.269 2.364 4.463 4.952 6.028 7.805 2.68 4.89 2.412 9.845-1.047 14.47-4 5.352-8.74 9.923-14.192 13.767-.64.452-1.287.893-1.826 1.513 3.549-.373 6.116-2.712 8.678-4.742 4.504-3.569 7.88-8.203 10.862-13.106 1.917-3.15 2.024-6.4.787-9.83-2.13-5.906-5.67-10.516-11.22-13.703-9.916-5.692-21.756-.683-27.203 5.458-.78.88-1.333 2.23-3.107 1.596-.446-1.546.38-2.629 1.368-3.543 3.464-3.204 7.16-6.048 11.933-7.05 2.678-.562 5.342-1.215 8.04-1.655 3.312-.54 6.21 1.053 9.11 2.237 1.655.676 3.057 1.974 4.567 3 5.536 3.762 8.065 9.491 9.796 15.582 1.019 3.585-.152 7.05-2.228 10.073-4.156 6.05-8.711 11.806-15.063 15.697-8.15 4.994-17.043 7.136-26.543 5.363-4.468-.834-8.21-3.376-11.13-6.889-2.505-3.015-2.877-6.849-2.438-10.413.468-3.788 1.933-7.469 3.145-11.136.299-.904 1.305-1.574 1.985-2.351l.653.385c-.064.595-.026 1.221-.209 1.776-1.283 3.891-2.89 7.677-2.993 11.889-.114 4.713 1.58 8.356 5.54 11.053 5.122 3.49 8.058 4.183 14.75 3.27-2.89-.987-6.458-2.085-9.934-3.42-4.987-1.917-6.914-6.079-7.364-11.018-.331-3.64 1.292-6.903 2.655-10.159.19-.455.993-.654 2.07-1.312-.158 1.322-.184 2.042-.338 2.734-.541 2.437-1.555 4.855-1.611 7.298-.144 6.222 3.28 9.833 10.142 11.331zM73.914 135.9a93.58 93.58 0 0 0 .07.063 16.969 16.969 0 0 1-.025-.005 9.072 9.072 0 0 1-.057-.06c.004 0 .008 0 .012.002zm-4.722-4.249c-5.015-4.209-6.945-9.661-6.876-16.08.05-4.729 1.946-8.867 3.66-13.088.472-1.162.855-2.408 1.575-3.401.437-.602 1.562-1.234 2.168-1.071 1.224.33.731 1.383.342 2.25-1.168 2.603-2.313 5.216-3.46 7.828-2.129 4.849-2.371 10.017-.382 14.698 2.574 6.06 7.033 10.513 14.036 11.733 7.164 1.25 13.83.039 20.154-3.423 5.492-3.005 11.24-5.637 15.679-10.234 2.611-2.705 5.304-5.369 7.611-8.324 5.975-7.653 6.265-18.99-1.035-27.012-4.735-5.204-9.83-9.77-16.669-12.182-3.125-1.101-6.199-1.138-9.361-1.137-.163-1.964.996-2.486 2.722-2.508 4.1-.053 7.907 1.242 11.496 2.934 6.505 3.067 11.588 7.898 16.003 13.557 6.86 8.793 4.87 22.522-2.146 29.514-1.772 1.765-3.324 3.753-5.11 5.501-8.585 8.403-18.63 14.15-30.517 16.393-4.25.802-8.372-.437-12.51-1.182-.889-.16-1.773-.344-2.658-.517-1.57-1.42-3.1-2.889-4.722-4.249zM96.634 72.21l.006.069-.07-.07h.064zm64.316 3.53l.022-.069.048.005-.07.064zm-2.215-2.243c-2.662-6.16-6.728-11.362-11.555-15.938-2.806-2.66-5.75-5.233-8.916-7.44a47.573 47.573 0 0 0-15.145-6.992c-.422-.111-.875-.11-1.422.133 1.27.603 2.499 1.32 3.816 1.791 9.378 3.358 16.982 9.26 23.37 16.711 3.275 3.82 5.426 8.424 7.087 13.198.324.93.25.956-.948 3.132-.577-.872-1.148-1.497-1.453-2.232-2.146-5.176-4.306-10.35-8.368-14.393-5.612-5.588-11.688-10.497-19.284-13.236-3.43-1.237-6.763-2.744-10.139-4.13-2.798-1.15-5.713-1.644-8.716-1.334-4.975.513-10.057.613-14.529 3.347-.279.172-.645.236-.98.267-.202.02-.42-.117-.81-.241-.497-1.417.232-2.361 1.494-2.829 2.018-.747 4.09-1.363 6.17-1.92 1.419-.382 2.89-.569 4.35-1.426-1.954-.116-3.934-.48-5.854-.277-1.963.209-3.867.975-5.883 1.52-.755-1.612-.001-2.552 1.121-2.864 2.27-.63 4.693-1.578 6.928-1.318 8.603.998 17.174 2.32 25.718 3.753 2.316.389 4.546 1.478 6.727 2.446 10.957 4.861 19.33 12.734 25.966 22.573 1.08 1.6 2.002 3.309 2.95 4.994.866 1.54 1.087 3.176.542 4.88-1.315-.132-1.75-1.05-2.237-2.175zm13.395 12.821c-.126-1.465-.42-2.332-.195-3.033.193-.6.915-1.191 1.536-1.412.256-.091 1.25.804 1.243 1.24-.044 2.833.147 5.765-.52 8.474-1.769 7.195-4.012 14.273-5.918 21.437-1.86 6.993-4.342 13.725-8.345 19.772-6.352 9.595-12.031 19.687-20.224 27.952-9.005 9.085-19.323 15.986-31.95 18.933-3.872.904-7.796 1.623-11.725 2.24-1.35.211-3.61.729-3.802-1.091-.242-2.297 2.086-1.404 3.382-1.485 6.56-.412 12.795-2.224 18.899-4.472 12.758-4.699 22.5-13.41 30.257-24.22 5.966-8.313 11.177-17.178 16.514-25.926 1.338-2.193 2.015-4.836 2.742-7.346 2.568-8.865 5.062-17.751 7.495-26.654.446-1.629.475-3.372.611-4.409zM144 130.736c-8.15 1.904-15.586.104-22.604-4.096-.966-.578-2.106-1.097-1.591-2.734 1.76-1.2 3.516-.053 5.106.476 4.955 1.646 10.005 2.192 15.176 1.988.791-.031 1.58-.133 2.646-.226 2.435-4.37 5.124-8.71 7.338-13.282 3.52-7.263 5.647-14.906 4.899-23.114-.031-.341-.108-.684-.09-1.021.06-1.082.306-2.274 1.62-2.094.513.07 1.221 1.283 1.234 1.986.05 2.733.076 5.501-.293 8.201-.853 6.24-2.423 12.274-5.664 17.793-1.954 3.328-3.65 6.807-5.684 10.633.973 0 1.686.083 2.375-.014 3.16-.443 6.306-.982 9.471-1.382.78-.098 1.61.198 3.09.408-2.773 3.06-6.2 3.178-8.854 4.731 1.273.645 1.556 1.625.836 2.82-3.517 5.833-5.954 12.33-10.686 17.417-1.315 1.414-2.509 2.98-3.99 4.192a927.016 927.016 0 0 1-16.559 13.2c-5.137 4.01-11.143 6.102-17.397 7.592-2.212.527-4.41 1.14-6.645 1.538-.62.11-1.35-.402-2.03-.63.423-.549.748-1.434 1.286-1.593 3.16-.93 6.348-1.8 9.57-2.483 6.407-1.358 11.878-4.474 16.889-8.56 4.233-3.451 8.627-6.718 12.723-10.324 4.565-4.018 8.073-8.932 10.802-14.37 1.327-2.645 2.522-5.355 3.777-8.035-2.253.318-4.544.467-6.75.983zm-7.446-2.138l-.064.22h4.431l-.025-.22h-4.342zM97.13 59.188c7.98-2.709 15.383-.186 22.338 3.378 6.084 3.116 11.334 7.552 16.161 12.462 3.173 3.227 5.037 7.032 5.783 11.39.615 3.587 1.314 7.216 1.35 10.832.085 8.446-3.303 15.738-8.457 22.232-1.212 1.528-2.065 3.576-4.196 4.219-1.193-.847-1.088-1.787-.386-2.705.761-.995 1.598-1.935 2.443-2.861 4.198-4.605 6.184-10.303 7.91-16.11.316-1.062.386-2.282.233-3.383-.643-4.61-1.225-9.242-2.212-13.784-.576-2.65-2.016-4.997-4.003-7.04-4.39-4.512-8.854-9.013-14.479-11.859-4.325-2.188-9.006-3.871-13.71-5.053-3.783-.95-7.681.346-11.387 1.529-1.417.452-2.764.973-4.164.08 1.501-2.628 4.406-2.522 6.776-3.327zm-26.937 78.408c-7.342-3.18-11.56-8.916-13.875-16.31-1.053-3.36-.121-6.608 1.037-9.674 1.761-4.663 3.833-9.215 5.922-13.745.532-1.153 1.629-2.045 2.488-3.084 1.743 1.135.915 2.127.441 3.116-1.768 3.689-3.566 7.366-5.263 11.088-.609 1.334-.885 2.817-1.446 4.178-2.32 5.636-.524 10.47 2.91 14.946 2.972 3.874 6.562 6.912 11.55 7.848 2.25 2.38 5.321 2.937 8.299 3.26 6.482.704 12.666-.723 18.489-3.577 5.3-2.597 10.516-5.362 15.792-8.01.641-.322 1.419-.372 2.227-.572.66 1.636-.156 2.383-1.148 2.995-2.033 1.252-4.001 2.663-6.162 3.643a394.709 394.709 0 0 1-16.297 6.957c-5.234 2.096-10.69 1.69-16.131.965 1.347 1.495 3.142 1.635 4.998 1.774 2.933.22 5.854.59 8.667.886.623 1.398-.221 1.992-1.04 2.293-.818.299-1.803.404-2.666.272-7.55-1.148-15.155-2.123-21.775-6.452-.843-.551-1.901-.764-2.842-1.174-6.073-2.653-10.815-6.777-13.652-12.827-1.38-2.942-1.6-6.138-1.152-9.363.703-5.063 2.867-9.573 5.29-13.981 1.479-2.69 2.97-5.373 4.54-8.01.368-.618 1.075-1.035 1.667-1.583 1.774 1.41.739 2.55.09 3.703-2.18 3.873-4.579 7.644-6.457 11.658-1.286 2.748-2.172 5.783-2.66 8.783-.972 5.977 1.691 10.774 6.083 14.485 5.1 4.31 11.287 6.718 17.509 8.953-1.804-1.163-3.49-2.599-5.433-3.44zM55.922 93.783c1.618 1.713.809 2.625.113 3.534-1.938 2.531-3.807 5.12-5.85 7.564-4.58 5.477-5.706 11.53-3.204 18.202a103.27 103.27 0 0 0 3.33 7.86c1.46 3.089 3.852 5.285 6.912 6.826 3.051 1.537 5.968 3.355 9.067 4.78 4.536 2.084 9.116 4.113 13.81 5.792 2.301.824 4.899.837 7.37 1.15 1.013.129 2.052.039 3.072.129.93.082 2.032.302 1.81 1.495-.094.5-1.101 1.139-1.725 1.176-4.804.29-9.553.055-13.98-2.163-.407-.204-.802-.466-1.234-.58-7.482-1.989-13.763-6.503-20.535-9.95-2.395-1.218-4.485-3.52-6.042-5.789-2.587-3.766-4.112-8.125-5.113-12.6-1.435-6.41-.039-12.152 4.18-17.246 2.103-2.539 3.993-5.252 6.005-7.867.58-.752 1.247-1.437 2.014-2.313zm30.5 29.176c-1.061-.661-2.145-1.287-3.177-1.99-4.243-2.887-6.589-9.057-3.81-13.817.627-1.073.927-2.338 1.556-3.408.337-.574 1.058-.921 2.041-1.729 0 1.235.149 1.889-.029 2.436-.455 1.405-1.107 2.745-1.589 4.142-1.216 3.53-.236 6.615 2.478 8.937 2.842 2.43 6.08 4.007 9.919 1.976l-.08.054c4.014-.117 7.219-2.113 9.868-4.817 2.372-2.422 4.465-5.168 6.37-7.983 1.95-2.884 1.62-5.864-.724-8.47-1.514-1.68-3.24-3.194-5-4.622-.642-.522-1.652-.611-2.509-.84-.523-.14-1.358.026-1.568-.28-1.033-1.505-2.336-.873-3.334-.324C94.36 93.583 92 95.152 89.635 96.7c-.553.363-.86 1.137-1.431 1.426-.517.262-1.239.121-1.87.158.022-.616-.212-1.46.104-1.814 3.442-3.846 7.632-6.477 12.835-7.098 2.62-.313 4.928 1.022 6.964 2.4 1.947 1.317 3.605 3.113 5.224 4.854 2.917 3.136 3.25 6.893 1.249 10.448-3.824 6.793-8.98 12.303-16.576 15.044-3.2 1.155-6.47 1.176-9.783.795.002 0 .07.046.07.046zm-2.284-22.02c-1.462-.486-2.552-.708-3.506-1.195-2.131-1.089-4.379-2.071-6.248-3.524-4.527-3.515-9.768-4.165-15.18-4.246-1.655-.024-2.921-.19-3.121-2.552l8.819-1.822c.304-4.572 3.77-7.644 6.668-10.845 2.725-3.011 6.145-5.412 9.37-7.94.768-.601 1.978-.639 2.91-.914.796 1.626.148 2.327-.747 2.979a454.637 454.637 0 0 0-6.601 4.873c-4.242 3.204-7.484 7.214-10.003 12.256l6.893 1.962c2.666-4.655 6.315-8.361 10.452-11.591a19.655 19.655 0 0 1 4.093-2.45c.498-.22 1.344.342 2.03.547-.252.571-.348 1.356-.785 1.679-1.915 1.42-4.118 2.498-5.862 4.088-2.674 2.437-5.056 5.193-7.515 7.763 2.128 1.686 3.994 2.96 5.607 4.498 1.565 1.493 2.822 3.28 2.726 6.435zM68.963 90.725l-.259-.156h-.407l.347.052.32.104zm-3.807-.628l-.035.472h3.176l-3.141-.472zm13.353 6.369c.117.07.391-.124 1.083-.367-1.194-1.071-2.086-2.327-3.296-2.86-2.355-1.037-4.869-1.715-7.333-2.514 3.178 1.92 6.355 3.843 9.546 5.741zm66.845 64.837c3.178-4.076 6.08-7.988 9.183-11.732 3.905-4.709 6.74-10.024 9.143-15.58 2.082-4.81 3.71-9.826 5.926-14.57 3.133-6.705 4.47-13.844 5.8-21.014.312-1.68.536-3.38.932-5.04.936-3.91 1.62-7.826.666-11.832-.333-1.399.18-2.293 1.559-2.47 1.464-.19 1.702.994 1.653 2.031-.17 3.637-.223 7.302-.746 10.895-.64 4.396-1.728 8.726-2.584 13.093-1.325 6.764-3.834 13.13-6.51 19.44-3.296 7.77-6.264 15.732-11.175 22.673-3.221 4.553-6.868 8.807-10.391 13.14-.762.938-1.727 1.901-3.456.966zM21.64 129.317c1.61 3.825 3.165 7.335 4.572 10.903 2.173 5.51 5.908 9.972 9.593 14.451 6.37 7.743 14.708 12.39 24.276 14.962 3.838 1.032 7.718 1.906 11.582 2.84.996.24 2.01.41 3.002.669.918.24 1.836.626 1.607 1.81-.236 1.213-1.125 1.702-2.303 1.41-10.376-2.583-20.959-4.665-30.093-10.667-8.881-5.836-15.297-13.869-19.89-23.383-1.285-2.661-2.355-5.427-3.489-8.16-.933-2.25-.721-3.243 1.143-4.835zm73.619-62.938c.628-.48 1.207-1.277 1.893-1.382 2.566-.395 5.239-1.074 7.742-.723 7.414 1.042 14.484 3.086 19.825 8.93 2.374 2.6 5.228 4.795 7.393 7.544 4.475 5.687 5.605 12.514 4.73 19.426-.958 7.548-3.618 14.6-9.098 20.237-.73.75-1.597 1.369-2.4 2.048l-.775-.476c.177-.78.19-1.654.568-2.32.615-1.077 1.417-2.062 2.232-3.006 3.687-4.27 5.685-9.392 6.778-14.76 1.419-6.971.125-13.656-4.198-19.412-3.785-5.039-8.323-9.467-14.007-12.29-6.011-2.987-12.437-4.425-19.226-2.992-.302.064-.645-.062-.97-.1l-.487-.724zm-74.593 49.214c-.302-1.102-.858-2.121-.8-3.103.17-2.826.29-5.712.968-8.44 1.784-7.183 3.638-14.389 7.063-21.006 3.346-6.464 6.662-12.965 11.468-18.549 2.149-2.497 4.097-5.166 6.194-7.71 3.81-4.617 8.528-8.087 13.541-11.343 4.312-2.8 8.937-4.407 13.804-5.603.679-.167 1.434-.023 2.736-.023-.713.938-.999 1.518-1.46 1.863-.433.322-1.044.427-1.59.573-12.169 3.277-21.423 10.627-29.085 20.4-4.023 5.13-7.625 10.495-10.9 16.116-5.536 9.497-8.487 19.86-10.38 30.58-.212 1.199-.032 2.5.148 3.727.17 1.164.008 1.984-1.707 2.518zm54.239-71.3c1.007 1.887-.082 2.382-1.087 2.954-3.464 1.974-6.873 4.05-10.385 5.933-7.28 3.904-12.969 9.352-17.781 16.122-7.972 11.214-13.615 23.401-17.265 36.588-.892 3.225-1.244 6.483-.413 9.8.271 1.085.572 2.282-.791 2.97-1.408-.097-1.653-1.173-1.68-2.185-.07-2.606-.426-5.301.084-7.808C27.9 97.3 32.342 86.669 38.1 76.679c3.11-5.394 7.095-10.314 10.968-15.225 1.736-2.201 3.97-4.15 6.318-5.7 5.607-3.7 11.407-7.107 17.153-10.594.652-.395 1.455-.542 2.367-.868zm13.397 116.765c-1.159.145-2.348.532-3.473.396-8.3-1.012-16.39-2.816-23.888-6.708-2.02-1.049-4.024-2.133-6.081-3.103-7.03-3.314-11.525-9.149-15.367-15.566-1.513-2.529-2.663-5.284-3.857-7.989-.535-1.21-.64-2.485 1.254-2.712 1.777 3.387 3.357 6.777 5.27 9.968 4.41 7.353 10.694 12.591 18.487 16.17 6.89 3.163 14.027 5.354 21.524 6.438 1.571.227 3.134.61 4.65 1.083.617.194 1.096.824 1.638 1.255l-.157.768zm-11.657-110.7c-.921.759-1.793 1.589-2.772 2.263-2.35 1.618-4.78 3.122-7.126 4.745-7.013 4.855-13.048 10.706-17.653 17.917-4.05 6.343-8.152 12.666-11.877 19.2-3.347 5.872-4.885 12.269-3.745 19.112.088.53-.057 1.111-.17 1.652-.036.17-.322.287-.658.564-1.903-.582-1.806-2.278-1.879-3.8-.285-5.945 1.002-11.56 3.669-16.867 4-7.964 8.816-15.413 13.95-22.692 5.412-7.673 12.211-13.79 19.95-18.96 1.896-1.267 3.806-2.52 5.772-3.67.58-.34 1.375-.313 2.07-.453.157.329.313.659.469.99zm67.132 30.283c-.714-1.151-1.438-2.261-2.103-3.405-1.737-2.988-3.914-5.597-6.631-7.738-3.306-2.606-6.555-5.293-9.965-7.755-3.955-2.856-8.797-3.645-13.269-5.293-.638-.235-1.348-.28-1.979-.528-5.846-2.302-11.38-1.05-16.818 1.421-.488.222-1.004.385-1.952.742.155-.973.085-1.644.375-2.073.365-.539.959-1.059 1.566-1.28 5.132-1.864 10.278-3.91 15.88-2.158 3.906 1.221 7.766 2.588 11.637 3.919 3.691 1.268 7.044 3.055 9.922 5.803 1.965 1.875 4.263 3.41 6.466 5.023 3.486 2.551 5.933 5.936 7.935 9.687 1.03 1.931.983 2.028-1.064 3.635zm-106.78 35c-1.893-1.642-1.447-3.266-1.23-4.781.93-6.514 3.38-12.499 6.463-18.255.754-1.408 1.511-2.813 2.247-4.23 4.928-9.502 11.159-17.993 19.365-24.95 3.295-2.792 6.572-5.608 9.93-8.325 1.102-.893 2.43-1.506 4.135-2.537 0 1.247.204 1.96-.053 2.411-.312.548-.979.928-1.55 1.287-8.715 5.468-15.859 12.63-22.035 20.759-6.671 8.78-11.88 18.379-15.094 28.969-.69 2.272-.883 4.692-1.356 7.033-.158.786-.477 1.538-.822 2.62zm56.814 3.865c-1.689-.175-3.44-.124-5.054-.567-4.349-1.194-6.703-5.407-5.047-9.563 2.833-7.11 8.154-11.783 15.597-13.491 5.826-1.337 10.3 3.926 8.408 9.627-1.919 5.782-5.904 9.874-11.262 12.672-.9.47-1.812.917-2.72 1.376-.002 0 .078-.054.078-.054zm-1.248-2.768c.102-.008.7.051 1.23-.11 4.264-1.299 10.871-6.973 11.556-12.482.132-1.065-.041-2.308-.488-3.277-1.158-2.511-3.212-3.265-6.33-2.401-6.067 1.683-9.653 6.118-12.379 11.436-.694 1.354-.37 2.685.482 3.863 1.338 1.85 3.083 3.012 5.929 2.97zm-50.956 6.009c.6 1.395 1.178 2.574 1.623 3.803 2.704 7.457 7.412 13.115 14.298 17.215 4.526 2.694 9.28 4.824 14.006 7.059 3.547 1.677 7.339 2.417 11.22 2.825 2.571.27 5.129.672 7.521.992.628 1.376.16 2.106-.858 2.372a5.346 5.346 0 0 1-2.37.075c-6.316-1.327-12.71-1.95-18.82-4.609-5.592-2.434-10.552-5.778-15.737-8.795-1.792-1.043-3.07-2.978-4.562-4.527-3.54-3.678-5.903-8.05-7.59-12.832-.437-1.237-.906-2.4 1.269-3.578zM77.42 61.528c-1.105.842-1.906 1.55-2.797 2.118-6.05 3.85-11.445 8.46-14.774 14.877C53.77 90.24 46.183 101.111 40.66 113.13c-.214.465-.603.85-1.051 1.468-1.195-1.394-.669-2.624-.163-3.664 1.79-3.68 3.707-7.3 5.567-10.946.412-.807.75-1.653 1.188-2.444a557.6 557.6 0 0 1 4.2-7.425c1.87-3.246 3.69-6.525 5.671-9.703 1.922-3.084 3.968-6.094 6.053-9.072 2.868-4.098 7.11-6.693 10.938-9.73 1.058-.84 2.266-1.66 4.356-.086zm22.195 107.946c-.498-1.944.506-2.364 1.674-2.75 1.832-.606 3.623-1.335 5.456-1.94 8.27-2.73 15.059-8.034 21.857-13.122 6.102-4.567 11.463-10.078 14.561-17.327.133-.311.248-.759.494-.87.746-.335 1.553-.536 2.337-.789.009.72.289 1.591-.014 2.14-3.554 6.423-7.841 12.317-13.643 16.888-4.375 3.445-8.784 6.953-13.59 9.718-5.19 2.988-10.845 5.177-16.334 7.63-.84.375-1.883.296-2.798.422zM87.187 185.9c1.025-.242 2.043-.655 3.074-.693 2.278-.084 4.564-.033 6.842.058 4.42.176 8.525-.729 12.554-2.675 4.811-2.323 9.95-3.97 14.753-6.308 4.381-2.132 8.537-4.739 12.715-7.262 1.01-.61 1.813-1.309 3.116-.755.168 1.582-.855 2.253-1.876 3-6.969 5.102-14.8 8.505-22.772 11.639-1.59.625-3.27 1.116-4.72 1.984-3.997 2.392-8.344 2.86-12.855 2.8-2.617-.037-5.238.142-7.856.1-1.004-.017-2.002-.38-3.003-.585l.028-1.303zm14.277-25.59c5.556-1.543 10.38-3.982 15.036-6.885 5.173-3.227 9.61-7.285 13.902-11.52 2.256-2.225 4.206-4.76 6.32-7.13.366-.41.818-.809 1.312-1.024.798-.348 1.688.415 1.468 1.26-.138.526-.446 1.053-.805 1.47-8.317 9.653-17.599 18.135-29.212 23.715-1.625.78-3.417 1.247-5.168 1.723-1.104.3-2.261.311-2.853-1.609zm55.505 20.19c-.214.766-.24 1.668-.678 2.27-1.002 1.372-2.072 2.75-3.35 3.855-6.229 5.386-12.882 10.12-20.646 13.12-2.65 1.025-5.212 2.28-7.812 3.434-.416.185-.826.558-1.233.551-.814-.014-1.623-.231-2.435-.365.413-.696.66-1.74 1.267-2.03 2.87-1.372 5.813-2.603 8.776-3.763 9.26-3.628 17.285-9.027 23.948-16.436.395-.439 1.034-.657 1.56-.978l.603.342zm-39.1 14.365c.816-.44 1.585-1.04 2.455-1.294 6.616-1.924 12.797-4.718 18.438-8.72 2.312-1.64 4.885-2.912 7.186-4.564 1.73-1.243 3.22-2.821 4.812-4.257.336-.303.605-.84.975-.912.714-.139 1.478-.022 2.22-.012-.147.7-.052 1.671-.482 2.056-2.539 2.273-4.983 4.766-7.865 6.518-6.025 3.662-12.263 6.983-18.5 10.283-1.889 1-4.035 1.554-6.112 2.137-.86.242-1.85.02-2.78.01l-.348-1.245zm33.029-70.487c-1.55-1.778-.427-2.827.23-3.753 3.78-5.319 5.815-11.408 7.312-17.603 1.115-4.608 1.298-9.441 1.888-14.176.028-.222-.033-.454-.037-.682-.025-1.279-.08-2.86 1.606-2.834 1.653.024 1.204 1.649 1.18 2.699-.204 8.89-2.02 17.445-5.674 25.555-1.4 3.108-3.13 6.071-4.786 9.057-.349.628-1.039 1.066-1.72 1.737zm-16.605 7.635c1.281 1.414.412 2.387-.278 3.214-3.96 4.744-8.15 9.328-13.354 12.685-4.39 2.832-9.136 5.117-13.772 7.555-.983.516-2.157.79-3.267.88-.443.035-1.127-.651-1.358-1.164-.127-.284.357-1.019.747-1.31.427-.32 1.091-.3 1.6-.538 2.461-1.15 4.908-2.332 7.352-3.518.408-.198.753-.54 1.17-.704 8.494-3.337 14.435-9.772 20.123-16.523.198-.235.568-.324 1.037-.577zm34.903-49.149c.257 1.45.63 2.51.6 3.558-.144 5.028-.595 10.018-2.495 14.756-2.333 5.814-4.616 11.648-7.018 17.433-.675 1.626-1.48 3.3-3.34 4.022-1.183-1.003-.723-1.845-.193-2.788 4.256-7.572 7.504-15.578 9.557-24.002.743-3.048.647-6.312.819-9.482.068-1.256-.107-2.5 2.07-3.497zm-29.582 41.44c-1.821-1.418-1.093-2.442-.373-3.534 1.372-2.082 2.655-4.223 4.03-6.303 2.728-4.122 4.188-8.797 5.91-13.36 1.363-3.608 1.323-7.335 1.006-11.102-.097-1.154-.585-2.51 1.14-3.41.317.604.736 1.118.865 1.695.912 4.065.818 8.052-.412 12.108-2.362 7.787-5.674 15.088-10.293 21.786-.494.716-1.155 1.317-1.873 2.12zm6.227-36.817c1.586.665 1.358 2.05 1.49 3.226.574 5.097-.458 9.987-1.971 14.81-2.244 7.15-5.588 13.67-10.77 19.227-1.743-.579-1.984-1.468-.972-2.823 1.632-2.186 3.475-4.26 4.798-6.622 4.233-7.56 6.97-15.571 6.533-24.412-.058-1.18-.427-2.51.892-3.406zm-16.124 44.262c-.608.994-1.047 2.16-1.853 2.953-6.239 6.15-13.412 10.928-21.52 14.266-.834.343-1.76.616-2.646.623-.527.004-1.372-.484-1.502-.92-.145-.486.261-1.238.622-1.732.221-.304.805-.348 1.229-.5 2.241-.804 4.68-1.275 6.688-2.47 5.76-3.428 11.696-6.658 16.326-11.692.488-.53 1.211-.841 1.825-1.254l.831.726zm-5.702-1.193c-.64.83-1.108 1.946-1.945 2.445-5.746 3.428-11.566 6.733-17.374 10.057-.484.276-1.063.545-1.593.536-.478-.009-1.16-.287-1.366-.66-.217-.396-.099-1.093.1-1.562.151-.36.614-.698 1.01-.828 6.88-2.275 12.917-6.068 18.728-10.289.462-.335 1.172-.329 1.766-.481l.674.782zM79.437 66.38c-.665.697-1.227 1.546-2.009 2.065-6.452 4.274-11.914 9.42-15.068 16.67-.115.265-.478.421-.723.625-1.261-.32-1.442-1.189-.991-2.085 1.065-2.121 2.111-4.278 3.436-6.237 3.16-4.677 7.44-8.209 12.17-11.201.76-.48 1.76-.578 2.649-.852l.536 1.015zM71.14 87.725c-1.449-1.306-.67-2.44.17-3.536 3.06-3.996 6.714-7.375 10.696-10.44 1.342-1.034 2.73-1.565 4.384-1.491.097.004.19.116.706.448-.457.645-.766 1.528-1.377 1.873-5.56 3.132-9.933 7.51-13.635 12.634-.17.236-.56.312-.944.512zm-19.573 91.287c4.157 1.627 7.234 3.908 10.525 6.383-2.527 2.13-4.398.618-5.729-.593-1.667-1.516-5.008-1.801-4.796-5.79zm39.836-64.818c-1.446.018-2.715-.3-3.47-1.71-.713-1.335-.12-2.408.625-3.47 2.537-3.617 5.482-6.717 9.905-8.013 1.246-.365 2.427-.658 3.532.337 1.155 1.04.8 2.184.419 3.448-1.568 5.198-6.399 9.37-11.01 9.408zm7.467-10.22c-3.72.797-6.59 3.356-8.05 7.22 2.759.982 4.622-.713 6.36-2.22 1.421-1.233 2.687-2.803 1.69-5z"/></g></g></svg>