<svg xmlns="http://www.w3.org/2000/svg" width="306" height="315" viewBox="0 0 306 315"><g><g><path fill="#e8a250" d="M1.45 124.055l3.605-7.607-3.869-2.231c1.938-3.348 3.616-6.704-1.24-9.39 2.372-3.72 4.552-7.276 6.88-10.732 1.313-1.95 2.517-3.609.887-6.128-1.182-1.828.364-3.712 1.095-5.438.517-1.221 1.646-1.998.58-3.725-.519-.842.572-2.613.782-3.987.232-1.52.291-3.067.426-4.602l-.739-.405c1.875-1.543 3.62-3.292 5.658-4.574 2.349-1.476 4.262-3.261 5.775-5.552 1.723-2.61 3.542-5.156 5.231-7.786.495-.77.698-1.73 1.02-2.607.22-.6.24-1.407.656-1.774 1.092-.965 2.922-1.501 3.404-2.65.64-1.528 1.51-2.148 2.892-2.59 1.913-.611 3.481-1.76 4.381-3.578.723-1.462 1.81-2.474 3.3-2.925 1.803-.545 2.89-1.868 3.911-3.25.405-.55.592-1.359.627-2.062.104-2.088.67-3.074 2.427-2.81 2.725.409 4.136-1.35 5.729-2.864 1.083-1.03 1.951-2.282 2.997-3.355.992-1.02 2.173-1.402 3.682-1.64 2.486-.392 5.108-1.271 5.669-4.388.262-1.459 1.348-2.11 2.504-2.136 2.585-.057 4.85-.886 7.022-2.159.18-.106.408-.159.62-.186 2.558-.322 5.494.038 7.575-1.129 2.324-1.302 4.6-1.609 7.025-2.005 1.116-.181 2.16-.77 3.268-1.054 3.124-.802 6.241-1.667 9.408-2.257 1.846-.345 3.688-.498 5.684.105 2.861.863 3.91-.042 5.866-3.78 7.771-.95 15.15.977 22.727 3.649 1.9-1.692 3.749-.936 6.188.06 3.413 1.391 6.613 3.772 10.619 3.581.536-.026 1.108.567 1.653.892 1.846 1.099 3.805 2.053 5.491 3.36 1.34 1.038 2.99-.653 4.219.893.856 1.078 2.004 2.058 3.226 2.68a43.934 43.934 0 0 0 6.794 2.779c1.238.385 2.056.967 2.779 1.987.87 1.229 1.904 2.345 2.903 3.476.352.397.838 1.024 1.216.993 2.806-.232 3.292 1.86 3.9 3.933 2.48.273 5.306.08 5.38 3.824 2.465.266 4.262 1.403 5.387 3.565.278.535.855 1.04 1.413 1.277 1.471.626 2.05 1.77 2.412 3.224.4 1.61 1.282 2.63 3.24 2.442 2.28-.22 3.26 1.492 3.849 3.289.651 1.99 1.522 3.43 3.855 3.763 2.189.313 1.51 2.572 2.237 4.096 3.155.361 5.508 1.986 6.925 4.975.206.434 1.11.876 1.586.78 1.798-.357 2.602.63 3.235 2.011.09.197.183.393.29.58.942 1.64 3.42.05 4.318 2.25.846 2.075 2.793 1.085 4.28.675 1.377-.38 2.21.044 3.064 1.093 1.78 2.185 1.85 2.201 4.535 1.225 2.091-.76 3.936-1.048 5.48 1.093.354.491 1.326.563 2.03.77 1.023.298 2.15.375 3.071.855 1.155.602 1.915.393 2.922-.344 2.534-1.855 4.255-1.352 5.585 1.543.493 1.074.768 2.247 1.184 3.5 1.715.643 3.503 1.357 5.321 1.983 2.006.69 3.614 1.8 4.873 3.57 1.495 2.1 3.166 4.083 4.868 6.024.532.606 1.375.987 2.137 1.336 2.451 1.12 4.354 2.795 5.57 5.218 1.055 2.097 2.662 3.949 2.552 6.55-.025.574.644 1.325 1.188 1.743.924.708 2.003 1.216 3.274 1.959 0 1.67-.061 3.501.016 5.325.086 2.022.943 3.587 3.098 3.992 1.611.304 2.234 1.368 2.802 2.759 1.115 2.73 2.11 5.369 1.413 8.454-.32 1.413-.121 3.063.263 4.492 1.371 5.101 1.793 10.184.353 15.33-.402 1.438-.54 2.678 1.077 3.641.49.291.693 1.544.57 2.28-.247 1.48-.822 2.903-1.238 4.356-.425 1.487-.335 2.854 1.335 3.482 1.693.637 1.828 1.71 1.528 3.343a97.413 97.413 0 0 0-1.58 16.442c-.04 3.191-2.172 5.602-3.868 8.076-.996 1.452-1.908 2.732-1.775 4.637.473 6.786-4.22 10.758-8.353 15.022-2.184 2.254-4.453 4.371-7.254 5.891-1.603.87-2.567 2.4-2.641 4.24-.053 1.314-.515 2.19-1.499 3.04-2.08 1.798-3.885 3.757-3.483 6.917.077.601-.705 1.681-1.336 1.937-2.36.956-3.701 2.36-3.709 5.09-.002.815-.99 1.883-1.803 2.396-4.223 2.669-4.376 2.96-3.503 7.86a32.09 32.09 0 0 1 .48 4.838c.053 2.22-.403 2.715-2.66 3.388-.414.123-.845.188-1.265.293-1.544.386-2.128 1.28-1.679 2.885 1.474 5.268-.001 10.273-1.329 15.21-.306.17-.486.347-.682.367-4.898.496-8.77 2.524-11.671 6.722-1.152 1.667-3.46 2.511-5.166 3.829-.723.558-1.438 1.28-1.826 2.087-.804 1.677-1.935 2.773-3.77 3.252-2.26.592-3.777 2.086-4.426 4.342-.547 1.901-1.875 2.818-3.683 3.248-.632.15-1.243.403-1.88.513-2.42.415-3.7 1.894-4.42 4.192a38.59 38.59 0 0 1-2.59 6.253c-.374.717-1.426 1.278-2.276 1.5-1.016.266-2.162.22-3.225.086-4.07-.511-7.938.206-11.809 1.45-2.548.82-5.231 1.232-7.868 1.755-4.555.903-9.11 1.816-13.688 2.586a20.628 20.628 0 0 1-5.157.21c-3.008-.26-5.854.042-8.415 1.718-1.3.851-2.404.732-3.522-.256-.404-.356-.884-.627-1.287-.985-2.904-2.58-6.157-3.791-10.137-3.204-3.679.543-7.007-1.052-10.306-2.409-5.522-2.271-10.785-5.04-15.596-8.6a8.049 8.049 0 0 1-1.971-2.083c-1.176-1.847-2.368-3.46-4.647-4.25-.992-.342-1.582-1.903-2.31-2.942-1.085-1.551-1.825-3.518-4.466-2.572-.496.177-1.56-.592-2.049-1.184-.669-.81-1.078-1.85-1.526-2.826-.77-1.678-1.255-3.169-3.886-2.95-1.855.155-2.072-2.447-2.78-3.938-.45-.949-.315-2.182-.782-3.12-.549-1.102-1.293-2.254-2.26-2.97-1.792-1.326-3.413-2.542-3.506-5.083-.043-1.176-.792-2.297-2.156-2.557-3.691-.705-4.824-3.6-5.872-6.644-.523-1.522-1.35-2.941-1.835-4.472-.75-2.363-2.17-3.87-4.615-4.474-1.424-.35-2.019-1.524-2.245-2.883-.07-.422-.004-.867-.064-1.293-.562-4-1.127-7.964-5.532-9.885-.508-.222-.651-1.46-.814-2.257-.406-1.985-.409-4.12-1.183-5.935-.58-1.356-1.946-2.573-3.255-3.376-2.218-1.362-3.912-2.811-4.285-5.626-.126-.952-1.317-1.846-2.176-2.588-.634-.55-1.52-.805-2.29-1.201-2.715-1.394-2.809-1.6-1.627-4.36.653-1.525.651-2.992-.418-4.276-2.299-2.763-2.873-6.217-3.83-9.496-.33-1.134-.687-1.914-1.785-2.453-2.036-1-3.94-2.264-6.354-2.242-.592.005-1.19-.405-1.782-.633-1.274-.488-2.51-1.168-3.828-1.427-1.598-.313-2.956-.85-3.628-2.374-1.322-2.998-3.69-4.344-6.826-4.676-2.096-.222-3.1-1.27-3.327-3.565-.37-3.736-1.491-5.13-4.986-5.26-4.339-.162-7.744-2.452-11.864-3.88.579-1.962 1.23-3.779 1.622-5.65.23-1.092.16-2.286.017-3.408-.16-1.263-.58-2.49-.835-3.744-.317-1.557-.516-2.984.532-4.541.766-1.138.593-2.792-.803-3.767-2.079-1.452-1.663-3.361-.838-5.152 1.012-2.196 1.41-4.025-1.016-5.606-.462-.301-.558-1.501-.46-2.237.125-.924.624-1.798.946-2.707l.005-.014c-1.773-1.808-3.547-3.618-5.484-5.596zm6.53 2.758c-1.323-.255-2.058.017-1.853 1.2.098.567.517 1.077.817 1.608.328-.925.67-1.836 1.035-2.808zm287.992 23.423l.022.418.059.225v-.277a80.13 80.13 0 0 0-.08-.366zm.08 3.72l.77-.127-.77-2.95v3.077zm-.651-15.573c-.051-5.15-1.262-10.053-2.747-14.915-.214-.7-.83-1.277-1.261-1.912-.36.745-.247 1.248-.164 1.754 1.132 6.924 2.23 13.854 3.404 20.77.351 2.066.882 4.103 1.34 6.156-.211-3.95-.533-7.9-.572-11.853zm-160.054 15.44c2.793-1.632 5.1-3.45 5.607-6.773.494-3.233-1.227-5.767-2.701-8.356-.23-.405-.857-.75-1.341-.814-2.23-.295-4.473-.627-6.715-.658-1.58-.023-3.085.745-3.366 2.468-.342 2.106-.438 4.3 1.79 5.645.413 4.286 2.887 6.9 6.726 8.489zM273.562 88.85c.976 1.028 1.8 2.596 3.03 3.038 2.18.782 3.293 2.272 4.301 4.11 2.852 5.199 5.806 10.34 8.607 15.565 1.987 3.706 3.802 7.505 5.671 11.273.568 1.143 1.189 2.199 2.845 2.935-.289-2.73-.52-5.075-.8-7.415-.049-.414-.19-.935-.481-1.18a73.472 73.472 0 0 0-4.066-3.184c-1.605-1.17-1.94-2.72-1.657-4.58.397-2.604-.118-4.688-3.148-5.372-1.648-.371-2.214-1.561-1.894-3.21.925-4.76-1.792-8.043-5.161-10.379-3.324-2.302-6.435-4.614-8.947-7.82-1.404-1.792-3.381-3.011-5.917-2.776-2.869.266-3.157-.133-3.86-3.131-.417-1.782-.49-3.933-2.744-4.863l-4.511 2.876c-1.515-2.533-3.774-1.949-6.089-1.782-.923-2.772-3.096-2.877-5.506-2.456-1.478.258-2.963.47-4.776.754-.33-2.656-2.133-2.712-4.118-2.617-1.052.05-2.679.172-3.077-.406-1.257-1.827-3.21-1.567-5.044-2.272-.328-3.214-2.896-3.015-5.2-3.007-2.429-5.317-2.886-5.63-7.272-4.942.636 2.335 2.24 3.896 4.028 5.292 3.223 2.513 6.477 4.986 9.986 7.68 2.4-2.235 4.767-1.07 7.096.575 1.311.926 2.639 1.83 3.96 2.743 1.925-.627 3.978-1.224 5.524-.589 3.07 1.263 5.964 3.052 8.737 4.912 2.592 1.739 5.532 3.43 7.257 5.889 3.208 4.572 6.03 9.487 7.631 14.959 2.794 9.549 5.807 19.038 8.386 28.643 1.677 6.245 3.704 12.433 5.103 18.694 2.63 11.765 2.245 23.654-1.923 35.194-1.506 4.17-2.892 8.37-5.773 11.9-1.422 1.741-2.64 3.68-3.73 5.652-1.148 2.076-2.006 4.311-3.043 6.45-2.037 4.202-4.406 8.153-7.871 11.4-6.09 5.709-11.365 12.126-16.192 18.931-2.338 3.296-5.354 5.939-8.707 8.19a1085.852 1085.852 0 0 0-4.83 3.254c-3.03 2.057-6.113 4.04-9.063 6.204-2.513 1.845-4.857 3.918-7.302 5.857-.971.769-2.01 1.453-3.016 2.169.917.538 1.861 1.036 2.745 1.626 1.323.882 2.74 1.69 3.868 2.785 1.482 1.44 1.275 2.401-.328 3.756-1.984 1.676-4.357 2.016-6.734 1.593-3.377-.601-6.694-1.538-10.226-2.376-.427 1.779-1.933 2.643-3.846 3.005-.418.08-.893.16-1.214.406-4.03 3.089-8.751 3.226-13.553 3.567-5.693.404-11.347 1.368-17.009 2.16-3.422.479-6.825 1.554-10.238 1.557-9.871.01-19.651.967-29.428 2.108-.982.114-1.944.392-3.403.694 3.846 2.272 7.36 2.804 11.137 2.373 5.478-.627 10.97-1.15 16.467-1.6 5.066-.416 10.141-.762 15.22-.985 5.923-.26 11.855-.363 17.783-.513 2.585-.065 5.301.417 7.725-.226 3.723-.99 7.288-2.637 10.836-4.197 2.067-.909 3.92-2.3 5.976-3.244.735-.337 2.154-.354 2.607.115.842.87.36 2.047-.572 2.822a15.283 15.283 0 0 1-2.126 1.466c-1.308.755-2.696 1.376-3.974 2.176-2.557 1.6-12.702 4.861-15.58 4.854-2.045-.005-4.135.112-6.127-.254-5.73-1.05-11.33.012-16.979.62-3.75.405-7.53.543-11.298.763-2.246.131-4.497.168-6.743.29-1.611.088-3.232.159-4.824.395-3.041.451-6.066 1.016-9.376 1.582 1.454 1.889 3.134 2.293 4.88 2.093 4.827-.553 9.627-1.347 14.458-1.862 5.155-.55 10.37-1.5 15.493-1.194 9.458.567 18.816.053 28.152-1.16 2.732-.354 5.59-1.16 7.968-2.506 4.496-2.541 8.707-5.592 12.996-8.491 4.322-2.922 7.8-6.756 11.504-10.393 6.388-6.273 13.31-12 19.956-18.013 1.998-1.808 3.98-3.674 5.699-5.739 3.101-3.724 6.146-7.513 8.937-11.47 2.597-3.682 4.83-7.619 7.224-11.443-6.529 6.616-13.102 13.19-19.562 19.872-2.174 2.25-4.108 4.738-6.072 7.18-3.462 4.305-7.344 8.144-12.014 11.135-1 .64-2.02 1.264-3.081 1.794-2.312 1.153-4.654 2.246-6.988 3.353-.859.408-1.73.788-2.698 1.226-.904-1.851-.335-3.109 1.066-4.021 1.81-1.18 3.628-2.384 5.563-3.335 6.63-3.259 12.015-7.92 16.701-13.626 3.61-4.395 7.932-8.198 11.65-12.512 5.341-6.197 11.866-11.395 16.028-18.577 1.398-2.414 2.238-5.143 3.458-7.668 1.873-3.877 3.902-7.679 5.774-11.557 1.92-3.976 3.66-8.04 5.61-12.001 1.478-3.001 2.928-5.929 3.574-9.305.742-3.875 1.018-7.654.412-11.555-.511-3.285-.807-6.608-1.107-9.922a79.024 79.024 0 0 0-3.128-16.04 6.962 6.962 0 0 1-.2-.953c-1.187-7.545-4.41-14.345-7.587-21.189-1.951-4.2-3.457-8.607-5.253-12.884-1.545-3.678-3.11-7.356-4.893-10.921-.593-1.186-1.839-2.075-2.871-3.005-2.047-1.845-2.447-2.825-1.827-5.69 2.92 2.81 6.027 5.058 8.004 8.454 1.081 1.86 2.167 3.716 3.251 5.573l-.079-.133c.037.323.008.669.12.962a9794.5 9794.5 0 0 0 7.85 20.552c.116.302.285.583.398.887 1.087 2.93 2.223 5.845 3.231 8.802.8 2.349 1.479 4.742 2.144 7.134.837 3.007 1.886 5.991 2.345 9.06 1.005 6.725 1.65 13.503 2.527 20.249 1.058 8.135-.353 15.703-4.891 22.618-.532.81-.983 1.681-1.399 2.558-3.512 7.402-7.043 14.795-10.49 22.226-1.358 2.928-2.518 5.948-3.769 8.926 2.445-2.725 5.102-5.293 7.276-8.22 2.214-2.98 4.767-5.712 5.934-9.497 2.028-6.578 4.374-13.074 6.944-19.46 1.83-4.553 3.176-9.09 3.089-14.037-.043-2.458.276-4.92.369-7.383.032-.853-.058-1.726-.205-2.57-.574-3.29-1.288-6.557-1.775-9.858-.896-6.066-1.596-12.162-2.531-18.222-.323-2.092-.981-4.16-1.72-6.153-.517-1.395-1.533-2.599-2.147-3.97-1.276-2.844-2.26-5.83-3.68-8.597-1.87-3.644-4.006-7.156-6.103-10.679-1.063-1.785-2.282-3.476-3.436-5.207.19-1.53-1.09-3.648 1.69-4.112zm-63.556 173.158l-.015-.01a13.31 13.31 0 0 1-.05-.008l-.022.08.087-.062zm.746-3c1.007-3.786 4.132-5.69 7.04-7.683 5.364-3.676 11.326-6.463 16.24-10.814 1.849-1.639 3.787-3.226 5.376-5.098 2.65-3.123 5.04-6.466 7.563-9.699 2.513-3.218 5.032-6.42 8.242-9.022 3.31-2.682 5.435-6.232 7.307-10.029 2.336-4.738 4.796-9.44 7.586-13.918 1.82-2.922 4.039-5.61 5.105-8.93 1.408-4.384 3.046-8.747 3.869-13.25.659-3.607 1.765-7.358.491-11.127-.132-.39-.073-.864-.031-1.292.409-4.162-.5-8.147-1.586-12.114-1.159-4.229-3.131-8.277-2.796-12.847.043-.578-.447-1.188-.658-1.795-1.311-3.774-2.74-7.513-3.882-11.338-1.137-3.806-1.97-7.703-2.97-11.551-.16-.62-.533-1.18-.753-1.789-.438-1.215-.996-2.416-1.228-3.674-1.007-5.451-4.566-9.729-6.666-14.674-.32-.75-1.064-1.37-1.721-1.919a162.877 162.877 0 0 0-5.558-4.425c-.43-.327-1.02-.446-1.536-.66.622 2.19 1.669 3.92 2.719 5.648 1.12 1.844 2.41 3.607 3.334 5.544 1.862 3.905 3.5 7.916 5.28 11.86 2.59 5.74 4.914 11.574 6.027 17.8 1.243 6.953 2.906 13.782 5.874 20.215 1.284 2.78 1.46 5.672 1.138 8.569-.457 4.125-.362 8.188.174 12.297.706 5.418.609 10.872-1.21 16.064-1.21 3.45-2.881 6.76-4.575 10.013-2.956 5.681-6.417 11.065-10.771 15.782-2.318 2.51-4.04 5.295-5.48 8.363a66.924 66.924 0 0 1-4.393 7.936c-3.986 6.158-10.293 9.753-16.013 13.936-5.41 3.955-11.22 7.391-15.895 12.27-2.88 3.004-6.011 5.578-9.851 7.24-2.123.92-4.233 1.871-6.349 2.809 3.044 1.894 6.137 3.676 9.746 4.284.271-.994.546-1.987.811-2.982zm-10.557-1.302l-.067-.042a6.601 6.601 0 0 1-.108-.017l.043.118.132-.06zm-.569-1.162c-.71-2.232-.435-2.844 1.712-3.698.704-.28 1.437-.485 2.156-.725 4.228-1.41 7.397-4.37 10.626-7.248 2.41-2.148 4.71-4.452 7.296-6.367 4.767-3.53 9.757-6.755 14.563-10.235 5.692-4.122 10.314-9.075 13.048-15.783 1.616-3.967 3.977-7.62 6.968-10.878 2.675-2.913 4.919-6.249 7.153-9.534 1.69-2.486 3.125-5.154 4.562-7.802.873-1.607 1.798-3.262 2.24-5.012 1.355-5.352 2.073-10.769 1.246-16.331-.346-2.33-.216-4.732-.262-7.103-.063-3.23.238-6.507-.222-9.676-.426-2.942-1.743-5.744-2.499-8.651-1.868-7.19-3.504-14.442-5.985-21.46-1.154-3.264-2.185-6.576-3.485-9.78-1.574-3.877-3.332-7.682-5.092-11.48-1.33-2.87-2.383-5.961-5.692-8.274.296 1.282.411 1.993.626 2.672 2.605 8.251 5.221 16.499 7.846 24.743 1.014 3.186 1.834 6.457 3.138 9.52 1.848 4.34 2.828 8.824 3.378 13.473.393 3.326.817 6.695 1.736 9.898 1.148 3.996 1.867 7.962 1.775 12.13-.094 4.22.17 8.448.13 12.672-.042 4.41-1.108 8.578-3.511 12.338-.693 1.083-1.4 2.187-3.317 1.46.37-1.656.636-3.23 1.08-4.752 1.06-3.63 2.25-7.212 2.148-11.084-.106-3.998-.002-8-.073-12a34.673 34.673 0 0 0-.447-4.833c-.528-3.307-1.441-6.578-1.687-9.901-.44-5.975-1.721-11.706-3.813-17.3-1.474-3.94-2.887-7.909-4.138-11.924-.637-2.044-.368-4.486-1.354-6.283-3.44-6.267-4.297-13.345-6.741-19.907-.299-.802-.54-1.71-1.085-2.32-3.098-3.461-6.196-6.93-9.48-10.212-1.19-1.19-2.75-2.208-5.224-2.438 2.015 2.755 3.783 4.913 5.259 7.255 1.885 2.99 3.726 6.038 5.237 9.226 2.026 4.27 4.459 8.443 4.565 13.396.016.73.298 1.47.535 2.18 1.638 4.908 3.303 9.808 4.949 14.714 2.094 6.243 4.732 12.315 5.495 18.962.566 4.926 2.163 9.748 1.685 14.778-.35 3.695-.675 7.318 1.17 10.79.542 1.023.65 2.28.929 3.437 1.395 5.805.76 11.372-2.001 16.678-.886 1.703-2.036 2.171-3.393 1.411-1.11-.622-1.28-1.806-.066-3.336 3.575-4.504 3.756-9.44 2.403-14.754-1.335-5.246-2.132-10.554-2.146-16.03-.023-8.814-1.612-17.404-4.481-25.782-2.872-8.387-5.557-16.842-8.128-25.327-2.926-9.657-7.322-18.492-13.898-26.186-.783-.916-1.547-1.987-3.452-2.137 2.142 4.23 4.054 8.079 6.032 11.893 1.689 3.256 3.891 6.317 5.099 9.737 3.059 8.659 5.692 17.469 8.483 26.222a192.047 192.047 0 0 1 1.787 5.898c.913 3.217 1.925 6.414 2.637 9.676.944 4.33 1.72 8.702 2.421 13.079.785 4.909 1.573 9.827 2.055 14.772.603 6.183-.683 12.062-3.685 17.532-.968 1.764-1.958 3.517-3.105 5.573 1.063.168 1.87.334 2.686.417 3.653.372 7.304.814 10.967 1.031 1.563.093 2.532 1.107 3.154 2.058 1.03 1.574-.788 2.446-1.728 2.92-2.388 1.203-4.905 2.464-7.499 2.86-3.263.499-6.698.515-9.98.107-6.218-.771-12.398-1.807-18.253-4.33-4.444-1.915-9.068-3.412-13.617-5.079-.932-.34-1.845-.185-2.092.863-.983 4.174-3.911 7.18-6.383 10.39-1.396 1.816-3.575 3.033-5.42 4.495-.58.46-1.201.879-1.838 1.257-4.984 2.953-9.32 7.056-15.13 8.542-1.464.374-2.962.639-4.39 1.116-5.426 1.81-10.815 3.73-16.25 5.512-1.621.532-3.39.614-5.017 1.134a71.167 71.167 0 0 1-22.025 3.399c-4.758-.012-9.515.27-14.274.397-3.504.095-6.902-.127-9.815-2.512-2.84-2.324-5.693-4.66-8.723-6.72-6.154-4.187-8.87-10.71-11.965-17.002-.52-1.058-.159-1.951.772-2.503 1.124-.667 1.855.054 2.324.999.575 1.156 1.035 2.37 1.569 3.548 3.188 7.035 8.724 11.975 14.793 16.393 5.258 3.828 5.3 3.775 11.806 4.174.971.059 1.95.072 2.922.027 4.091-.187 8.18-.472 12.273-.595 6.948-.209 13.761-1.213 20.43-3.184 5.079-1.5 10.116-3.168 15.246-4.469a67.971 67.971 0 0 0 15.1-5.813c3.803-2.011 7.356-4.567 10.788-7.186 2.286-1.744 4.264-3.933 6.186-6.097 1.135-1.278 1.946-2.861 2.807-4.362 3.724-6.496 6.01-13.39 5.94-20.986-.068-7.25.083-14.501.006-21.75-.035-3.235.122-6.604-.701-9.672-2.522-9.403-5.353-18.73-8.31-28.008-1.802-5.655-3.735-11.3-7.098-16.312-2.53-3.771-4.96-7.611-7.433-11.42-1.468-2.26-2.79-4.631-4.433-6.754-3.66-4.726-8.185-8.56-12.749-12.406-3.368-2.839-7.077-4.03-11.25-4.348-7.049-.54-14.036-.009-20.964 1.354-5.013.986-9.889 2.31-14.199 5.26-2.752 1.884-5.682 3.506-8.462 5.35-5.31 3.522-10.661 6.99-15.82 10.725-4.014 2.906-8.672 4.955-11.962 8.844-2.026 2.395-3.96 4.88-6.127 7.14-5.82 6.068-10.811 12.61-13.02 20.922-.442 1.665-1.086 3.287-1.755 4.88-1.719 4.095-3.593 8.181-3.449 12.727.141 4.439-.606 8.855.712 13.34 1.25 4.255 2.241 8.567 4.42 12.456 1.05 1.875 1.747 4.07 4.14 5.699-.251-.914-.303-1.325-.472-1.68-1.708-3.61-2.118-7.432-2.179-11.382-.079-5.193-.247-10.399-.712-15.569-.565-6.261-1.12-12.36 1.145-18.545 2.1-5.736 4.247-11.321 8.747-15.6 2.951-2.807 6.102-5.408 9.233-8.019 1.477-1.23 3.126-2.252 4.678-3.394 1.48-1.09 2.815-2.449 4.426-3.277 4.631-2.384 8.27-5.84 11.369-9.927a29.676 29.676 0 0 1 8.12-7.393c5.042-3.107 10.195-6.002 15.835-7.947 3.437-1.185 6.884-1.767 10.513-1.12 2.765.492 5.543 1.08 8.335 1.209 6.33.291 12.025 2.431 17.352 5.63 2.008 1.206 3.86 2.754 5.553 4.384 2.71 2.608 5.215 5.428 7.832 8.133 1.494 1.545 3.075 3.005 4.543 4.572.634.677 1.218 1.468 1.59 2.31.983 2.234 1.822 4.53 2.748 6.789 1.305 3.18 2.646 6.346 3.95 9.527.322.786.436 1.68.857 2.4 2.744 4.702 4.323 9.843 5.608 15.066 1.599 6.498 2.92 13.04 3.751 19.714 1.25 10.043.984 20.06.491 30.095-.294 5.996-1.728 11.595-4.993 16.888-2.683 4.35-5.905 7.953-9.818 11.077-4.908 3.918-10.89 5.738-16.457 8.355-2.343 1.101-4.786 2.084-7.283 2.746-5.43 1.437-10.895 2.78-16.401 3.883-4.557.912-9.21 1.32-13.789 2.137-6.156 1.097-12.307 1.118-18.364-.28-3.55-.819-7.29-1.758-10.32-3.645-4.386-2.732-8.127-6.478-11.14-10.767-1.655-2.357-3.005-4.928-4.452-7.334 1.082-1.33 2.066-1.328 3.018-.52.652.553 1.303 1.201 1.704 1.943 2.709 5.005 6.564 9.061 10.753 12.79 1.392 1.24 3.18 2.188 4.948 2.815 2.322.825 4.777 1.484 7.222 1.711 5.142.478 10.313 2.179 15.478.077.194-.079.427-.066.642-.086 8.854-.822 17.422-3.174 26.105-4.906 7.596-1.515 14.366-5.223 21.325-8.386 1.84-.836 3.49-2.134 5.14-3.34 4.943-3.611 7.967-8.779 10.946-13.93.898-1.554 1.593-3.376 1.804-5.144.552-4.61.904-9.254 1.121-13.894.487-10.39.823-20.787-1.073-31.097-1.138-6.183-2.57-12.266-5.284-18.01-1.475-3.122-2.848-6.362-3.698-9.693-1.14-4.464-3.041-8.55-5.064-12.621-3.205-6.452-8.547-11.095-13.531-16.054-5.428-5.4-12.068-8.255-19.497-9.486a181.984 181.984 0 0 0-8.68-1.214c-4.218-.492-8.418-.721-12.475 1.028-1.976.853-4.087 1.403-6.035 2.31-5.908 2.749-11.5 5.862-15.757 11.109-2.634 3.247-5.757 6.215-9.085 8.751-4.206 3.206-8.916 5.74-13.278 8.754-5.368 3.709-10.33 7.8-13.194 13.981-2.38 5.14-4.257 10.314-4.066 16.082.283 8.526.436 17.056.763 25.58.094 2.457.203 4.902 1.278 7.29 2.523 5.606 4.804 11.323 7.095 17.03.411 1.025.399 2.22.641 3.698l-3.866-.401c-.123.094-.316.2-.458.353-1.755 1.894-2.674 1.818-3.734-.336a5.467 5.467 0 0 1-.454-1.216c-1.452-6.546-5.07-12.142-7.92-18.073-2.017-4.194-4.318-8.294-5.003-12.978-.438-2.992-.59-6.026-.901-9.038-.067-.642-.263-1.272-.4-1.907l-.759.095c.187 3.086.17 6.201.616 9.249.483 3.303 1.411 6.541 2.123 9.813 1.863 8.567 5.167 16.503 10.283 23.66.687.963 1.221 2.039 1.772 3.09.504.961.578 2.103-.53 2.488-.749.26-1.943.018-2.604-.46-.73-.53-1.11-1.568-1.585-2.416a963.55 963.55 0 0 1-4.376-7.91c-.31-.564-.607-1.14-.854-1.733-2.323-5.593-4.225-11.322-5.4-17.268-.812-4.117-2.628-8.023-2.531-12.332.078-3.464.202-6.933.091-10.394-.195-6.076.088-12.038 1.833-17.954 2.3-7.796 5.408-14.914 11.57-20.624 4.091-3.791 7.39-8.429 11.15-12.593 2.309-2.557 4.611-5.189 7.275-7.344 7.06-5.713 14.297-11.208 21.498-16.743 4.484-3.447 9.142-6.67 14.89-7.556 7.516-1.158 14.836-3.054 22.05-5.404 5.365-1.747 10.818-2.285 16.32-.937 2.82.69 5.502 1.937 8.31 2.7 4.695 1.275 8.288 4.132 11.395 7.668 3.626 4.128 7.24 8.279 10.635 12.596 4.6 5.847 9.072 11.781 12.594 18.401 3.004 5.646 5.972 11.233 7.248 17.602.784 3.913 1.532 7.969 3.209 11.531 1.796 3.818 2.625 7.651 3.12 11.756 1.075 8.9 2.545 17.753 3.647 26.651.674 5.445 1.63 10.902.826 16.437-.586 4.026-2.094 7.698-4.15 11.17-.508.857-1.359 1.357-2.144.699-.54-.454-.902-1.448-.864-2.175.042-.808.621-1.59.98-2.378 2.422-5.326 3.71-10.83 2.74-16.72-.35-2.134-.582-4.289-.84-6.438-.582-4.838-.901-9.722-1.768-14.508-1.711-9.439-2.285-19.145-6.232-28.092-.13-.294-.177-.624-.273-.935-1.465-4.741-2.748-9.549-4.442-14.207-2.38-6.543-6.361-12.269-9.976-18.16-1.635-2.664-3.53-5.188-5.49-7.628-2.427-3.022-5.18-5.786-7.55-8.85-3.85-4.977-8.318-9.11-14.33-11.26-4.997-1.789-10.083-3.582-15.482-2.865-3.728.494-7.376 1.61-11.05 2.485-4.727 1.126-9.408 2.479-14.175 3.388-5.372 1.025-10.577 2.352-15.015 5.701-3.709 2.8-7.303 5.751-10.987 8.586-2.31 1.778-4.688 3.47-7.044 5.19-3.653 2.663-7.456 5.111-10.185 8.885-1.763 2.438-3.846 4.65-5.857 6.9-3.09 3.46-6.32 6.799-9.35 10.31-4.907 5.685-7.87 12.348-9.702 19.6-1.138 4.509-1.283 9-.702 13.57.596-1.53.867-3.124 1.4-4.626 2.09-5.906 4.165-11.822 6.455-17.651.82-2.087 2.083-4.05 3.41-5.877 2.154-2.969 4.458-5.836 6.827-8.639 2.71-3.207 5.234-6.686 8.422-9.351 5.535-4.628 11.416-8.866 17.34-12.998 6.118-4.265 12.51-8.136 18.682-12.327 2.734-1.856 5.601-3.235 8.808-3.959 4.112-.93 8.19-2.056 12.337-2.777a56.46 56.46 0 0 1 19.69.026c4.033.716 7.256 2.63 10.287 5.136.333.275.62.61.966.867 7.301 5.446 12.675 12.542 17.397 20.212 1.584 2.572 3.313 5.055 4.971 7.58 1.425 2.17 3.23 4.188 4.188 6.548 2.186 5.388 4.082 10.904 5.863 16.442 2.082 6.474 3.812 13.061 5.903 19.53 1.005 3.11 1.916 6.153 1.875 9.472-.109 8.643.004 17.29-.175 25.931-.08 3.856-.645 7.703-.997 11.553-.164 1.794-.346 3.586-.526 5.45 3.583.912 6.965 1.907 9.992 1.607 1.167-2.067 2.101-3.717 3.03-5.37 1.47-2.616 3.61-5.077 4.263-7.884 1.275-5.485.933-11.147-.106-16.72-1.445-7.75-2.784-15.52-4.316-23.253-.943-4.76-2.016-9.506-3.302-14.184-1.06-3.854-2.503-7.603-3.806-11.388-.558-1.621-1.046-3.291-1.82-4.81-2.35-4.617-4.81-9.18-7.256-13.749-2.602-4.857-5.18-9.728-7.874-14.534-4.873-8.696-12.078-15.482-18.668-22.79-5.35-5.932-12.251-8.723-19.665-10.626a16.906 16.906 0 0 0-5.774-.441c-7.217.724-14.382 1.827-21.371 3.855-2.49.723-4.94 1.69-7.48 2.1-5.895.955-11.204 3.545-16.072 6.597-6.742 4.226-12.901 9.382-19.305 14.148-.434.323-.87.66-1.23 1.06-3.033 3.379-6.068 6.756-9.066 10.166-2.714 3.085-5.206 6.39-8.111 9.28-4.767 4.74-9.317 9.576-12.672 15.492-2.557 4.507-5.57 8.754-8.306 13.163-2.822 4.548-5.197 9.294-5.027 14.842.1 3.236.27 6.484.67 9.693.442 3.532.988 7.074 1.844 10.523 1.094 4.401 2.42 8.757 3.887 13.05.865 2.53 2.089 4.958 3.344 7.33 2.576 4.866 5.298 9.654 7.908 14.502.26.485.16 1.165.242 1.885-1.619.247-2.69.058-3.475-1.329-2.397-4.227-4.62-8.59-7.406-12.55-2.71-3.852-3.805-8.17-4.955-12.547a17.228 17.228 0 0 0-.588-1.856c-3.944-10.167-5.024-20.77-4.574-31.555.101-2.422.671-4.983 1.686-7.174 1.445-3.117 3.5-5.951 5.294-8.906 1.9-3.127 3.824-6.24 5.696-9.384 2.592-4.352 4.9-8.813 8.882-12.266 3.572-3.096 6.597-6.83 9.812-10.329 2.775-3.019 5.442-6.137 8.232-9.142 1-1.078 2.23-1.943 3.339-2.924 1.366-1.211 2.561-2.702 4.1-3.615 3.9-2.312 7.485-4.965 10.717-8.149a34.432 34.432 0 0 1 5-4.062c1.423-.951 3.12-1.483 4.64-2.3 2.572-1.38 4.98-3.14 7.67-4.208 9.267-3.68 18.813-6.507 28.624-8.34 2.863-.536 5.794-.724 8.7-1.001 4.026-.384 7.663 1.113 11.327 2.448 4.371 1.593 8.804 3.06 12.175 6.529 2.636 2.713 5.4 5.309 7.931 8.116 3.68 4.08 8.047 7.557 10.95 12.325.727 1.196 1.263 2.533 2.122 3.62 4.403 5.574 7.47 11.93 10.54 18.245 3.44 7.075 7.302 13.932 9.828 21.483 2.373 7.095 4.55 14.17 5.732 21.566.938 5.866 1.76 11.79 3.284 17.514 2.037 7.654 2.869 15.28 1.64 23.108-.582 3.7-1.955 7.094-4.174 10.111-1.207 1.64-2.546 3.183-4.05 5.048 6.286 1.444 12.343 2.376 18.936 1.944-1.334-2.638.176-4.418 1.133-6.281 3.192-6.223 4.676-12.743 3.633-19.731-.86-5.762-2.006-11.495-2.533-17.285-.377-4.135-1.347-8.11-2.448-12.023-1.607-5.712-3.804-11.258-5.735-16.88-2.037-5.935-4.047-11.879-6.088-17.813-1.378-4.005-3.18-7.786-5.618-11.285-1.348-1.933-2.37-4.096-3.524-6.164-1.68-3.012-3.054-6.246-5.072-9.01-5.429-7.433-11.155-14.65-17.935-20.932-1.624-1.506-3.502-2.738-5.269-4.09-3.929-5.446-9.544-8.919-15.026-12.456-3.44-2.218-7.245-3.89-10.962-5.646-1.628-.77-3.416-1.468-5.183-1.628-6.677-.605-13.372-1.017-20.066-1.406-1.712-.1-3.56-.211-5.147.3-6.029 1.94-12.512 2.788-17.658 6.979-.328.267-.766.4-1.157.587-2.69 1.297-4.817 3.24-6.566 5.64-.536.735-1.162 1.404-1.836 2.21-1.314-2.425-1.346-2.452-.296-3.668 1.812-2.099 3.516-4.207 6.128-5.569 3.14-1.638 5.819-4.176 8.981-5.756 7.184-3.586 14.76-5.311 22.92-4.297 3.753.466 7.612.08 11.754.08-.74-.44-1.235-.814-1.79-1.05-5.402-2.303-11.028-3.102-16.842-2.288-2.674.375-5.312 1.007-7.978 1.448-4.999.828-9.518 2.782-13.665 5.654-.452.313-.932.585-1.673 1.046.255-2.982 1.877-4.677 3.95-5.565 3.553-1.522 7.21-3.014 10.975-3.768 3.98-.797 8.147-.609 12.212-1.048 5.23-.566 10.112.54 14.616 3.04 4.33 2.402 8.353 5.348 13.015 7.172 1.081.423 2.11 1.151 2.959 1.954 1.196 1.13 2.53 1.37 4.093 1.276-.608-2.744-1.533-4.98-4.782-5.263-.762-.067-1.423-.957-2.198-1.326-.745-.354-1.584-.752-2.37-.728-1.723.053-2.772-.688-3.725-2.063-.541-.782-1.686-1.779-2.418-1.676-2.016.284-3.316-.722-4.665-1.797-1.933-1.54-3.737-3.174-6.52-3.1-.953.025-1.929-.85-2.898-1.305-3.193-1.504-6.387-3.005-9.447-4.443l-3.242 2.583c-.918-.861-1.56-1.611-2.344-2.156-.781-.545-1.868-1.42-2.538-1.217-2.518.763-4.402-.384-6.385-1.499-.356-.2-.92-.412-1.221-.268-1.835.88-3.603.169-5.405-.055-2.996-.372-4.393 1.026-4.266 4.102.043 1.064.106 2.162-.093 3.195-.491 2.55-1.006 5.11-1.735 7.599-1.307 4.457-2.366 9.054-4.275 13.252-3.056 6.722-7.375 12.723-12.308 18.242-2.307 2.582-4.747 5.05-6.974 7.697-1.368 1.627-2.447 3.498-4.03 5.804.396-.172.108-.041-.184.08-2.848 1.184-3.372.808-4.093-2.18-1.159-4.8-.48-9.473.758-14.1.321-1.201 1.097-2.356 1.905-3.332 1.16-1.402 2.511-2.652 3.835-3.91 1.835-1.744 3.72-3.436 5.583-5.15-.14-.23-.278-.462-.417-.694-1.23.509-2.455 1.029-3.69 1.521-.662.264-1.516.861-1.982.648-1.412-.645-1.94.31-2.715 1.048-3.688 3.512-7.52 6.803-11.941 9.436a32.556 32.556 0 0 0-7.056 5.666c-6.348 6.798-12.475 13.803-18.692 20.723-1.88 2.093-3.905 4.071-5.631 6.283-2.186 2.8-4.324 5.671-6.138 8.717-2.654 4.458-4.654 9.337-7.564 13.605-4.303 6.311-5.037 13.455-5.943 20.637-.016.128.206.285.507.677.547-1.057 1.063-1.969 1.501-2.916 1.766-3.823 3.412-7.704 5.284-11.472 1.903-3.829 5.524-6.61 6.772-10.869.086-.295.382-.523.54-.806 1.251-2.257 2.387-4.589 3.763-6.767 2.177-3.445 4.39-6.88 6.829-10.14 1.469-1.965 3.576-3.446 5.077-5.392 3.406-4.416 7.168-8.547 10.36-13.14 1.022-1.47 2.872-2.354 3.95-3.8 2.593-3.477 6.296-5.542 9.649-8.056.977-.733 2.078-1.02 3.476-.155-.99 1.749-2.36 2.956-3.963 3.765-4.807 2.43-7.958 6.396-11.035 10.68-4.09 5.693-8.494 11.206-13.212 16.388-3.03 3.328-5.668 6.682-7.518 10.832-1.794 4.024-3.984 7.952-6.538 11.54-4.756 6.682-8.66 13.792-10.982 21.607-1.591 5.354-2.407 10.953-3.307 16.486-.302 1.856.114 3.856.364 5.768.717 5.479 4.394 9.536 6.935 14.137.052.094.356.05.896.107-.43-1.525-.841-2.94-1.228-4.363-.504-1.848-1.19-3.674-1.44-5.556-.534-4.053-.894-8.13-1.22-12.207-.33-4.102-.305-8.289 1.262-12.094 1.425-3.46 3.65-6.585 5.444-9.9.86-1.588 1.964-3.219 2.182-4.93.24-1.871.904-3.4 2.116-4.587 2.69-2.638 4.12-6.026 5.75-9.26 2.953-5.866 7.29-10.59 11.706-15.318 3.064-3.282 6.33-6.519 7.244-11.24.09-.469.48-.942.85-1.285 3.168-2.932 6.35-5.85 9.557-8.74 1.6-1.444 3.26-2.82 5.196-4.488-.184 2.2-.927 3.553-2.212 4.656-1.643 1.409-3.367 2.747-4.863 4.301-2.015 2.093-4.003 4.247-5.721 6.583-3.515 4.778-6.684 9.815-10.302 14.51-2.284 2.965-5.456 5.282-5.941 9.378-.046.391-.412.754-.657 1.11-1.659 2.405-3.298 4.824-4.995 7.202-2.153 3.017-3.931 6.17-4.899 9.815-.487 1.834-1.597 3.526-2.56 5.204-.805 1.405-1.854 2.667-2.714 4.044-2.342 3.75-3.882 7.76-3.512 12.276.362 4.418.772 8.834 1.242 13.241.532 4.985 1.369 9.93 4.758 13.895a127.823 127.823 0 0 0 8.188 8.745c2.928 2.839 4.533 6.536 6.828 9.779.646.913.259 1.926-.702 2.5-.968.577-1.887.384-2.525-.603-.292-.452-.491-.963-.748-1.439-2.853-5.279-6.61-9.867-10.826-14.096-.475-.476-1.09-.812-1.64-1.213l-.525.47c2.395 3.723 4.056 7.947 7.869 10.699 1.723 1.243 2.411 2.948 1.616 3.995-.737.97-2.445.713-3.933-.913-2.04-2.228-4.154-4.46-5.769-6.987-3.49-5.464-6.66-11.132-10.008-16.688a37.021 37.021 0 0 1-4.72-12.382c-.509-2.731-.699-5.486.543-8.258.931-2.078 1.297-4.444.787-6.819-2.942 5.207-4.436 10.656-2.657 16.621.556 1.867 1.29 3.68 1.843 5.548.459 1.547.72 3.153 1.165 4.706.406 1.416.721 2.926 1.461 4.165 2.22 3.711 4.641 7.3 6.948 10.96.517.82 1.067 1.691 1.272 2.613.219.985.05 2.057.05 2.615 1.759.797 3.835 1.082 4.635 2.244 1.42 2.064 3.008 3.591 5.312 4.405 1.412.5 2.919.762 4.28 1.364 5.538 2.446 11.162 4.32 17.306 4.748 3.338.233 6.521.278 9.518-1.15 5.524-2.632 11.5-4.262 16.458-8.193 2.536-2.011 5.107-3.933 7.118-6.442 2.094-2.61 3.726-5.604 5.918-8.118 3.107-3.563 6.397-7 9.897-10.173 1.801-1.633 4.105-2.904 6.398-3.754 2.613-.968 5.216-2.322 8.442-2.05-.514-1.397-.91-2.731-1.483-3.984-1.907-4.17.339-10.25 6.944-10.349 1.612-.024 3.271.12 4.83.501 1.197.294 2.53.838 3.35 1.7 1.958 2.063 3.197 4.656 3.623 7.458.672 4.428-2.2 7.011-5.404 9.235-1.574 1.093-3.417 1.478-5.26.668-2.142-.94-4.226-2.013-6.654-3.181-2.918 2.13-6.188 4.262-9.147 6.763-1.957 1.654-3.627 3.72-5.149 5.803-4.337 5.94-8.474 12.026-12.826 17.955-1.13 1.54-2.604 2.94-4.182 4.024-5.844 4.014-12.279 6.857-19.048 8.892-3.723 1.118-7.556 1.864-11.3 2.919-1.712.482-3.632.685-4.605 1.91l1.163 7.836 4.522 4.093c-.957-4.121 1.553-10.91 5.456-12.216.548 1.114 1.073 2.284 1.686 3.407 1.86 3.403 3.559 6.917 5.684 10.15 2.61 3.97 5.503 7.763 8.442 11.502 1.455 1.85 3.112 3.64 4.986 5.046a147.482 147.482 0 0 0 11.238 7.643c3.265 2.006 6.968 2.945 10.81 2.894 3.781-.05 7.557-.462 11.337-.517 7.354-.105 14.684-.423 21.914-1.871 3.382-.677 6.934-1.048 10.047-2.395 4.508-1.951 9.389-2.101 13.956-3.686 2.584-.897 5.651-.407 8.234-1.308 4.524-1.58 9.453-2.187 13.453-5.154.34-.253.756-.468 1.166-.55 2.46-.5 4.298-2.032 6.001-3.703 3.084-3.026 6.035-6.187 9.125-9.207a682.363 682.363 0 0 1 12.168-11.608c1.376-1.28 2.957-2.342 4.482-3.533 1.138 1.99 1.226 2.587-.01 3.943-2.694 2.958-5.427 5.892-8.307 8.667-3.578 3.446-7.33 6.711-10.984 10.078-.952.877-1.727 1.965-2.742 2.75-7.392 5.719-15.727 9.655-24.806 11.544-7.843 1.63-15.647 3.244-23.233 5.86-2.647.911-5.41 1.527-8.157 2.095-7.015 1.449-14.127 1.9-21.28 1.94-3.136.017-6.274.387-9.405.317-3.296-.074-6.659-.15-9.85-.863-1.995-.446-3.748-2.034-5.57-3.172a175.245 175.245 0 0 1-6.207-4.041c-2.1-1.44-4.313-2.778-6.17-4.492-2.355-2.173-4.419-4.665-6.562-7.06-.338-.377-.387-.996-.649-1.459-.51-.903-.91-1.96-1.65-2.629-3.172-2.873-5.523-6.275-7.274-10.168-1.047-2.331-2.361-4.541-3.556-6.806l-.74.287c.289.961.425 2.003.89 2.868 2.353 4.372 4.636 8.795 7.257 13.005 1.699 2.728 3.98 5.088 5.922 7.672 3.897 5.188 7.91 10.284 12.79 14.589 3.087 2.724 6.353 5.455 10.492 6.239 4.435.84 8.99 1.51 13.485 1.469 7.673-.073 15.36-.54 23-1.28 4.043-.39 8.047-1.526 11.98-2.64 6.858-1.942 13.637-4.164 20.47-6.2 6.016-1.792 11.996-3.642 17.352-7.055 1.26-.803 2.529-1.622 3.882-2.238 3.911-1.78 7.762-3.694 10.958-6.59 5.355-4.85 10.598-9.827 15.827-14.815 2.42-2.309 4.64-4.825 7.063-7.13.916-.87 2.24-1.74 3.447-.588 1.381 1.318.076 2.31-.784 3.26-.218.241-.448.472-.683.697-5.235 5.006-10.414 10.075-15.733 14.99-2.929 2.708-5.882 5.487-9.206 7.646-4.8 3.118-9.83 5.944-14.974 8.46-7.468 3.65-15.066 7.02-23.19 9.09-6.059 1.544-11.972 3.666-18.042 5.152-8.206 2.01-16.607 2.825-25.047 2.893-5.179.041-10.362-.272-15.54-.495-1.276-.055-2.587-.237-3.802-.617-2.235-.697-4.55-1.332-6.57-2.463-2.046-1.145-3.812-2.813-5.627-4.34-1.225-1.031-2.462-2.104-3.451-3.35-3.793-4.776-7.487-9.63-11.22-14.454-.661-.854-1.27-1.766-2.035-2.515-.361-.354-1.037-.386-1.587-.57-.122.48-.283.747-.208.877 1.755 3.054 3.439 6.157 5.35 9.112 1.101 1.7 2.494 3.239 3.907 4.704 2.082 2.158 4.34 4.143 6.446 6.28 2.077 2.109 3.836 4.597 6.142 6.399 2.32 1.812 4.503 3.853 7.687 4.586 8.045 1.852 16.107 1.288 24.19.847 3.12-.17 6.26-.319 9.34-.806 5.113-.809 10.17-1.847 15.366-2.217 3.818-.272 7.65-1.056 11.35-2.071 3.319-.911 6.481-2.412 9.683-3.723 2.09-.857 4.082-2.468 6.2-2.625 3.723-.276 6.82-2.02 10.09-3.313 2.267-.897 4.545-2.213 6.296-3.887 5.42-5.182 11.544-9.433 17.641-13.695 6.116-4.275 12.206-8.518 16.873-14.443 2.734-3.47 5.439-6.967 8.052-10.528 1.138-1.551 2.384-1.805 4.114-1.184-.163.527-.187.878-.36 1.123-7.416 10.559-16.188 19.787-27.163 26.67-3.19 2.001-5.754 4.513-8.32 7.14-1.66 1.697-3.246 3.56-5.185 4.875-5.567 3.773-11.6 6.695-17.895 9.077-2.012.76-4.19 1.379-5.884 2.62-3.475 2.545-7.328 3.618-11.49 4.004a22.28 22.28 0 0 0-2.558.403c-3.48.74-6.931 1.641-10.435 2.234-10.039 1.698-20.14 2.899-30.335 2.995-7.562.071-15.17.813-22.645-1.088-.121-.03-.309.2-.69.463.76.517 1.38 1.176 2.131 1.404 2.367.72 4.751 1.522 7.188 1.848 4.913.657 9.866 1.02 14.802 1.505 1.915.188 3.865.697 5.737.494 3.206-.348 6.362-1.148 9.542-1.747 4.683-.88 9.372-1.693 14.175-1.263.531.047 1.081-.023 1.615-.095 4.927-.663 9.865-1.256 14.772-2.044 2.747-.441 5.542-.765 7.96-2.502 1.675-1.205 3.609-.976 5.329-.24.562 1.696-.418 2.249-1.468 2.63-3.147 1.141-6.241 2.633-9.496 3.234-6.261 1.156-12.6 2.253-18.943 2.521-6.644.282-13.137 1.151-19.599 2.542-2.78.598-5.537.681-8.376.275-5.462-.78-10.959-1.313-16.431-2.028-4.495-.587-9.038-1.111-12.514-4.543-.042-.042-.185.02-.461.058.016 2.6 1.199 4.44 3.477 5.721 1.458-1.256 2.858-1.295 4.412-.145 1.12.83 2.383 1.509 3.664 2.067 4.257 1.856 8.437 3.888 13.353 3.396 3.98-.398 8.004-.326 11.997-.618 3.442-.251 6.922-.459 10.288-1.155 5.285-1.094 10.444-2.588 15.93-2.782 6.898-.244 13.808-.75 20.406-3.234 2.362-.889 4.882-1.587 7.588-1.023.216 1.854-.243 2.844-2.066 3.517-9.065 3.349-18.533 4.055-28.04 4.718-3.211.224-6.465.657-9.564 1.493-5.386 1.452-10.868 1.851-16.374 2.066-5.486.213-10.98.189-16.47.287-.169.003-.333.21-.667.434.82 1.691 2.455 2.098 3.997 2.163 2.8.116 5.624.05 8.418-.181 7.762-.642 15.477-1.72 23.313-1.538 3.527.081 7.172-.37 10.593-1.247 6.119-1.569 12.306-2.516 18.576-2.752 3.968-.15 7.72-.89 11.39-2.288 1.897-.723 3.807-1.41 5.903-2.185-.45-.535-.833-1.19-1.39-1.62-4.617-3.558-7.684-8.432-11.058-13.03-1.354-1.844-1.107-2.357.952-4.16 2.27 1.6 4.415 3.405 6.826 4.728 2.3 1.261 4.171 3.34 6.918 3.781-.134-.366-.276-.731-.394-1.103zm18.855 22.196a1.915 1.915 0 0 0-.081-.009 53.32 53.32 0 0 1-.125.183l.185-.113a.654.654 0 0 0 .02-.06zm-10.435 6.542c-4.232 3.362-8.913 5.128-14.15 5.906-10.546 1.565-21.136 1.484-31.745 1.104-3.002-.108-6.028-.292-9.009-.038-5.36.457-10.681 1.377-16.043 1.789-2.806.215-5.658-.39-7.548-2.84-.915-1.187-2.102-1.592-3.347-2.24-2.772-1.44-6.78-1.852-6.612-6.273-6.14-1.968-10.24-5.744-10.009-9.202l-5.78-3.163.402 3.947c3.24-.582 4.474 1.27 5.317 3.714.483 1.403 1.143 2.743 1.808 4.313 2.738-1.43 4.222-.205 5.46 1.935.747 1.29 1.573 2.98 2.775 3.463 2.235.897 3.284 2.678 4.616 4.338.672.837 1.355 1.722 2.205 2.352 4.684 3.47 9.317 7.033 15.023 8.78 1.623.497 3.124 1.483 4.767 1.799 2.11.405 4.316.561 6.463.456 2.296-.113 4.266.548 6.147 1.68 1.11.668 2.2 1.385 3.216 2.184.955.751 1.868.903 3.005.446 2.89-1.16 5.929-.916 8.95-.84 1.062.026 2.209.142 3.18-.187 3.882-1.315 7.766-2.418 11.919-2.54 1.919-.056 3.855-.563 5.724-1.078 5.936-1.635 11.813-3.586 18.121-2.654.213.031.433.003.65.016 1.4.078 2.138-.568 2.562-1.93.545-1.748 1.32-3.425 2.03-5.117.946-2.255 2.542-3.607 5.06-3.986 2.748-.413 4.749-1.952 5.848-4.59.708-1.697 1.953-2.865 3.784-3.261 1.86-.402 3.04-1.534 3.81-3.213.8-1.742 2.018-3.18 3.87-3.72 2.204-.642 3.893-1.905 5.19-3.69 2.079-2.862 5.013-4.429 8.265-5.323 1.93-.531 2.313-1.65 2.292-3.316-.027-2.274.043-4.55-.03-6.822-.059-1.799-.27-3.593-.465-6.048-3.524 2.94-4.6 6.772-7.027 9.568-2.437 2.807-5.057 5.454-7.596 8.17 4.898-2.16 8.256-6.3 12.54-9.67l1.281 2.808c-3.194 2.566-6.337 5.01-9.39 7.562-4.06 3.396-8.018 6.91-12.079 10.304-2.31 1.932-4.636 3.877-7.141 5.534-2.333 1.544-5.077 2.486-7.344 4.107-3.073 2.195-5.897 4.747-8.766 7.217-2.595 2.234-5.604 3.583-8.847 4.533-5.514 1.615-11.084 2.78-16.883 2.447-.856-.05-1.76-.01-2.584.207-8.05 2.122-16.093.78-24.138.023-.43-.041-.904-.04-1.275-.224-2.378-1.18-5.802-.697-6.56-4.383-4.088-.5-8.039-.921-11.965-1.509-.928-.139-1.773-.838-2.809-1.356 2.107-1.874 2.889-1.936 5.584-1.503 3.195.514 6.425 1.111 9.641 1.122 4.639.016 9.272-.455 13.917.14 1.153.148 2.369-.157 3.552-.283 5.482-.586 10.96-1.206 16.445-1.768 4.725-.484 9.531-.524 14.167-1.438 8.636-1.704 14.903-7.03 19.785-14.127-3.439 2.086-7.105 3.885-10.23 6.368zm11.601-6.462c2.504-1.22 5.071-2.352 7.425-3.822 2.283-1.425 4.323-3.235 6.49-4.85 5.58-4.154 10.655-8.796 14.493-14.678a163.213 163.213 0 0 1 4.955-7.184c.894-1.221 1.963-2.364 3.94-1.653l.186 2.396c1.548-.224 3.238-.07 3.495-1.62.517-3.12.787-6.313-.24-9.934-.921.989-1.603 1.521-2.031 2.21-3.19 5.137-7.675 9.007-12.199 12.894-5.575 4.79-11.09 9.665-16.4 14.744-3.803 3.639-6.638 8.258-11.172 11.185-.06.039-.08.141-.108.232.402.055.862.228 1.166.08zM15.484 82.522c-.101-1.382-.296-2.188-.19-2.953.343-2.513 1.454-4.702 2.918-6.766 1.306-1.842 2.613-3.718 3.618-5.73 1.577-3.157 3.893-5.695 6.252-8.225 1.028-1.102 2.128-2.139 3.141-3.254 2.392-2.636 4.655-5.398 7.152-7.928 2.57-2.605 5.393-4.958 8.037-7.492 1.633-1.566 3.123-3.28 4.706-4.9 1.568-1.604 2.98-3.457 4.8-4.704 4.456-3.053 9.024-5.969 13.71-8.654 3.726-2.134 7.68-3.873 11.57-5.713.642-.304 1.465-.272 2.209-.316 5.68-.337 11.394-.255 16.501-3.568 1.816-1.177 4.154-1.514 6.453-1.2l-.493 4.781c-3.261 1.259-5.608 3.93-8.158 6.438-1.976 1.945-4.333 3.616-6.773 4.949-3.79 2.073-7.897 3.57-11.683 5.65-4.728 2.598-9.506 5.177-13.33 9.143-2.776 2.88-5.669 5.645-8.492 8.479-2.137 2.145-4.302 4.268-6.359 6.49-4.85 5.239-9.73 10.454-14.42 15.836-2.044 2.346-3.933 4.924-5.397 7.661-3.166 5.923-6.257 11.872-10.332 17.242-1.763 2.325-2.425 5.032-2.812 7.847-.162 1.176-.152 2.435-.593 3.503-2.247 5.436-2.209 11.203-2.58 16.907-.093 1.43-.249 2.996 1.087 4.36.285-.499.592-.832.678-1.214.996-4.42 2.267-8.809 2.852-13.285.699-5.351 1.768-10.439 5.268-14.731a8.27 8.27 0 0 0 .865-1.347c2.533-4.761 5.049-9.533 7.588-14.29.406-.762.842-1.524 1.377-2.196 2.947-3.709 5.89-7.422 8.924-11.061.948-1.138 2.276-1.956 3.246-3.08 2.53-2.926 4.88-6.008 7.448-8.9 2.143-2.413 4.711-4.472 6.698-6.999 2.91-3.7 6.219-6.852 10.17-9.395 4.357-2.803 8.565-5.845 12.983-8.544 2.925-1.787 6.016-3.707 9.556-3.588 2.312.078 3.662-.802 4.857-2.437 2.538-3.473 5.264-6.828 7.522-10.474 2.04-3.297 3.272-6.974 2.494-10.929-.939 0-1.708.135-2.411-.022-3.504-.782-6.69.774-9.703 1.884-1.859.686-3.501 1.153-5.435 1.174-1.234.013-2.88.078-3.608.83-1.454 1.504-2.961 1.362-4.727 1.297-1.803-.068-4.291-.423-5.288.557-1.875 1.846-3.787 1.747-5.911 1.642-1.528-.076-2.48.5-2.819 2.034-.602 2.724-2.33 3.987-5.104 4.03-2.142.035-4.058.839-5.344 2.568-1.347 1.812-2.622 3.619-4.495 4.977-1.02.74-1.916 1.757-2.619 2.815-1.783 2.68-4.136 4.653-6.897 6.243-.685.394-1.165 1.166-1.693 1.802-.679.818-1.176 1.843-1.986 2.483-2.599 2.052-5.305 3.968-8.129 6.053-.133.453-.127 1.476-.636 1.979-2.44 2.412-4.352 5.081-6.11 8.091-2.147 3.68-5.4 6.744-9.168 9.048-1.317.804-2.3 1.684-2.369 3.541-.052 1.433-.9 2.858-1.498 4.242-.453 1.048-.931 2.008.294 2.85 1.108.761.72 1.679.183 2.53-.402.637-.907 1.218-1.42 1.774-1.718 1.86-2.452 3.827-.675 6.05.803 1.004.704 1.975.092 2.995-1.111 1.852-2.172 3.735-3.337 5.551-1.271 1.983-2.638 3.905-4.028 5.95 2.673 2.008 2.992 4.347 1.665 7.034-.235.475-.311 1.032-.444 1.555-.422 1.654.293 2.417 2.371 2.591.3-2.06 1.191-4.196.738-5.991-.73-2.892.464-5.193 1.337-7.565 1.492-4.045 3.357-7.953 5.072-11.916.47-1.085.881-2.207 1.467-3.227 1.39-2.42 2.875-4.785 4.31-7.18 2.272-3.793 4.391-7.63 7.853-10.624 2.595-2.243 4.858-4.936 6.97-7.661 5.892-7.608 11.887-15.087 19.51-21.099 2.389-1.884 4.483-4.102 6.044-6.796-2.153.589-3.947 1.704-5.426 3.29-1.99 2.135-3.693 4.61-5.939 6.416-7.204 5.801-13.64 12.388-19.609 19.373-5.18 6.064-9.934 12.535-12.922 20.077-.131.333-.505.569-1.224 1.342zm-5.07 41.685l.763-.09c-.485-5.967 1.469-11.483 2.91-17.097.267-1.04.372-2.134.444-3.21.21-3.147 1.525-5.838 3.395-8.283 3.692-4.829 6.889-9.92 9.338-15.523 1.109-2.535 2.751-4.941 4.572-7.043 3.819-4.408 7.934-8.56 11.892-12.85 2.126-2.304 4.075-4.78 6.288-6.995 3.438-3.439 7.308-6.48 10.494-10.128 4.13-4.729 9.17-8.2 14.379-11.438 3.93-2.444 8.224-4.3 12.324-6.476 1.997-1.06 4.089-2.047 5.84-3.44 2.574-2.049 4.69-4.682 7.849-5.968.033-.014.004-.182.004-.683-2.081.88-4.067 1.607-5.953 2.54-4.458 2.205-8.86 4.524-13.3 6.766-4.059 2.049-8.18 3.975-12.183 6.126-1.49.801-2.779 2.02-4.055 3.164a633.343 633.343 0 0 0-10.284 9.425c-3.389 3.179-7.237 6.043-9.937 9.737-3.595 4.916-7.574 9.437-11.602 13.956-2.804 3.147-5.921 6.103-8.223 9.59-5.547 8.406-10.566 17.153-13.785 26.77-.741 2.213-1.095 4.604-1.28 6.941-.187 2.363.076 4.76.104 7.141.027 2.356.006 4.712.006 7.068zM111.282 16.37c-1.342 2.423-2.194 4.3-3.346 5.968-2.02 2.925-4.266 5.692-6.336 8.584-2.405 3.358-4.963 6.536-8.262 9.1-1.615 1.255-3.054 2.764-4.442 4.28-3.689 4.026-3.808 9.078-4.05 14.103 1.88-1.967 3.438-4.096 5.173-6.07 5.786-6.582 11.378-13.307 15.975-20.8 2.737-4.462 4.356-9.31 5.288-15.165zm41.862 282.992l-.14.723c.98.37 1.936.857 2.949 1.083 1.571.35 3.185.501 4.775.77 5.561.94 11.131 1.459 16.757.563.955-.151 1.939-.125 2.91-.162 6.93-.27 13.745-1.243 20.376-3.332 3.595-1.133 6.56-3.273 9.836-6.032-4.934 1.564-9.248 3.063-13.642 4.268-2.151.59-4.502 1.077-6.675.834-5.345-.597-10.488.882-15.746 1.049-3.438.109-6.862.789-10.297.825-3.698.04-7.402-.374-11.103-.59zM22.466 168.022c-.252-.91-.332-1.319-.48-1.701-.154-.399-.3-.838-.577-1.146-2.712-3.021-4.26-6.442-3.813-10.601.045-.414-.055-.873-.197-1.271-1.828-5.13-3.675-10.25-5.58-15.55-2.72 2.527-2.83 4.02-.225 6.74 1.273 1.33 1.464 2.337.76 3.964-1.07 2.472-1.15 5.048.477 7.372.946 1.35.812 2.598.1 3.927-.697 1.302-1.387 2.607-2 3.76 2.867 4.21 7.013 4.098 11.535 4.506zm33.463 23.915c.324 4.148 1.153 5.17 3.866 4.616 4.226-.862 8.466-1.772 12.572-3.07a174.723 174.723 0 0 0 15.205-5.596c2.339-.986 4.57-2.504 6.453-4.218 1.802-1.642 3.117-3.83 4.59-5.818.732-.991 1.34-2.075 2.004-3.116l-.512-.395c-5.533 6.308-12.282 10.796-19.92 14.141-7.711 3.376-15.602 4.983-24.258 3.456zm240.138-18.273c-1.686 4.53-3.345 9.072-5.068 13.588-1.112 2.916-2.683 5.713-3.374 8.718-.632 2.75-1.084 5.472-2.653 7.877-.071.108.106.38.269.892.756-.195 1.79-.148 2.264-.64 2.015-2.086 4.992-3.745 3.944-7.477-.083-.294-.006-.642.035-.96a45.025 45.025 0 0 1 4.287-14.143c1.291-2.623 1.183-5.106.296-7.855zm-70.513 14.194l-.073.746c3.721.978 7.421 2.05 11.17 2.914 5.376 1.239 10.813 1.91 16.334 1.029 1.189-.19 2.568-.064 3.158-1.676l-30.589-3.013zm-31.55 71.07c1.774 5.564 14.4 11.833 19.25 9.35-6.485-3.15-12.727-6.18-19.25-9.35zm22.147 29.267c6.103-2.794 11.797-6.194 16.226-11.407-5.292 3.973-12.792 4.68-16.226 11.407zM95.416 258.673l-1.072-2.016c-.84-1.58-3.556-2.53-1.683-5.045.096-.128-.155-.629-.36-.848-1.575-1.687-3.18-3.348-4.775-5.017l-.715.41c.222.987.325 2.02.692 2.95.629 1.595 1.502 3.094 2.128 4.69.963 2.454 2.442 4.265 5.785 4.876zm179.98-41.146c-3.993 2.251-5.53 6.207-7.538 9.87 1.2-.821 3.114-.775 3.266-2.688.192-2.433 1.457-4.184 3.286-5.668.445-.36.663-1.001.986-1.514zM8.03 124.867c-.27-2.286-.518-4.399-.81-6.885-3.637 3.96-3.427 5.729.81 6.885zm2.384 9.825l.839-.344c.101-1.031.302-2.066.265-3.093-.02-.558-.335-1.457-.708-1.57-.612-.183-1.514-.042-2.033.329-.357.253-.542 1.255-.33 1.698.507 1.064 1.293 1.995 1.967 2.98zM85.489 243.9l-4.514-4.86c-.367 4.036.068 4.527 4.514 4.86zm20.856-78.11c-2.61 2.2-4.529 5.236-4.571 7.447 1.218-2.6 4.3-4.02 4.57-7.447zm96.891-119.347c1.447 1.516 2.779 2.914 4.424 4.64-.61-4.124-1.089-4.598-4.424-4.64zm96.531 121.726l1.018-.068c0-1.199.046-2.4-.014-3.596-.056-1.124 1.095-2.24-.065-3.734-.63 2.678-1.854 4.938-.939 7.398zM78.614 20.998c2.762-.684 5.312-2.11 6.452-3.606-3.054.78-4.667 1.683-6.452 3.606zM68.035 216.853c.313-2.097.313-2.097-1.563-3.307-.355 1.575-.073 2.727 1.563 3.307zm124.81-179.557l2.734 2.207c.039-2.07-.602-2.91-2.734-2.207zm-10.848-8.858c.504 1.705 1.37 1.81 2.313 1.63l.23-.688-2.543-.942zM73.84 167.842l-.66.213c.381.903.006 2.15 1.797 3.074l-1.137-3.287zm192.289 63.854l-.687-.618-1.15 1.83.569.404 1.268-1.616zM74.34 221.386l-.543.347 1.029 1.795.629-.394-1.115-1.747zM212.067 55.752l.673-.552-1.224-1.333-.494.414 1.045 1.471zM194.31 44.383l-.058-.05-.074-.088.132.138zm11.294 13.524c1.3 1.583 2.575 3.228 3.576 5.006 3.655 6.492 8.294 12.395 11.097 19.413 2.162 5.411 4.905 10.59 7.384 15.876.322.685.644 1.374.909 2.082 1.512 4.048 2.848 8.17 4.543 12.138 2.877 6.737 4.167 13.87 5.565 20.977 1.752 8.91 3.517 17.822 5.037 26.775 1.112 6.556.087 12.696-4.617 17.854-1.303 1.43-2.294 3.142-3.54 4.631-.552.661-1.38 1.092-2.44 1.897-.51-2.546.347-4.126 1.236-5.691 1.547-2.725 3.21-5.389 4.62-8.182.61-1.211.918-2.667 1.004-4.033.3-4.769-.208-9.459-1.243-14.15-1.437-6.513-2.431-13.123-3.76-19.661-1.528-7.524-3.722-14.818-6.384-22.07-3.068-8.362-7.3-16.151-10.509-24.39-1.54-3.952-3.676-7.475-5.644-11.145-4.044-7.547-8.967-14.43-14.582-20.919-4.2-4.854-8.394-9.686-13.881-12.995-5.893-3.552-11.317-8.04-18.142-9.902-1.242-.34-2.473-.791-3.74-.955-8.1-1.053-16.174-1.048-24.083 1.27-2.364.693-4.62 1.791-6.873 2.818-3.038 1.385-6.058 2.819-9.023 4.353-1.805.935-3.48 2.119-5.235 3.156-3.332 1.968-6.662 3.942-10.03 5.846-.872.492-1.862 1.12-3.276.06 1.04-.85 1.917-1.575 2.802-2.29 3.755-3.037 7.48-6.127 12.372-7.217.204-.046.388-.189.574-.298 3.888-2.29 7.813-4.521 11.654-6.887 4.652-2.867 9.861-3.964 15.13-4.46 4.91-.463 9.955-.749 14.815-.128 4.327.553 8.861 1.78 12.634 3.902 7.205 4.052 14.37 8.303 20.698 13.745 3.79 4.52 7.608 9.016 11.352 13.574zm-11.292-13.522l-.002-.002.002.002zM97.96 192.296l1.18-2.756c2.517 1.874 3.979 4.266 5.67 6.445.462.598.918 1.224 1.24 1.902 2.186 4.595 6.195 7.222 10.585 9.083 2.052.87 4.687.849 6.98.577 5.788-.688 11.52-1.843 17.298-2.625 4.28-.58 8.634-.657 12.892-1.343 5.286-.852 10.722-1.338 15.43-4.344.625-.4 1.366-.657 2.087-.864 7.116-2.036 12.994-6.005 17.22-12.008 2.147-3.048 3.649-6.622 5.026-10.122 3.644-9.265 4.52-18.926 3.134-28.735-1.894-13.413-4.543-26.659-9.69-39.284-1.879-4.606-3.574-9.286-5.444-13.896-1.442-3.555-3.717-6.516-6.443-9.248-10.242-10.268-22.753-13.294-36.662-11.447-7.019.932-13.051 4.335-18.543 8.807-4.186 3.408-8.454 6.772-12.987 9.687a77.268 77.268 0 0 0-17.48 15.401c-4.648 5.536-7.713 11.958-9.503 19.01-1.866 7.345-2.371 14.69-1.09 22.197.617 3.613.754 7.31 1.086 10.97.332 3.652 1.595 6.888 3.822 9.846 1.483 1.97 2.635 4.202 3.82 6.38.33.606.246 1.439.38 2.362l-1.762.315c-1.95-2.957-3.834-5.56-5.446-8.32-1.858-3.183-3.158-6.593-3.354-10.359-.065-1.263-.49-2.504-.67-3.767a64.409 64.409 0 0 1-.432-4.133c-.389-5.044-.972-10.086-1.077-15.136-.129-6.233 1.182-12.244 4.068-17.826 1.824-3.526 3.576-7.114 5.727-10.437 1.192-1.842 3.121-3.215 4.758-4.756.466-.438 1.246-.608 1.587-1.103 2.543-3.698 5.905-6.496 9.4-9.253 3.033-2.39 5.936-4.824 9.333-6.79 3.51-2.033 6.642-4.848 9.594-7.68 4.27-4.093 9.286-6.681 14.92-7.971 8.11-1.857 16.168-1.72 24.213.939 3.413 1.128 6.84 2.04 9.646 4.344 1.913 1.57 3.53 3.509 5.47 5.039 6.552 5.164 10.58 12.097 13.709 19.593 1.701 4.076 2.85 8.38 4.32 12.556.642 1.828 1.474 3.59 2.196 5.391.36.9.777 1.799.982 2.74 1.886 8.65 3.963 17.24 5.117 26.061 1.668 12.758-.568 24.783-5.854 36.275-2.707 5.887-6.947 10.662-12.922 13.668-12.405 6.242-25.287 10.647-39.357 11.04-2.872.08-5.694 1.355-8.581 1.624-5.155.481-10.353.934-15.508.735-2.004-.077-3.948-1.934-5.899-3.016-.365-.203-.604-.798-.95-.844-3.502-.463-4.674-3.392-6.39-5.812-2.12-2.989-4.396-5.866-6.846-9.112zm4.109-7.77c1.628-1.251 2.387-.643 3.038.153 3.21 3.925 6.811 7.546 9.125 12.163.618 1.233 1.617 2.298 2.545 3.349 1.898 2.149 4.145 2.776 6.718 1.64 4.784-2.108 9.816-2.84 14.963-3.422 6.417-.726 12.806-1.798 19.156-2.988 4.118-.77 8.22-1.797 12.196-3.113 5.035-1.667 9.132-4.86 12.473-8.978 2.256-2.78 3.045-6.212 3.866-9.557 1.443-5.877 2.829-11.78 3.906-17.733 1.43-7.895.805-15.73-1.563-23.409-2.23-7.233-4.676-14.407-6.651-21.709-1.334-4.928-3.602-9.235-6.7-13.196-1.866-2.388-3.713-4.792-5.578-7.18-2.258-2.892-5.022-4.809-8.676-5.873-6.457-1.88-12.91-2.617-19.549-1.604-1.382.21-2.785.496-4.086.99-5.655 2.15-11.266 4.415-16.91 6.591-8.87 3.42-15.811 9.334-21.404 16.845-2.769 3.717-5.243 7.683-7.532 11.716-1.374 2.42-2.182 5.171-3.156 7.806-1.349 3.652-2.5 7.38-3.945 10.992-1.98 4.947-2.174 10.01-.613 14.96 1.488 4.72 3.622 9.237 5.479 13.84.485 1.204 1.175 2.36 1.433 3.607.186.897-.188 1.91-.312 2.871l-.664.024c-1.114-2.62-2.08-5.317-3.374-7.846-2.482-4.853-4.037-10.03-5.04-15.309-.526-2.774-.338-5.89.352-8.644 1.335-5.327 3.454-10.455 4.864-15.767a43.077 43.077 0 0 1 4.814-11.272c2.885-4.766 5.734-9.78 9.627-13.656 5.296-5.272 10.878-10.514 18.137-13.283 4.24-1.617 8.445-3.328 12.684-4.95 2.713-1.038 5.396-2.27 8.208-2.895 2.376-.53 4.927-.227 7.388-.446 5.853-.52 11.283 1.505 16.82 2.792 1.468.341 3.035 1.341 4.018 2.497 4.33 5.09 8.586 10.257 12.62 15.584 2.286 3.017 3.959 6.444 4.531 10.304.172 1.16.62 2.282.971 3.411 1.607 5.157 3.305 10.286 4.819 15.47 1.942 6.65 3.919 13.33 3.244 20.389-.39 4.08-.814 8.172-1.533 12.204a127.854 127.854 0 0 1-2.906 12.646c-.946 3.312-2.11 6.614-3.632 9.695-2.24 4.534-6.34 7.335-10.58 9.776-4.358 2.51-9.213 3.74-14.123 4.68a1215.3 1215.3 0 0 1-16.599 3.066c-1.7.3-3.444.643-5.15.57-4.626-.2-9.046.652-13.387 2.124-.511.174-1.04.296-1.559.451-5.479 1.637-7.414 1.057-10.897-3.533-2.416-3.183-4.683-6.479-7.048-9.701-.7-.954-1.594-1.772-2.245-2.753-.921-1.39-1.7-2.872-2.583-4.389zm-8.061-17.228c-1.983-4.84-4.083-9.328-5.634-14-.864-2.602-1.166-5.518-1.097-8.278.125-5.002 1.494-9.746 4.02-14.147 1.117-1.949 1.972-4.06 2.823-6.148 1.747-4.284 5.245-7.375 7.55-11.267 1.148-1.938 2.233-3.93 3.137-5.99 1.16-2.647 2.736-4.952 5.196-6.45 2.47-1.504 5.024-2.921 7.678-4.055 5.057-2.162 10.189-4.155 15.332-6.106 3.977-1.508 8.095-2.219 12.387-1.815 1.923.18 3.904-.125 5.8.169 2.308.358 4.695.378 6.837 1.727 1.904 1.2 4.03 2.072 6.118 2.949 4.557 1.913 7.559 5.471 9.324 9.805 1.724 4.231 4.114 8.04 6.238 12.02.71 1.332 1.52 2.64 2.016 4.052 5.36 15.236 5.7 30.691 2.043 46.346-1.213 5.194-2.807 10.195-5.842 14.632-4.146 6.063-9.667 10.13-17.01 11.423-2.556.45-5.132.931-7.715 1.055-6.662.32-12.928 2.495-19.366 3.858-4.574.968-9.193.806-13.82.36-2.168-.208-2.962-2.02-4.116-3.343-2.18-2.5-4.225-5.121-6.245-7.754-1.048-1.366-2.045-2.801-2.827-4.327-.4-.78-.278-1.829-.473-3.413 2.862 1.989 4.253 4.421 6.01 6.474 1.896 2.213 3.626 4.573 5.355 6.922 1.051 1.427 2.447 2.104 4.142 2.226 5.87.42 11.62.046 17.18-2.184 3.914-1.57 8.07-2.131 12.271-2.398 7.545-.48 14.741-1.948 20.57-7.32 2.773-2.557 4.64-5.672 5.92-9.16 4.53-12.324 5.525-25.017 3.982-37.993-.603-5.072-1.55-10.039-3.49-14.778-.49-1.195-1.124-2.33-1.687-3.495-1.318-2.726-2.928-5.352-3.89-8.197-2.685-7.945-8.243-12.598-15.967-15.32-6.634-2.337-13.158-2.035-19.736-.155-7.797 2.227-15.62 4.364-23.03 7.786-3.67 1.694-6.512 3.987-8.483 7.61-2.318 4.263-5.056 8.297-7.59 12.444a26.284 26.284 0 0 0-1.537 2.848c-1.917 4.238-4.066 8.396-5.619 12.765-1.724 4.851-2.183 9.897-.21 14.9a850.956 850.956 0 0 1 4.306 11.193c.305.807.497 1.658.727 2.493.406 1.473-.466 1.902-1.578 2.036zm5.448-3.655c-2.16-2.572-4.329-5.175-4.843-8.52-.9-5.855-1.496-11.789-.676-17.704.79-5.691 2.44-11.165 5.743-15.957 1.46-2.118 3.269-3.997 4.934-5.973 2.223-2.639 4.48-5.248 6.685-7.902 2.022-2.435 4.68-3.745 7.65-4.616 3.199-.938 6.398-1.897 9.538-3.015 4.61-1.642 9.38-2.464 14.216-2.881 1.452-.125 2.96.371 4.44.594 4.683.706 9.57 1.032 13.538 3.837 2.69 1.9 5.32 4.246 7.133 6.957 5.157 7.714 8.317 16.289 10.05 25.452 2.285 12.081 1.655 23.894-2.216 35.567-1.623 4.892-4.382 8.754-8.637 11.804-5.386 3.862-11.312 5.617-17.8 6.27-5.91.596-11.77 1.67-17.662 2.467-3.336.45-6.688.645-9.886-.757-.663-.29-1.379-.66-1.833-1.194-2.43-2.858-4.735-5.825-7.19-8.662-1.245-1.44-2.714-2.686-4.32-4.25l1.325-2.189c.511.139.914.123 1.1.316 3.326 3.464 6.7 6.886 9.89 10.473 1.14 1.282 2.264 2.104 3.98 2.462 3.74.78 7.307-.347 10.935-.697 4.5-.435 8.978-1.112 13.466-1.685 2.559-.326 5.235-.294 7.643-1.082 2.507-.82 4.781-2.383 7.109-3.706 4.351-2.474 7.152-6.258 8.55-10.979 1.528-5.164 3.488-10.275 3.488-15.761 0-4.311.017-8.656-.487-12.925-.955-8.095-3.025-15.96-6.727-23.257-2.453-4.834-5.367-9.573-10.47-12.008-5.722-2.73-11.854-4.528-18.248-3.161-7.498 1.602-14.961 3.463-22.29 5.7-2.43.743-4.67 2.733-6.52 4.619-3.407 3.469-6.474 7.272-9.657 10.958-2.633 3.05-3.568 6.885-4.712 10.593-1.828 5.924-1.843 12.049-.682 18.006.662 3.4 2.653 6.56 4.192 9.758.517 1.074 1.1 1.906-.749 3.048zm15.113 4.183c2.451 2.98 4.602 5.64 6.803 8.256 1.763 2.097 4.14 2.806 6.775 3.415 6.273 1.45 12.195-.294 18.199-1.418 2.864-.536 5.75-1.104 8.508-2.016 2.436-.804 4.905-1.825 6.99-3.281 1.602-1.118 2.801-2.95 3.881-4.654 2.968-4.685 4.09-9.923 4.15-15.415.076-6.713-.321-13.38-2.04-19.913-1.39-5.28-3.789-10.123-6.526-14.8-.809-1.383-1.788-2.776-3.812-2.492-.372.052-1.035-.115-1.15-.368-1.06-2.35-3.78-2.695-5.34-4.495-.75-.865-2.25-1.392-3.458-1.496-10.04-.866-19.87-.295-29.236 4.064-5.289 2.462-8.864 6.492-11.51 11.444-1.628 3.045-2.888 6.288-4.266 9.463-2.074 4.777-2.35 9.615-.407 14.519.717 1.807 1.353 3.647 2.059 5.459.495 1.27.761 2.483-.705 3.857-1.65-2.44-2.336-5.125-3.17-7.737a92.374 92.374 0 0 1-1.109-3.66c-.226-.826-.577-1.693-.511-2.511.38-4.717.806-9.43 3.404-13.617.557-.897.742-2.017 1.17-3.003 3.561-8.201 9.582-14.028 17.657-17.633 7.013-3.133 14.46-3.808 22.108-3.453 2.97.138 5.944 1.034 8.97.296.532-.13 1.387.153 1.79.55 2.835 2.811 6.588 4.415 9.295 7.459 3.285 3.694 4.798 8.183 6.518 12.609 3.237 8.33 3.984 17.168 3.805 25.889-.21 10.14-3.901 19.05-13.184 24.66-3.791 2.29-8.082 3.029-12.303 3.852-4.241.827-8.56 1.255-12.847 1.846-4.443.612-8.885-.082-12.564-2.308-4.217-2.551-7.79-6.148-8.405-11.57-.054-.48.245-.998.46-1.798zm-9.635 61.906c.723.215 1.455.478 2.1.858 3.71 2.188 7.8 2.55 11.935 2.315 5.936-.336 11.864-.842 17.787-1.372 6.13-.55 12.29-.948 18.36-1.906 5.74-.907 11.408-2.342 17.051-3.766 3.019-.762 5.974-1.856 8.862-3.037a80.398 80.398 0 0 0 22.206-13.62c4.188-3.611 8.205-7.277 11.137-12.061 1.815-2.961 2.266-2.932 5.39-1.804-3.345 5-5.881 10.505-11.28 13.842a33.021 33.021 0 0 0-6.321 5.068c-3.65 3.775-8.338 5.716-12.895 7.931-3.592 1.746-7.058 3.896-10.825 5.104-7.807 2.505-15.571 5.358-23.802 6.226-10.623 1.123-21.28 1.933-31.893 3.146-6.673.762-12.912.167-18.537-3.815-.258-.182-.622-.43-.874-.372-2.338.536-3.35-1.068-4.72-2.513-3.392-3.576-7.137-6.816-10.536-10.386-4.84-5.085-9.6-10.281-12.45-16.837-.544-1.253-.72-2.706-.826-4.086-.037-.478.589-1.366 1.017-1.437.625-.104 1.468.208 1.985.628.448.365.609 1.114.832 1.717 3.26 8.784 8.97 15.687 16.34 21.314-1.499-1.977-2.953-3.991-4.508-5.926-3.494-4.35-5.75-9.394-8.067-14.392-.447-.965-.253-2.228-.38-3.637l2.687.302c1.59 3.312 2.895 6.529 4.611 9.507 3.794 6.587 8.357 12.57 14.802 16.839 2.01 1.332 4.215 1.948 6.745 1.834 3.01-.134 6.047.42 9.063.336 5.943-.168 11.88-.57 17.819-.877.968-.05 1.936-.123 2.905-.163 7.785-.32 15.563-1.036 23.062-3.103 5.916-1.631 11.672-3.937 17.348-6.306 3.059-1.276 5.695-3.536 8.705-4.964 6.517-3.091 11.536-7.98 16.321-13.148 1.449-1.565 2.463-3.536 3.641-5.344.697-1.07 1.326-2.183 1.959-3.232 2.994 1.095 3.238 1.569 2.13 3.933-1.382 2.953-3.053 5.696-5.495 7.936-1.434 1.315-2.73 2.78-4.063 4.203-2.542 2.71-5.485 4.8-8.801 6.536-3.813 1.996-7.187 4.897-11.095 6.634-10.16 4.514-20.443 8.785-31.778 9.487-7.214.447-14.458.735-21.616 1.658-7.595.979-15.096-.068-22.637-.185-2.404-.037-4.575-.742-6.482-2.503-1.971-1.82-4.32-3.234-6.503-4.825 2.343 3.742 5.146 6.943 9.584 8.263zm12.474-65.899c.712.782 1.34 1.337 1.807 2.004 4.852 6.924 11.55 9.186 19.725 8.064 4.43-.608 8.75-1.5 12.641-3.775 4.205-2.458 8.038-5.431 10.765-9.522 1.959-2.937 2.783-6.336 2.622-9.876-.23-5.059.006-10.158-1.463-15.113-1.498-5.05-3.656-9.886-7.192-13.668-2.902-3.104-6.939-5.346-11.299-5.751-4.925-.458-9.946-.416-14.887-.06-5.853.423-10.391 4.051-14.977 7.293-1.752 1.238-3.212 2.887-4.814 4.338-4.075 3.689-5.33 8.266-4.19 13.546.52 2.416 1.29 4.78 1.768 7.204.229 1.156.04 2.395.04 4.114-2.13-1.528-2.136-3.409-2.636-4.94-1.432-4.383-1.527-8.93-.935-13.463.594-4.545 3.282-7.923 6.715-10.68 3.112-2.497 6.359-4.842 9.677-7.059 1.198-.8 2.778-1.03 4.182-1.528 7.23-2.56 14.677-2.375 22.032-1.117 3.541.605 7.15 2.022 10.19 3.929 2.14 1.342 3.686 3.962 4.95 6.307 2.977 5.527 5.606 11.253 5.896 17.688.19 4.209.545 8.457.16 12.626-.24 2.584-1.278 5.355-2.736 7.517-5.36 7.95-12.757 13.085-22.31 14.898-3.942.749-7.863 1.362-11.895.65-3.782-.667-7.283-1.84-10.037-4.676-1.401-1.443-2.903-2.799-4.203-4.326-1.236-1.452-.784-2.938.404-4.624zm.84-.465l2.39-2.21c.405.104.662.096.808.219 1.395 1.181 2.834 2.32 4.14 3.596 3.192 3.116 7.152 3.837 11.365 3.738 1.615-.037 3.223-.347 4.838-.463 2.01-.144 3.797-.75 5.282-2.17.46-.44.995-.833 1.56-1.125 7.303-3.767 9.735-10.383 10.089-17.94.296-6.325-1.083-12.465-4.088-18.063-.974-1.813-2.668-3.427-4.389-4.616-5.754-3.973-12.248-3.819-18.746-2.609-3.176.592-6.282 1.626-9.37 2.614-8.603 2.755-11.154 12.2-9.28 19.338.412 1.565 1.017 3.08 1.473 4.635.3 1.025.73 2.186-.709 2.738-1.15.441-1.854-.25-2.14-2-.07-.42.056-.969-.168-1.253-3.44-4.366-.581-8.918-.368-13.369.071-1.469.762-2.917 1.225-4.357.88-2.734 2.978-4.581 5.247-5.943 5.883-3.531 12.258-5.896 19.16-6.405 7.391-.544 13.93 1.916 19.335 6.794 1.79 1.616 2.893 4.317 3.607 6.73 1.281 4.33 2.665 8.788 2.867 13.244.388 8.573-1.932 16.332-9.642 21.416-3.496 2.305-6.62 5.485-11.063 5.839-3.639.29-7.39.59-10.951.014-3.247-.525-6.069-2.567-8.442-5.035-1.1-1.143-2.445-2.052-4.03-3.357zm-62.85 16.938c-.985-.683-2.203-1.182-2.914-2.081-2.872-3.63-5.985-7.119-7.171-11.82-.358-1.42-1.397-2.653-1.982-4.033-1.386-3.269-2.69-6.573-4.021-9.864-1.043-2.577-1.77-5.34-3.179-7.697-3.307-5.531-2.414-11.043-.362-16.548 1.846-4.954 3.965-9.808 6.038-14.674 1.324-3.105 3.154-5.863 5.598-8.264 3.721-3.654 6.702-7.747 8.495-12.821 1.123-3.177 3.308-6.03 5.276-8.846 2.725-3.9 6.18-7.163 9.667-10.39 1.159-1.072 1.9-2.598 2.817-3.927a146.3 146.3 0 0 0 2.346-3.49c.934-1.443 1.989-1.339 3.286-.342-2.645 5.305-5.394 10.326-9.914 14.301-5.097 4.482-8.966 9.938-11.093 16.51a20.78 20.78 0 0 1-5.736 8.934c-5.017 4.613-8.082 10.316-10.286 16.636-1.067 3.062-2.373 6.042-3.61 9.043-1.754 4.25-1.666 8.354.476 12.509 1.232 2.39 1.976 5.024 3.027 7.513 2.478 5.87 4.85 11.793 7.583 17.544 1.377 2.898 3.49 5.44 5.171 8.202.56.917.814 2.02 1.207 3.038l-.718.567zm62.48-32.324c-1.348-2.103-2.489-4.394-2.58-6.937-.075-2.119.42-4.267.756-6.388.37-2.333 2.276-3.684 3.822-5.072 5.484-4.919 11.798-6.951 19.155-4.89 2.675.75 5.539.92 7.85 2.678 1.534 1.167 3.364 2.17 4.43 3.69 3.42 4.88 5.569 10.192 4.658 16.404-.709 4.835-2.447 9.15-5.468 12.986-3.26 4.14-7.797 5.646-12.747 6.288-1.497.194-3.025.16-4.539.198-4.413.112-7.033-2.858-9.652-5.737-.885-.972-.752-2.168.298-3.623.93.728 1.985 1.274 2.65 2.124 2.586 3.303 6.05 4.53 9.981 3.864 2.03-.345 4.079-.28 6.196-1.309 3.86-1.874 5.993-4.913 7.63-8.44 1.85-3.99 2.952-8.413 1.6-12.632-1.053-3.287-2.854-6.717-5.283-9.108-7.57-7.45-20.12-6.916-26.896 1.115-1.428 1.693-2.164 3.46-1.768 5.65.384 2.128.83 4.247 1.143 6.385.123.84-.04 1.722-.072 2.585l-1.164.17zm135.706 52.287c-.392.593-.602.97-.866 1.304-3.628 4.57-7.208 9.179-10.922 13.678-1.78 2.155-3.567 4.443-5.791 6.069-5.69 4.16-11.186 8.494-16.141 13.533-4.657 4.735-9.82 8.755-16.166 11.166-2.695 1.023-5.07 2.868-7.654 4.218-.945.493-2.075.633-3.645 1.085.796-3.319 3.045-4.556 4.94-5.892a26.515 26.515 0 0 1 6.318-3.252c5.073-1.806 8.737-5.527 12.693-8.863 1.974-1.664 3.771-3.539 5.748-5.2 4.045-3.398 8.373-6.491 12.175-10.137 3.252-3.118 5.972-6.8 8.852-10.294 1.852-2.247 3.49-4.67 5.367-6.895 1.82-2.156 1.98-2.099 5.092-.52zm-127.104-43.3l2.026-1.612c.953.76 1.87 1.349 2.611 2.109 2.872 2.941 7.619 3.42 10.266.467 1.816-2.026 3.35-4.606 4.122-7.202 1.386-4.671.358-9.073-2.793-13.018-3.773-4.723-8.304-6.417-14.214-5.021-3.234.764-4.837 3.124-5.921 5.91-.308.791.037 1.894.25 2.817.334 1.44.81 2.847 1.193 4.158-1.091 1.299-1.927 1.223-2.798.154-1.385-1.701-1.94-3.614-1.34-5.734 1.388-4.895 5.46-9.407 11.285-9.532 4.726-.1 9.085.939 12.58 3.776 2.201 1.788 4.118 4.711 4.776 7.457 1.583 6.6-.04 12.764-5.188 17.469-2.864 2.618-6.605 3.454-10.302 2.198-2.407-.817-5.376-1.262-6.553-4.396zm20.065-144.11c-1.403-.094-2.666-.174-3.927-.265-4.303-.31-8.603-.732-12.911-.875-1.452-.049-3 .427-4.378.978-2.607 1.042-5.122 2.312-8.322 3.785.504-1.176.602-1.723.92-2.067.43-.466 1.066-.733 1.55-1.158 7.74-6.77 16.44-4.83 25.151-2.783.96.226 1.93.473 1.917 2.385zm-17.92 132.429l.062.08v.005l-.063-.085zm.43-3.405c.815-2.181 5.725-3.672 7.641-2.349.744.514 1.438 1.403 1.697 2.26.71 2.35-.427 4.218-2.058 5.788-1.489 1.433-3.43 1.698-5.117.807-1.073-.568-1.71-1.96-2.53-3.02.104-1.17-.03-2.427.366-3.486zm-.435 3.4l.004.005-.004-.005zm2.822-4.071c.264 1.3.262 2.492.783 3.376.287.488 1.454.457 2.224.66.157-.757.583-1.58.414-2.255-.31-1.239-1.317-1.853-3.421-1.781z"/></g></g></svg>