<svg xmlns="http://www.w3.org/2000/svg" width="373" height="353" viewBox="0 0 373 353"><g><g><path fill="#e8a250" d="M344.527 173.522c1.976.591 3.894 1.378 5.951 2.117-.567 1.892-1.24 3.4-1.427 4.965-.192 1.613.104 3.282.16 4.926.074 2.148-.734 3.923-2.42 5.24-1.92 1.496-3.035 3.49-4.081 5.645-.619 1.276-1.758 2.548-2.99 3.232-4.232 2.348-6.945 5.428-6.778 10.605.047 1.448-.582 2.993-1.186 4.369-1.241 2.824-1.462 5.468-.352 8.505.985 2.697 1.063 5.72 1.595 8.589.294 1.588.284 3.444 1.139 4.673 1.711 2.46 1.302 4.583-.02 6.886-1.697 2.956-3.32 5.955-5.035 8.9-.863 1.482-1.542 2.836-.453 4.575.977 1.56.135 2.96-.968 4.126-1.952 2.066-4.126 3.793-6.814 4.903-3.47 1.433-6.842 3.098-10.266 4.64-.962.431-1.932.963-2.95 1.13-4.057.664-8.12 1.353-12.21 1.725-2.07.188-4.218-.156-6.296-.48-2.625-.408-5.1-.331-7.596.762-1.118.49-2.52.58-3.763.484-2.457-.19-4.826-.43-7.339.091-1.359.282-3.572-.399-4.44-1.443-3.697-4.448-7.7-2.738-11.78-1.08-1.74.706-3.39 1.637-5.135 2.331-2.32.924-4.583.752-6.766-.578-3.403-2.074-7.092-3.737-9.426-7.236-.471-.707-1.372-1.128-2.515-2.028.114 1.098.155 1.632.228 2.161.274 1.971-.668 3.2-2.47 3.71-2.677.757-4.955 2.009-6.78 4.19-.611.729-1.864.882-2.727 1.446-1.44.942-3.361 1.707-4.084 3.074-1.78 3.366-4.367 5.816-7.376 7.901-1.754 1.215-2.606 2.627-2.144 4.76.098.449-.05.947.026 1.404 1.092 6.584-1.39 11.42-7.034 14.85-1.846 1.121-2.541 3.112-2.532 5.184.015 3.015-1.116 5.133-3.856 6.562-2.055 1.071-3.314 2.863-3.672 5.297-.374 2.547-1.876 4.401-3.814 6.135-2.064 1.846-3.697 4.172-5.534 6.276-1.16 1.328-2.294 2.684-3.53 3.939-4.02 4.085-7.161 4.631-12.629 2.46-.617-.245-1.774-.092-2.218.346-3.14 3.098-7.545 3.775-11.132 5.987-.389.24-.891.489-1.313.448-3.014-.29-5.785.213-8.464 1.766-1.466.85-2.946-.117-4.232-1.018-1.25-.876-2.444-1.85-3.772-2.584-1.245-.689-2.69-1.177-3.994-.146-2.802 2.217-5.147.827-7.24-1.014-2.645-2.324-5.14-4.832-7.574-7.381-1.572-1.646-3.107-3.2-5.485-3.584-1.612-.262-2.529-1.274-2.506-2.92.078-5.635-2.66-10.658-3.488-16.112-.34-2.233-1.696-4.312-2.635-6.569-3.307.015-6.036-.879-8.709-3.067-2.217-1.813-5.372-2.509-8.595-1.477-4.577 1.464-8.624-.349-12.164-3.002-2.214-1.66-4.331-3.126-7.108-3.632-1.23-.223-2.372-.976-3.529-1.538-2.645-1.287-5.236-2.705-8.34-2.503-.556.036-1.301-.04-1.673-.378-2.67-2.43-6.004-3.94-8.299-6.986-2.45-3.252-5.67-5.931-8.615-8.797-.465-.452-1.263-.823-1.891-.801-2.634.091-3.71-1.57-4.548-3.66a743.794 743.794 0 0 0-4.527-11.059c-1.601-3.817-3.395-7.523-6.616-10.303-1.484-1.28-2.435-2.836-2.703-4.805-.41-3.014-1.69-5.554-3.898-7.717-.757-.741-1.32-2.013-1.374-3.073-.144-2.801.178-5.623.058-8.427-.165-3.863-.365-7.748-.974-11.555-.214-1.338-1.541-2.617-2.608-3.672-1.699-1.68-1.994-3.551-1.661-5.803.463-3.136.673-6.262 2.251-9.178.67-1.238.607-2.964.58-4.463-.043-2.276.118-4.416 1.271-6.477.55-.983.777-2.23.859-3.377.214-3.002 1.94-4.617 4.596-5.577 1.733-.627 3.421-1.379 5.835-2.362l-6.308-4.448c.114-2.275 1.466-3.386 2.808-4.548 3.182-2.758 6.348-5.537 9.456-8.376.665-.608 1.041-1.526 1.586-2.275.811-1.116 1.51-2.37 2.522-3.269 1.161-1.03 2.289-1.81 2.378-3.643.039-.81 1.08-1.741 1.885-2.306 1.428-1.003 3.022-1.77 4.69-2.715-.906-3.265.822-4.713 3.564-5.317a65.502 65.502 0 0 1 5.843-.997c1.395-.176 2.827-.06 4.224-.232 2.4-.295 4.266-1.408 4.874-3.921.672-2.779 2.55-4.428 5-5.547 2.37-1.082 4.48-2.293 5.98-4.662.869-1.372 2.65-2.261 4.168-3.099 1.847-1.018 3.87-1.708 5.774-2.631.833-.404 1.81-.866 2.285-1.589 1.915-2.913 4.527-5.051 7.242-7.136 2.337-1.795 2.827-4.14 1.856-6.924-1.089-3.125-2.116-6.242-.149-9.52.426-.709.106-2.115-.282-3.023-1.566-3.661-1.994-7.464-1.856-11.39.074-2.119-.426-3.93-1.784-5.795-1.24-1.706-1.61-4.102-2.145-6.248-.567-2.276-.897-4.614-1.286-6.931-.114-.684-.226-1.425-.084-2.085.757-3.536 2.017-7.024 2.286-10.59.273-3.617 2.178-6.143 3.74-9.123 1.846-3.52 4.153-5.839 7.711-7.21.636-.245 1.374-.615 1.724-1.15 3.42-5.242 9.136-7.56 13.946-11.02.832-.597 1.917-.95 2.938-1.15 1.648-.324 2.934-.937 4.223-2.171 2.172-2.08 5.196-2.025 8.019-1.887 1.485.073 2.752-.005 3.964-.949.632-.492 1.438-.948 2.211-1.04 2.38-.286 5.022.174 7.112-.715 2.272-.966 4.474-1.237 6.796-1.38 2.406-.15 4.68.245 6.693 1.712 4.162 3.03 9.176 4.176 13.803 6.177 3.986 1.725 8.004 3.376 12.004 5.067.541.23 1.056.7 1.596.722 3.553.138 6.993.676 10.152 2.43 3.168-1.074 6.239.118 9.33.479 1.196.14 2.509.642 3.45 1.384 5.402 4.26 11.287 7.842 17.718 10.034 4.038 1.376 8.52 2.561 13.03 1.323.436-.12.944-.167 1.379-.07 2.937.653 5.75 1.721 8.937.764.985-.296 2.6.872 3.68 1.692 1.447 1.097 2.83 1.257 4.596 1.009 5.66-.797 10.524-3.12 14.727-6.946 3.27-2.977 3.667-2.973 7.113-.266.366.288.742.563 1.372 1.04.408-.766.911-1.386 1.078-2.085.407-1.714.68-3.46.97-5.2.467-2.81 1.05-5.542 3.239-7.65.565-.544 1.048-1.355 1.198-2.116.726-3.71 2.9-6.586 5.158-9.441.507-.641.912-1.366 1.335-2.07.242-.402.311-1.019.651-1.234 3.13-1.976 6.204-4.081 9.498-5.744 2.137-1.077 4.56-.656 6.893.061 1.168.359 2.63.594 3.715.205 1.95-.699 3.646-.265 5.498.162 1.924.443 3.941.818 5.891.717 1.956-.1 3.368.645 4.097 2.14 2.191 4.496 6.14 5.572 10.543 5.644 2.424.04 4.394.715 5.826 2.625.735.981 1.594 2.104 1.738 3.245.363 2.886 1.734 5.043 3.837 6.913 2.808 2.496 5.614 5.002 8.274 7.652.617.614.964 1.854.883 2.758-.458 5.137-.974 10.276-1.698 15.382-.368 2.596-.978 5.103.55 7.521.974 1.543-.216 2.678-.824 3.883-1.209 2.396-2.506 4.745-3.74 7.129-1.375 2.658-1.13 5.155.594 7.634.924 1.328 1.74 2.813 2.202 4.347.243.812-.09 2.13-.66 2.796-3.244 3.798-3.674 6.747-.795 10.688 1.42 1.944 2.892 3.635 2.584 6.263-.063.535.509 1.35 1.017 1.715 2.786 2.001 3.06 4.533 1.821 7.484-.164.393-.181.847-.344 1.66 4.49-1.484 6.972.41 8.341 4.283.111.313.37.73.641.806 2.491.692 2.954 2.864 3.43 4.874.782 3.299 2.578 5.47 6.462 5.865-.52 3.498-.995 6.598-1.436 9.703-.364 2.558-.626 5.132-1.053 7.68-.25 1.49-.536 3.032-1.155 4.393-1.14 2.51-.809 4.67.63 6.963 2.046 3.26 1.784 4.151-1.446 6.226-2.075 1.334-4.251 2.507-6.345 3.812-.787.49-1.554 1.069-2.182 1.744-1.99 2.141-3.889 4.365-5.861 6.522-1.652 1.807-3.705 2.06-5.802 1.034-4.43-2.169-9.275-2.53-14.003-3.41-.372-.07-.77-.003-1.162.035 3.984 1.123 7.98 2.208 11.945 3.394zm-18.585-3.923l.005.82 6.201-.34a12.622 12.622 0 0 0-6.206-.48zm30.115-52.144l.078.118.178.229-.163-.287a9.101 9.101 0 0 1-.093-.06zm2.138 3.663c.152-.105.304-.21.456-.317l-2.338-3 1.882 3.317zm-5.297-8.455l-.582.445c.911 1.716 2.049 3.25 3.741 4.347l-3.159-4.792zM281.512 41.28c4.182.041 8.135 1.196 12.024 2.505 7.696 2.59 14.443 6.819 20.356 12.371 4.458 4.186 8.765 8.544 13.367 12.564 3.7 3.233 6.58 7.027 8.958 11.242 3.234 5.735 6.443 11.486 9.496 17.317 1.049 2.005 2.405 3.988 2.554 6.446-2.371-.054-2.498-.133-3.321-1.848-.966-2.011-1.855-4.064-2.922-6.02-2.647-4.853-5.206-9.768-8.13-14.451-2.169-3.473-4.52-6.956-7.387-9.84-5.298-5.332-11.069-10.191-16.578-15.316-5.016-4.666-11.08-7.495-17.302-10.043-1.222-.5-2.604-.608-3.912-.897 11.641 4.867 20.776 12.932 29.066 22.006 4.586 5.02 8.753 10.433 12.966 15.78a145.36 145.36 0 0 1 7.4 10.3c3.157 4.82 6.086 9.789 9.155 14.667.466.74 1.158 1.335 1.77 2.025 3.687-4.27 3.507-5.652-.718-9.623-.34-1.83-.113-3.827-.985-4.63-1.826-1.68-2.16-3.83-2.974-5.868-1.203-3.009-.944-5.745 1.375-8.138 1.487-1.534 1.479-3.058.136-4.696-.516-.628-.82-1.426-1.273-2.113-1.39-2.111-1.753-4.292-.722-6.688 1.065-2.47 2.006-4.994 3.03-7.483.872-2.117 2.327-4.102.952-6.599-.285-.515.031-1.38.114-2.08.578-4.887 1.125-9.778 1.768-14.657.424-3.225.081-6.055-2.984-7.985-.768-.484-1.464-1.268-1.891-2.074-1.843-3.478-5.652-3.759-8.46-5.644 2.732 3.284 5.618 6.35 8.396 9.511 2.432 2.767 2.454 4.49.343 7.414.473 1.685.98 3.37 1.414 5.073.524 2.064 1.14 4.137-.858 5.892-.34.3-.398 1.065-.38 1.607.099 2.879.33 5.755.35 8.633.005.6-.682 1.203-1.245 2.124-.796-1.06-1.345-1.653-1.74-2.335-4.373-7.57-10.162-13.746-17.529-18.525-6.229-4.04-12.482-7.94-19.451-10.654-6.601-2.57-13.253-4.073-20.346-2.776-1.411.258-2.736.518-3.495 2.428 5.736-.638 11.088-.228 16.201 1.83 2.507 1.007 5.046 1.99 7.419 3.265 4.756 2.554 9.605 5.011 14.05 8.045 5.04 3.442 9.614 7.56 14.519 11.213 3.19 2.377 5.608 5.311 7.477 8.762.278.513.737 1.063.707 1.572-.035.59-.398 1.304-.854 1.67-.23.186-1.113-.139-1.464-.478-.49-.473-.767-1.17-1.117-1.782-1.775-3.106-4.054-5.704-7.009-7.8-3.45-2.449-6.818-5.036-10.038-7.78-9.249-7.878-19.907-12.89-31.67-15.518-3.634-.812-7.468-1.028-10.87 1.467-.808.593-2.114.505-3.33.759-.235 2.184-1.483 4.294-.837 6.856l3.425-1.522c1.001.19 2.001.51 3.004.52zM6.65 199.107l.067-.093a80.208 80.208 0 0 1-.02-.116l-.058.097.011.112zm.838-1.588c.978-3.384 1.87-6.794 2.876-10.17.163-.547.76-.965 1.328-1.65 1.028 1.71.384 3.045.032 4.326-1.252 4.555-2.235 9.146-1.821 13.905.234 2.69.66 5.363.935 8.05 1.176 11.515 4.99 22.222 10.178 32.454 2.12 4.18 4.628 8.184 7.235 12.084 2.02 3.024 4.414 5.804 6.746 8.607a37.18 37.18 0 0 0 4.153 4.274c3.538 3.077 7.155 6.066 10.774 9.049 1.356 1.117 2.712 2.288 4.232 3.142 5.424 3.05 10.92 5.972 16.386 8.947 1.34.73 2.676 1.469 4.007 2.215 2.448 1.374 4.784 3.017 7.361 4.077 4.44 1.825 9.027 3.292 13.555 4.905 1.08.385 2.616.543 2.15 2.16-.365 1.264-1.669 1.054-2.73.798-2.737-.66-5.465-1.355-8.203-2.012-.815-.196-1.648-.315-2.473-.468l-.154.743c1.07.308 2.18.523 3.201.947 1.821.755 3.735 1.422 5.346 2.516 2.45 1.663 3.583 1.858 5.995.183.578-.402 1.066-.971 1.69-1.263 5.882-2.741 10.423-7.195 14.844-11.75 1.769-1.821 3.128-4.041 4.723-6.146-.62-.542-.94-.87-1.306-1.134-5.616-4.073-11.376-7.963-16.82-12.252-5.75-4.528-12.214-7.53-19.094-9.625-8.078-2.46-15.018-6.615-20.936-12.587-3.145-3.172-6.234-6.417-9.565-9.386-3.902-3.478-6.512-7.65-8.107-12.588-1.263-3.913-2.9-7.708-4.113-11.634-1.938-6.278-4.019-12.547-5.361-18.96-1.078-5.15-1.244-10.506-1.646-15.782-.618-8.098.2-15.984 4.01-23.336 1.925-3.71 3.87-7.41 5.925-11.345-5.573 3.865-9.018 9.047-11.303 15.086-1.124 2.971-1.986 6.049-3.241 8.96-2.589 6-2.51 12.128-1.27 18.357.482 2.422.975 4.845 1.572 7.24 1.905 7.645 3.539 15.384 7.093 22.504 2.364 4.736 4.889 9.393 7.214 14.149 1.131 2.314 1.795 4.86 2.97 7.15 3.908 7.617 10.143 13.176 16.728 18.372 1.466 1.156 3.188 1.986 4.784 2.98 3.483 2.166 6.876 4.499 10.462 6.478 5.037 2.78 10.327 4.994 15.695 7.128 5.967 2.373 11.481 5.893 17.16 8.973.657.356 1.107 1.095 1.644 1.648-1.048 1.875-2.25 2.128-3.913 1.197-4.918-2.755-9.818-5.552-14.836-8.118-3.022-1.544-6.402-2.415-9.357-4.063-7.575-4.224-15.476-7.821-22.489-13.128-5.793-4.383-10.933-9.288-15.354-14.95-1.782-2.281-3.315-4.978-4.145-7.73-1.348-4.47-3.883-8.292-5.784-12.448-2.392-5.23-4.963-10.418-6.814-15.844-1.968-5.765-3.297-11.761-4.697-17.705-1.3-5.523-1.874-11.135-1.052-16.816.101-.697 0-1.424-.006-2.136-2.052 4.048-3.118 8.167-3.512 12.566-.706 7.862.702 15.159 4.327 22.153 1.616 3.12 2.779 6.475 4.106 9.74 2.124 5.221 3.86 10.635 6.4 15.642 3.667 7.226 7.788 14.232 11.964 21.181 1.552 2.583 3.647 4.901 5.777 7.06 4.807 4.871 10.973 7.636 17.096 10.377 8.575 3.84 17.27 7.42 25.802 11.351 4.26 1.963 8.298 4.418 12.368 6.77.525.302 1.046 1.51.837 1.955-.257.546-1.255.835-1.988 1.028-.38.1-.913-.179-1.316-.399-2.061-1.126-4.064-2.366-6.158-3.427-5.868-2.971-11.718-5.985-17.672-8.777-7.342-3.442-14.893-6.453-22.145-10.07-6.415-3.2-11.705-7.852-15.22-14.283-3.265-5.976-6.461-11.994-9.902-17.868-3.716-6.342-6.189-13.182-8.65-20.05-.949-2.65-1.88-5.352-3.228-7.805-4.107-7.468-5.616-15.419-4.861-23.832.29-3.23.838-6.438 1.316-10.013-2.466.939-4.696 1.924-7.012 2.628-2.302.698-3.682 1.917-3.734 4.453-.016.796-.193 1.71-.619 2.358-2.093 3.186-1.761 6.6-1.18 10.063.283-.454.647-.885.79-1.38zm.765 19.358c-.148-1.945-.255-3.646-.412-5.341-.385-4.144-.792-8.287-1.19-12.43-4.632 6.412-4.113 13.572 1.602 17.77zm313.694-50.597l.005.087.12-.06-.104-.027h-.021zm4.037 1.02c4.888.65 9.79 1.197 14.688 1.776.777.092 1.559.15 2.539.244.645-3.32 1.201-6.43 1.86-9.52 2.578-12.09 2.54-24.17-1.441-35.88-2.9-8.529-6.088-16.978-11.367-24.548-6.813-9.77-13.644-19.523-22.659-27.36-6.812-5.923-14.161-11.242-21.406-16.65-9.125-6.81-19.487-9.052-30.699-7.694-.562.069-1.096.368-2.274.779 6.12 1.697 11.51 3.336 16.975 4.665a43.833 43.833 0 0 1 12.608 5.25c8.64 5.287 16.604 11.504 24.445 17.894 3.385 2.759 6.605 5.624 9.326 9.072 7.035 8.92 12.581 18.75 17.563 28.893 1.9 3.87 3.583 7.929 3.708 12.423.111 3.986.127 8.014.729 11.94 1.412 9.209-.58 18.02-2.623 26.85-.144.624-.804 1.13-1.387 1.906-1.494-1.81-.715-3.281-.43-4.702 1.112-5.53 2.573-11.022 2.222-16.733a993.741 993.741 0 0 0-1.433-20.048c-.103-1.258-.697-2.471-1.022-3.716-2.11-8.08-6.445-15.156-10.497-22.288-4.421-7.78-9.65-15.075-16.777-20.738-4.965-3.945-10.12-7.668-14.914-11.81-8.442-7.294-18.491-11.034-29.04-13.783-2.119-.551-4.296-.877-6.737-1.365.349.47.431.697.588.777 7.943 4.088 16.197 7.67 23.774 12.349 13.162 8.125 25.006 17.875 34.358 30.463 7.543 10.154 13.428 20.846 15.591 33.553 1.928 11.321 2.176 22.445-.82 33.56-.303 1.123-.263 3.1-2.114 2.563-1.548-.45-.522-1.991-.377-3.072.715-5.342 2.867-10.468 2.383-15.99-.33-3.748-.546-7.508-.974-11.244-1.153-10.05-4.03-19.602-9.17-28.326-7.88-13.378-18.797-24.032-31.03-33.38-7.318-5.593-15.553-9.702-23.735-13.854-2.448-1.243-4.994-2.291-7.495-3.427.77 1.223 1.86 1.839 2.896 2.536 5.257 3.539 10.69 6.855 15.693 10.724 4.544 3.515 8.524 7.749 12.914 11.476 7.92 6.72 15.252 13.968 21.26 22.486 2.1 2.974 4.28 5.891 6.367 8.875 4.47 6.39 6.738 13.746 8.516 21.166 1.025 4.276 1.283 8.873 1.035 13.278-.275 4.9-1.537 9.742-2.328 14.617-.351 2.164-1.164 3.981-3.2 5.02 1.301.347 2.586.818 3.91.994zm-4.201-4.34c.77-4.395 1.782-8.75 2.519-13.151.404-2.419.743-4.92.586-7.35-.784-12.15-4.8-23.199-11.982-33.028-2.772-3.792-6.044-7.224-8.757-11.055-3.24-4.572-7.236-8.329-11.448-11.931-4.558-3.9-9.2-7.717-13.553-11.837-10.78-10.205-23.573-17.02-37.083-22.772-7.862-3.347-16.257-4.647-24.439-6.684-16.156-4.024-32.588-6.154-49.311-5.55-4.284.154-8.48.645-12.454 2.179-4.716 1.82-9.46 3.66-13.938 5.982A160.707 160.707 0 0 0 113.7 66.389c-1.027.845-2.235 1.472-3.352 2.195-1.308-1.554-.836-2.455.229-3.301 2.575-2.047 5.012-4.29 7.718-6.144 8.437-5.776 17.1-11.2 26.403-15.505 5.661-2.618 11.41-4.964 17.655-5.94 6.324-.99 12.652-.862 18.998-.57 3.782.174 7.564.375 11.346.565-4.124-1.654-8.275-3.392-12.525-3.682-16.068-1.095-31.84-.285-46.908 6.76-12.11 5.663-21.113 14.24-27.864 25.523-.373.624-.989 1.103-1.563 1.727-1.775-1.584-1.068-2.933-.304-4.3 3.372-6.04 8.199-10.86 13.14-15.568 7.158-6.822 16.078-10.47 25.173-13.763 1.316-.477 2.699-.861 4.083-1.045 6.409-.849 12.83-1.604 19.243-2.417.556-.07 1.091-.31 1.637-.47-3.443-.924-6.817-1.38-10.19-1.371-8.839.027-17.653.425-26.064 3.63-6.104 2.326-11.572 5.737-16.787 9.624-7.702 5.74-14.037 12.507-17.03 21.9-.305.955-.54 2.1-2.122 2.056-.99-3.068-.065-5.94 1.45-8.36 3.62-5.781 7.461-11.44 13.228-15.435 2.702-1.873 5.214-4.025 7.934-5.87 5.696-3.865 11.928-6.659 18.617-8.222 7.243-1.692 14.642-1.958 22.064-1.644 1.181.05 2.372-.124 3.558-.193l.008-.81c-.99-.244-1.968-.553-2.97-.723-2.436-.416-4.893-.71-7.322-1.16-4.098-.758-8.161-.655-12.288-.089-6.938.954-13.486 3.287-20.04 5.518-4.953 1.686-9.281 4.662-12.58 8.814-4.246 5.34-8.447 10.726-12.429 16.265-2.78 3.866-3.86 8.224-2.26 12.8 14.994 1.432 28.712 6.612 41.867 11.748 3.654-1.778 6.85-3.504 10.178-4.92 8.512-3.624 16.5-8.513 25.764-10.333 5.41-1.063 10.729-2.587 16.104-3.837 1.014-.236 2.11-.291 3.15-.21 4.338.337 8.685.634 12.999 1.182 5.13.652 10.41.967 15.3 2.479 6.588 2.036 13.026 4.598 19.344 7.536 11.936 5.553 23.017 12.287 32.817 21.051 6.898 6.168 12.284 13.623 17.102 21.462 5.077 8.26 8.896 17.114 11.63 26.417 2.675 9.106 4.352 18.321 2.595 27.852-.076.415.048.868.134 2.071 1.468-1.245 3.103-1.943 3.34-2.963.678-2.933 1.852-5.84 1.214-9.01-.533-2.648-.699-5.368-1.17-8.031-1.56-8.829-3.63-17.495-7.964-25.475-2.02-3.72-3.805-7.568-5.687-11.362-3.832-7.726-8.267-15.11-14.248-21.335-5.535-5.764-11.281-11.477-18.781-14.726-12.185-5.279-23.958-11.516-36.825-15.22-7.693-2.212-15.253-4.81-23.282-5.61-9.944-.993-19.738-.735-29.19 3.008a48.943 48.943 0 0 1-4.687 1.561c-10.983 3.117-21.068 8.005-30.015 15.15-.93.742-2.043 1.784-3.024.578-1.056-1.299.096-2.364 1.134-3.216.18-.15.397-.255.581-.4 5.114-4.03 10.823-7.104 16.754-9.64 5.497-2.35 11.3-3.971 16.898-6.1 7.454-2.835 15.076-4.377 23.094-4.082 8.627.318 17.111 1.362 25.35 4.029 4.366 1.412 8.763 2.741 13.08 4.293 4.755 1.71 9.467 3.549 14.134 5.485 3.685 1.53 7.253 3.34 10.909 4.941 5.502 2.412 10.937 4.903 15.508 8.946 2.595 2.296 5.325 4.438 7.994 6.65-.652-1.635-1.666-2.905-2.723-4.138-4.117-4.8-9.337-8.215-14.588-11.593-8.529-5.487-17.32-10.515-26.954-13.777-5.338-1.808-10.878-3.03-16.343-4.455-11.594-3.02-23.37-4.3-35.324-3.212-11.744 1.07-22.886 4.19-32.983 10.482-5.092 3.172-10.099 6.482-15.179 9.674-1.888 1.186-3.834 2.3-5.845 3.255-.552.262-1.436-.173-2.167-.288.257-.806.278-1.884.823-2.357.952-.827 2.215-1.303 3.37-1.883 1.05-.528 2.19-.9 3.183-1.514 5.588-3.456 11.13-6.985 16.713-10.45 7.922-4.917 16.632-7.705 25.799-8.908 13.17-1.729 26.259-1.257 39.17 2.234 7.034 1.903 14.3 3.115 21.136 5.551 9.09 3.238 17.49 8.067 25.623 13.3 6.251 4.022 12.26 8.31 17.137 14.015 4.129 4.83 8.334 9.594 12.489 14.402 1.92 2.222 4.03 4.324 5.65 6.75 3.202 4.792 6.27 9.687 9.13 14.69 5.685 9.943 9.46 20.51 9.438 32.135-.009 4.91-.262 9.819-.418 15.214h9.124c-.079-1.11-.35-2.255-.164-3.32zM109.839 320.712l.026.052.07.035a11.451 11.451 0 0 1-.042-.11 8.577 8.577 0 0 0-.054.023zm8.654 7.203c5.356 1.737 10.87 3.006 16.183 4.86 9.445 3.296 19.012 2.373 28.614 1.336.759-.082 1.49-.422 2.233-.642-2.622-.536-5.159-.334-7.688-.394-14.988-.358-29.434-3.12-42.96-9.865-1.64-.819-3.292-1.608-4.94-2.411 1.54 3.933 4.818 5.902 8.558 7.116zm-8.938-7.784c-.468-.917-1.407-2.055-.125-2.724.641-.335 1.93.248 2.775.697 1.647.875 3.102 2.134 4.785 2.91 10.885 5.023 22.37 7.858 34.269 9.008 2.971.288 5.988.104 8.984.137-.937-.823-1.92-1.084-2.918-1.26-6.485-1.147-12.994-2.175-19.452-3.457-2.745-.545-5.467-1.416-8.057-2.484-3.907-1.61-7.713-3.472-11.515-5.323a57.452 57.452 0 0 1-5.826-3.293c-.382-.245-.335-1.16-.486-1.766.53-.102 1.055-.241 1.59-.287.203-.018.425.179.64.276 5.785 2.613 11.619 5.126 17.338 7.878 3.23 1.554 6.569 2.446 10.086 2.947 5.46.778 10.895 1.745 16.355 2.53 3.489.502 6.995 1.018 10.509 1.169 3.768.16 7.284-.791 9.943-3.792-1.062-.028-2.078.102-3.015.448-3.844 1.418-7.867 1.872-11.828 1.261-5.906-.911-11.812-2.032-17.577-3.588-7.962-2.15-15.494-5.524-22.91-9.128-2.007-.976-4.105-1.765-6.156-2.653-.933-.404-1.85-1.112-1.216-2.096.327-.508 1.703-.777 2.39-.538 2.21.77 4.327 1.81 6.467 2.773 10.724 4.826 21.377 9.84 33.211 11.464 2.441.335 4.84 1.064 7.287 1.261 4.197.337 8.147-.699 11.83-2.543-20.11-.07-37.628-8.237-55.123-16.682 1.33-2.516 1.503-2.645 3.452-1.79 3.01 1.322 6.008 2.68 8.963 4.121 11.173 5.452 22.841 9.152 35.213 10.8 5.082.678 9.593-.338 13.912-2.666 2.637-1.42 5.037-3.253 6.672-6.522-.922.39-1.361.539-1.767.752-5.566 2.92-11.564 3.686-17.753 3.793-9.014.157-16.896-3.844-25.07-6.687-5.094-1.77-9.972-4.167-14.93-6.32-1.505-.655-2.994-1.372-4.404-2.208-.353-.209-.611-1.07-.473-1.483.144-.426.784-.805 1.282-.955.394-.12.928.072 1.355.239 4.708 1.845 9.624 3.307 14.06 5.667 6.728 3.58 13.862 5.845 21.156 7.663 9.33 2.327 18.246 1.491 26.16-4.586 1.958-1.504 4.009-2.96 5.013-5.632-1.635.556-2.975.98-4.293 1.464-8.4 3.086-17.085 2.791-25.806 2.271-7.015-.418-13.602-2.69-20.29-4.522-3.856-1.055-7.663-2.296-11.474-3.51-1.168-.371-2.339-1.02-1.746-2.521.548-1.387 1.727-.821 2.732-.505 2.915.919 5.848 1.786 8.739 2.773 10.306 3.52 20.796 5.845 31.784 5.559 5.587-.146 11.014-1.09 16.262-2.852 2.596-.87 4.697-2.757 6.194-5.199-.952.244-1.733.75-2.566 1.15-4.509 2.164-9.234 3.616-14.267 3.477-3.874-.106-7.763-.41-11.602-.939-10.033-1.383-19.956-3.337-29.651-6.332-1.348-.417-2.748-.683-4.063-1.177-.996-.375-2.154-1.063-1.382-2.305.326-.525 1.647-.814 2.381-.64 3.887.917 7.758 1.924 11.584 3.069 10.088 3.018 20.484 4.214 30.897 5.265a21.802 21.802 0 0 0 10.72-1.618c3.476-1.465 6.899-3.048 9.774-5.58a62.22 62.22 0 0 0-6.824 1.707c-5.162 1.607-10.438 1.812-15.723 1.075-7.683-1.071-15.394-2.082-22.98-3.66-4.32-.898-8.43-2.835-12.603-4.388-1.043-.388-1.891-1.2-1.146-2.469.76-1.293 1.595-.647 2.65-.146 2.635 1.252 5.322 2.488 8.116 3.28 3.384.962 6.882 1.564 10.362 2.136 5.45.896 10.913 1.733 16.394 2.399 2.547.309 5.2.502 7.715.13 3.708-.549 7.378-1.5 10.982-2.562 2.962-.873 5.938-1.923 7.873-4.313-4.377.793-8.837 1.792-13.352 2.374-6.422.827-12.867.966-19.312-.101-8.546-1.415-16.419-4.954-24.578-7.587-.666-.215-1.299-.566-1.902-.929-.871-.523-1.606-1.332-.87-2.269.342-.437 1.502-.61 2.118-.396 4.664 1.611 9.263 3.412 13.924 5.031 6.335 2.202 12.701 3.685 19.573 3.876 11.987.333 23-2.595 33.636-7.642.823-.39 1.453-1.186 2.172-1.793-1.248-.206-2.143.05-3.053.23-4.037.798-8.053 2.053-12.122 2.264-9.735.506-19.498.443-29.245.752-7.683.243-14.425-2.975-21.376-5.47-.433-.155-.873-.4-1.202-.716-.859-.825-1.118-1.723-.054-2.795.682.232 1.349.41 1.976.68 6.28 2.697 12.664 5.097 19.582 5.35 5.518.2 11.064.385 16.568.07 7.605-.433 15.295-.288 22.735-2.4 2.369-.672 4.726-1.518 7.148-1.84 3.508-.468 6.431-2.155 9.437-3.758a218.748 218.748 0 0 1 6.521-3.37c1.158-.568 2.516-.802 3.559-1.516 5.045-3.454 10.1-6.906 14.991-10.572 7.642-5.73 14.505-12.287 20.719-19.577 7.81-9.162 15.306-18.47 19.76-29.846.809-2.065 1.912-4.066 3.174-5.892 2.383-3.447 3.995-7.177 4.901-11.245.179-.8.272-1.694.707-2.34.315-.468 1.19-.897 1.706-.794.476.096.925.875 1.154 1.446.147.366-.119.902-.215 1.36-.854 4.078-2.528 7.802-4.702 11.348-1.657 2.704-3.146 5.513-4.643 8.311-2.274 4.252-4.09 8.812-6.823 12.738-4.158 5.972-8.898 11.54-13.464 17.222-1.765 2.196-3.578 4.392-5.626 6.312-10.726 10.057-22.21 19.136-35.02 26.796.256.34.515.872.933 1.206 3.552 2.832 7.148 5.61 10.699 8.445 1.448 1.156 2.902 1.243 4.61.583 3.26-1.263 6.759-2.037 9.822-3.652 3.207-1.691 5.357-.083 7.717 1.397.889.558 1.586 1.432 2.494 1.944.663.375 1.67.747 2.277.504 2.008-.806 3.921-.276 5.906-.104 1.478.13 3.143.156 4.466-.395 2.751-1.147 5.433-1.307 8.27-.613 1.022.25 2.092.379 3.146.422 3.85.159 7.8.522 9.892-3.87.139-.292.522-.464.784-.699 3.41-3.058 6.78-6.164 10.241-9.162 3.076-2.664 5.276-5.973 7.31-9.425 2.627-4.461 5.113-8.96 6.434-14.055.489-1.886.955-4.283 3.696-4.367.02-4.138-2.343-7.167-3.983-11.124l-1.276 3.569c2.792 1.003 2.976 1.086 2.577 3.133-.492 2.528-.838 5.213-1.976 7.462-2.65 5.236-5.523 10.387-8.713 15.31-2.548 3.932-5.648 7.515-8.59 11.184-3.86 4.81-8.897 7.987-14.617 10.125-.773.29-1.654.291-2.488.426-.465-2.315 1.002-2.433 2.19-2.872 5.295-1.959 9.687-5.162 13.387-9.435 6.436-7.433 11.575-15.682 15.838-24.509 1.07-2.215 1.345-4.576 1.289-7.049-.574.453-.938.98-1.213 1.552-1.787 3.708-3.14 7.706-5.42 11.079-3.811 5.638-7.92 11.135-12.425 16.229-8.334 9.42-18.48 15.583-31.564 15.613-1.376.004-2.75.188-4.292-1.272l6.433-1.717c-2.133-.057-4.27-.073-6.398-.2-1.371-.082-3.115.111-4.005-.636-1.306-1.098-2.47-1.057-3.88-.888-.922.112-2.048.46-2.75.082-1.593-.857-2.913-.353-4.371.165-1.55.55-3.164.914-4.726 1.432-1.517.504-2.983.604-4.361-.317-.599-.4-1.117-.919-1.672-1.384.588-.473 1.13-1.025 1.772-1.405 2.722-1.609 5.54-3.065 8.198-4.77 3.46-2.217 6.798-4.625 10.2-6.936 1.458-.99 3.085-1.78 4.397-2.933 5.56-4.889 11.125-9.78 16.498-14.87 3.06-2.9 5.586-6.363 8.646-9.263 8.796-8.337 14.594-18.678 19.718-29.412 2.474-5.184 4.153-10.745 6.223-16.123.376-.977.807-1.966 1.411-2.806.243-.338 1.05-.447 1.547-.36.316.055.708.64.759 1.03.09.676.103 1.445-.132 2.07-1.897 5.065-3.722 10.165-5.828 15.146-7.98 18.871-21.688 33.429-36.123 47.375-7.206 6.963-15.15 13.029-23.87 18.034-.6.345-1.047.959-1.566 1.447 6.006-1.821 11.338-4.593 16.381-8.165 5.403-3.825 10.576-7.833 15.08-12.674 6.403-6.881 12.928-13.66 19.08-20.762a117.818 117.818 0 0 0 10.494-14.127c2.626-4.152 4.463-8.8 6.667-13.22 2.128-4.265 3.677-8.663 3.24-13.542-.03-.346-.08-.806.104-1.031.473-.582 1.071-1.06 1.62-1.58.47.567 1.373 1.159 1.34 1.692-.192 3.03-.326 6.115-1.033 9.047-.597 2.476-1.93 4.778-2.967 7.144-4.913 11.2-11.512 21.276-19.922 30.18-4.684 4.959-9.335 9.958-13.795 15.117a84.83 84.83 0 0 1-18.892 16.297c-2.812 1.782-5.513 3.739-8.264 5.615 5.248-1.007 10.559-2.16 14.848-5.185 4.864-3.43 9.39-7.486 13.505-11.802a176.908 176.908 0 0 0 20.722-26.281c3.814-5.92 8.063-11.585 11.532-17.697 3.926-6.92 8.135-13.814 9.34-21.936.188-1.27.735-2.424 2.245-2.057 1.412.342 1.158 1.658.861 2.65-.906 3.03-1.683 6.134-2.946 9.018-4.547 10.393-10.577 19.933-17.194 29.118-1.72 2.386-3.36 4.83-5.022 7.257-7.274 10.622-15.556 20.383-25.156 28.97-3.416 3.055-7.144 5.737-11.57 7.305-2.375.84-4.64 1.993-6.953 3.005 1.938.441 3.772.371 5.608.318 5.257-.15 9.937-2.117 14.02-5.188 8.492-6.386 14.581-14.957 20.387-23.68 3.768-5.66 6.764-11.857 10.752-17.343 5.347-7.359 9.917-15.083 13.718-23.324 2.311-5.011 4.923-9.884 7.393-14.823.469-.937.852-2.273 2.19-1.703 1.54.656.855 1.912.308 2.99-.16.315-.27.654-.426.97-2.072 4.225-4.161 8.441-6.216 12.674-.621 1.28-1.49 2.52-1.241 4.812 1.877-1.59 3.863-2.511 4.55-4.023 1.167-2.57 3.044-4.41 4.745-6.49.85-1.04 1.582-2.391 1.792-3.694.424-2.639.457-5.34.644-7.922-5.893-5.203-34.83-7.617-48.429-3.753-.549 1.093-1.098 2.264-1.713 3.4-4.37 8.063-8.563 16.215-13.93 23.716-3.828 5.35-7.338 10.947-10.701 16.605-2.852 4.799-6.14 9.18-10.21 12.986-5.844 5.462-11.567 11.06-17.569 16.343-3.692 3.25-7.551 6.464-11.791 8.9-6.887 3.957-14.669 5.674-22.394 7.27-10.076 2.08-20.301 2.38-30.56 2.317-8.555-.053-16.851-1.462-24.983-4.02-.447-.141-1.056-.179-1.295-.49-.441-.576-.664-1.32-.978-1.992.587-.245 1.18-.704 1.757-.683.796.028 1.572.444 2.368.65 3.184.823 6.337 1.826 9.566 2.405 11.8 2.114 23.644 1.513 35.473.202 6.207-.687 12.14-2.622 18.188-4.028 8.702-2.025 15.904-6.117 22.302-12.098 4.292-4.012 8.707-7.893 13.108-11.786 4.86-4.299 9.422-8.863 12.958-14.347 3.947-6.12 7.869-12.254 11.767-18.404 2.95-4.652 5.932-9.287 8.733-14.028 1.85-3.132 3.514-6.387 5.053-9.685 1.279-2.742 2.53-5.551 3.309-8.461 2.192-8.19 1.118-16.4-.818-24.433-3.58-14.851-10.282-28.311-19.626-40.345-3.36-4.327-7.465-8.133-11.538-11.837-9.595-8.726-20.944-14.775-32.575-20.213-13.745-6.426-28.52-8.678-43.515-9.707-1.152-.079-2.365.087-3.49.373a3060.091 3060.091 0 0 0-23.891 6.18c-.79.208-1.545.568-2.287.919a3725.494 3725.494 0 0 0-18.488 8.777c-1.203.577-2.579 1.001-3.45 2.829l6.704 2.354c.945.66 1.86 1.37 2.844 1.966 4.319 2.62 8.702 5.138 12.975 7.83 2.766 1.743 5.382 3.725 8.04 5.582.984-.755 1.861-1.91 2.967-2.202 9.104-2.406 18.312-4.342 27.796-4.027 5.427.179 10.778 1.074 15.784 3.348 9.578 4.35 18.358 9.898 26.355 16.799 7.21 6.221 13.539 13.224 18.162 21.436 6.526 11.594 8.738 24.273 6.755 37.512-1.209 8.065-4.69 15.275-9.248 21.937a35.577 35.577 0 0 1-5.819 6.545c-3.172 2.792-6.635 5.258-10.011 7.813-5.063 3.831-9.93 7.99-15.303 11.325-5.472 3.397-11.424 6.034-17.228 8.877-4.563 2.234-9.338 3.965-14.477 4.136-11.694.39-23.215-.464-34.439-4.269-6.628-2.246-13.007-4.741-18.41-9.352-1.408-1.202-3.139-2.064-4.806-2.916-9.248-4.729-17.043-10.839-20.489-21.173-1.486-4.458-3.49-8.82-4.333-13.395-1.126-6.103-1.674-12.36-1.885-18.571-.302-8.915 1.09-17.627 5.497-25.554 1.937-3.482 4.218-6.792 6.544-10.036 2.748-3.835 5.8-7.396 10.116-9.653 7.596-3.974 15.145-8.038 22.724-12.046.828-.437 1.695-.906 2.595-1.062.609-.104 1.308.315 2.716.71-1.478.939-2.205 1.476-2.996 1.892-7.498 3.948-14.986 7.915-22.522 11.788-3.527 1.813-6.517 4.199-8.818 7.424-2.254 3.16-4.535 6.304-6.697 9.527-4.113 6.132-6.042 13.086-6.403 20.308-.62 12.439.55 24.713 5.624 36.307 1.36 3.106 2.444 6.562 4.594 9.044 4.386 5.064 9.442 9.48 15.805 12.176 2.233.947 4.16 2.63 6.2 4.015 1.263.855 2.37 2.028 3.735 2.63a237.776 237.776 0 0 0 12.379 5.03c6.542 2.455 13.295 3.897 20.33 3.796 1.054-.016 2.11.194 3.168.228 5.516.18 10.971.399 16.431-1.226 6.03-1.794 11.496-4.749 17.104-7.402 3.706-1.752 7.338-3.832 10.613-6.284 6.963-5.213 13.683-10.75 20.474-16.19 1.28-1.027 2.59-2.09 3.606-3.362 6.89-8.623 10.57-18.473 11.231-29.503.38-6.331-.834-12.387-2.454-18.443-1.476-5.519-3.647-10.701-6.941-15.35-7.512-10.604-16.96-19.206-27.897-26.137-8.817-5.589-18.006-10.42-28.886-10.085-4.338.135-8.675.632-12.989 1.158-5.012.612-9.725 2.305-14.66 4.298l12.215 13.28c3.744-.615 6.954-1.544 10.178-1.6 9.513-.16 18.222 3.046 26.663 7.09.523.252 1.033.593 1.448.997 3.28 3.19 6.722 6.24 9.746 9.66 3.265 3.69 6.296 7.62 9.118 11.66 2.335 3.344 5.136 6.472 6.103 10.639.505 2.175 1.04 4.358 1.774 6.463 2.15 6.168 1.27 12.015-1.452 17.795-3.208 6.812-7.145 12.949-13.734 17.066-2.684 1.677-5.013 3.916-7.659 5.663-2.927 1.933-5.938 3.787-9.082 5.332-5.38 2.644-10.814 5.21-16.373 7.441-3.561 1.43-7.364 3-11.097 3.103-8.48.232-16.408-2.687-24.14-5.96a241.942 241.942 0 0 1-9.314-4.174c-3.284-1.558-6.922-2.722-9.692-4.947-8.37-6.724-13.365-15.652-15.41-26.198-.29-1.495-.556-3.03-.542-4.543.106-11.456 3.548-21.841 11.058-30.505 5.869-6.771 13.026-12.207 20.608-16.98 2.566-1.615 5.426-2.817 8.258-3.938 1.61-.636 3.436-1.632 5.703.2-.97.6-1.629 1.13-2.377 1.447-2.594 1.102-5.295 1.976-7.818 3.215-8.365 4.111-15.182 10.315-21.619 16.859-6.227 6.33-9.352 14.432-10.6 23.05-1.548 10.704 1.806 20.317 8.557 28.57 2.856 3.49 5.889 7.115 10.289 8.946 8.02 3.338 16.003 6.779 24.122 9.86 7.91 3.002 15.866 3.053 23.635-.801 3.255-1.616 6.578-3.091 9.862-4.646 5.084-2.41 10.56-4.047 14.972-7.776 2.515-2.126 4.993-4.344 7.736-6.14 4.782-3.13 8.029-7.349 10.59-12.409 3.27-6.457 4.745-12.841 2.453-20.018-1.693-5.303-3.336-10.482-7.02-14.835-3.871-4.572-7.321-9.514-11.36-13.925-2.91-3.179-6.19-6.226-9.833-8.48-5.33-3.298-11.404-5.013-17.667-5.772-4.704-.57-9.36-.565-13.985 1.947 1.495 3.208 3.036 6.35 4.427 9.56.975 2.248 1.99 4.53 2.528 6.902.418 1.84.458 3.958-1.842 5.313-.602-.655-1.207-1.186-1.657-1.826a554.62 554.62 0 0 1-5.57-8.099c-.724-1.07-1.535-2.118-2.04-3.29-2.475-5.732-6.754-10.146-10.697-14.801-.805-.95-1.894-1.66-2.552-2.224-2.074 1.331-3.762 2.604-5.613 3.56-3.343 1.726-6.888 3.076-10.16 4.918-6.764 3.806-13.654 7.527-18.648 13.716-2.879 3.567-5.51 7.333-8.246 11.014-3.72 5.004-5.28 10.7-5.427 16.86-.214 8.963.457 17.852 1.63 26.742 1.111 8.414 6.038 14.235 12.501 18.802 7.812 5.522 16.753 8.993 25.618 12.455 4.812 1.879 9.807 3.287 14.72 4.908 4.957 1.636 9.895 2.1 15.227 1.706 10.95-.809 20.55-4.88 29.56-10.59 8.236-5.219 16.187-10.888 24.23-16.405 4.88-3.347 8.62-7.589 10.353-13.414.704-2.363 1.627-4.666 2.529-6.966 3.692-9.42 3.934-18.857-.333-28.102-2.459-5.326-5.35-10.465-8.291-15.547-1.216-2.101-2.953-3.948-4.663-5.706-2.78-2.86-5.743-5.54-8.609-8.317-4.415-4.278-9.224-8.026-14.654-10.942-10.723-5.76-21.93-8.396-34.007-5.153-2.04.549-4.026 1.3-6.03 1.98-1.152.392-2.523.801-3.104-.512-.653-1.473.724-1.983 1.863-2.4.11-.04.216-.095.327-.134 9.67-3.328 19.479-4.065 29.423-1.405 2.035.545 3.959 1.49 5.966 2.154 5.775 1.91 10.89 4.942 15.49 8.898 2.938 2.527 6.073 4.843 8.859 7.524 3.708 3.567 7.4 7.204 10.668 11.165 4.299 5.212 6.846 11.528 9.592 17.615 3.528 7.82 4.54 16.098 1.958 24.463-1.526 4.94-3.35 9.802-5.26 14.613-1.902 4.797-4.93 8.84-9.217 11.8-6.775 4.679-13.676 9.178-20.387 13.944-11.753 8.347-24.623 13.673-39.052 14.966-1.037.093-2.135.053-3.146-.18-5.15-1.19-10.378-2.166-15.396-3.783-5.81-1.873-11.36-4.538-17.147-6.492-7.449-2.515-14.285-6.188-20.413-10.958-6.04-4.702-10.549-10.605-11.76-18.609-1.396-9.22-1.867-18.473-1.623-27.762.146-5.56.91-11.042 4.246-15.794 3.041-4.332 5.9-8.803 9.135-12.983 2-2.583 4.274-5.128 6.912-7.006 6.51-4.633 13.146-9.126 20.635-12.142 1.962-.79 3.853-1.763 5.741-2.72.668-.34 1.232-.883 2.172-1.575l-9.3-7.05c-1.185.996-1.948 1.918-2.927 2.417-7.333 3.735-14.736 7.33-22.062 11.078-8.802 4.503-15.211 11.463-19.488 20.248-5.161 10.602-7.02 21.905-5.89 33.652.336 3.505.897 6.992 1.454 10.472.371 2.318.936 4.604 1.38 6.91.914 4.756 1.914 9.49 4.767 13.549 3.04 4.326 6.228 8.548 9.201 12.917 1.662 2.441 3.891 4.04 6.453 5.314 4.629 2.302 9.16 4.833 13.904 6.866 8.078 3.46 15.66 8.174 24.413 9.963 5.87 1.2 11.733 2.228 17.78 2.489 8.526.368 16.343-3.183 24.662-3.76 1.125-.079 2.273-.66 3.297-1.217 3.605-1.963 7.322-3.78 10.7-6.086 7.477-5.105 15.003-10.183 22.09-15.798 11.828-9.37 20.7-20.817 23.143-36.274 1.95-12.337 1.925-24.396-4.819-35.555-.363-.601-.615-1.27-.905-1.915-3.81-8.461-8.673-16.156-15.981-22.089-3.922-3.184-7.853-6.357-11.728-9.598-10.215-8.543-22.234-12.795-35.255-13.87-7.941-.658-15.984.089-23.8 2.079-3.301.84-6.556 1.862-9.868 2.652-.581.14-1.34-.467-2.018-.73.294-.677.416-1.569.925-1.977.597-.477 1.528-.542 2.319-.769 7.49-2.148 15.152-3.22 22.905-3.825 4.58-.358 9.12-.616 13.681.297 11.495 2.304 22.68 5.307 31.925 13.09a61.38 61.38 0 0 0 4.47 3.442c6.633 4.613 12.154 10.364 17.165 16.644 3.927 4.921 6.293 10.717 9.24 16.204 3.724 6.938 5.406 14.272 5.804 21.985.404 7.836-.52 15.68-3.162 22.953-4.524 12.455-12.802 22.396-23.352 30.361-4.315 3.257-8.877 6.188-13.34 9.247-4.942 3.387-9.857 6.816-14.866 10.103-3.695 2.426-7.797 3.736-12.235 4.185-2.671.27-5.355.836-7.923 1.628-3.992 1.233-8.068 1.926-12.17 1.532-7.008-.673-14.001-1.587-20.952-2.703-2.626-.42-5.35-1.293-7.62-2.646-3.977-2.367-8.26-3.896-12.453-5.726-6.346-2.77-12.52-5.959-18.641-9.208-1.915-1.016-3.588-2.65-5.076-4.272-2.06-2.246-3.963-4.663-5.718-7.158-3.924-5.58-7.89-11.148-8.857-18.206-.382-2.792-1.047-5.551-1.69-8.3-3.2-13.69-3.072-27.143 1.45-40.665 4.589-13.724 13.154-23.677 25.893-30.204 6.694-3.43 13.457-6.725 20.18-10.098.291-.146.494-.466.737-.703-8.066-8.631-48.508-21.81-58.642-21.585l-.553 3.358c1.316-.576 2.644-1.619 3.176-1.306 1.673.983.214 2.173-.286 3.263-.49 1.07-1.053 2.12-1.408 3.235-.627 1.965-1.381 3.937-.737 6.188.95-1.156 1.578-2.448 2.251-3.717 1.152-2.174 2.28-4.364 3.529-6.482.465-.79 1.354-1.718 2.249-.829.417.413.182 1.674-.034 2.475-.173.64-.815 1.139-1.162 1.75-.903 1.589-1.758 3.205-2.632 4.81 3.165-2.264 5.994-4.665 8.845-7.04.538-.448 1.128-1.014 1.762-1.12.68-.116 1.442.248 2.168.403-.172.623-.178 1.387-.558 1.832-.516.604-1.323.958-1.999 1.43-4.38 3.056-7.766 7.02-10.573 11.552 1.543-.831 2.924-1.843 4.261-2.91 4.041-3.227 8.038-6.509 12.113-9.692 1.053-.823 2.29-1.812 4.063-.05-7.95 6.236-16.317 11.841-22.587 19.746 1.94-1.144 3.682-2.517 5.481-3.811 1.813-1.303 3.674-2.542 5.532-3.782 1.957-1.304 3.884-2.666 5.92-3.836a50.426 50.426 0 0 1 5.999-2.95c1.889-.771 3.32-3.044 6.478-1.857-1.023.958-1.65 1.754-2.456 2.262-2.091 1.314-4.251 2.52-6.402 3.737-7.491 4.237-14.838 8.703-20.873 14.94-3.102 3.204-5.66 6.962-8.913 9.988-4.325 4.025-6.823 8.986-8.455 14.431-1.552 5.176-2.779 10.456-3.971 15.73-1.789 7.914-1.123 15.901-.407 23.872.051.574.292 1.136.49 1.688 1.828 5.099 3.757 10.133 6.666 14.766 1.554 2.475 2.764 5.185 3.949 7.868 4.217 9.558 7.816 19.405 14.612 27.636 4.519 5.473 9.24 10.643 15.379 14.336 6.66 4.009 13.664 7.3 20.898 10.138 2.017.79 3.906 1.91 5.93 2.916-1.866 2.264-2.58 2.55-4.617 1.593-5.745-2.697-11.459-5.464-17.175-8.224-5.636-2.724-10.84-6.12-15.354-10.461-8.24-7.924-14.51-17.161-18.74-27.842-2.376-6.005-5.272-11.806-7.982-17.677-1.773-3.84-3.849-7.559-5.376-11.493-.96-2.47-1.39-5.218-1.633-7.88-.276-3.033.026-6.114-.109-9.166-.495-11.157 2.32-21.665 6.186-31.964.872-2.32 1.98-4.553 2.98-6.825-2.004 2.077-3.578 4.386-5.14 6.705-3.05 4.53-5.216 9.48-6.643 14.727-1.11 4.086-2.032 8.227-2.933 12.367-1.03 4.741-1.627 9.552-.718 14.368 1.59 8.424 2.773 16.988 6.826 24.724 3.984 7.603 7.818 15.304 12.226 22.656 2.638 4.4 5.74 8.783 9.529 12.175 8.653 7.75 17.519 15.391 28.866 19.19.99.33 1.9.917 2.822 1.43a847.656 847.656 0 0 1 10.124 5.698c.56.322.994.864 1.48 1.298-1.991 2.407-2.076 2.4-4.356 1.145-5.87-3.227-11.77-6.403-17.633-9.644-3.07-1.698-6.243-3.269-9.089-5.291-4.404-3.13-8.903-6.252-12.753-10.002-5.635-5.488-10.568-11.578-14.205-18.732-5.377-10.578-11.726-20.659-14.19-32.54-1.314-6.332-3.313-12.54-2.434-19.113.497-3.719 1.19-7.412 1.847-11.109.574-3.237 1.22-6.461 1.834-9.693-4.979 6.418-7.02 13.655-7.054 21.51-.022 5.521.069 11.047-.15 16.56-.215 5.394.4 10.66 2.664 15.51 3.478 7.454 7.083 14.875 11.118 22.036 8.16 14.484 20.673 24.335 35.551 31.056 9.06 4.092 17.308 9.39 25.598 14.704.688.442 1.021 1.438 1.5 2.194.59-.706 1.248-1.368 1.749-2.132a664.963 664.963 0 0 0 6.87-10.676c2.81-4.476 5.71-8.916 6.88-14.188.248-1.117.635-2.124 2.018-1.943 1.414.186 2.147 1.34 1.929 2.527-.653 3.563-1.124 7.26-2.484 10.57-1.96 4.766-4.554 9.283-7.03 13.823-4.057 7.44-8.914 14.359-13.749 21.315-6.878 9.896-14.26 19.298-23.643 26.927-2.037 1.657-2.6 3.438-2.44 5.753a23.12 23.12 0 0 0 .443 3.143c.721 3.435 1.53 6.852 2.217 10.293.245 1.227.523 2.257 1.916 2.631 2.412.648 3.875 2.533 5.5 4.244 2.347 2.47 4.794 4.844 7.234 7.223.897.874 1.98 1.404 3.158.52 2.489-1.864 4.96-.928 7.343.099 1.385.597 2.543 1.705 3.907 2.372.738.36 1.909.662 2.509.325 2.051-1.155 4.227-1.27 6.464-1.459 1.117-.094 2.206-.658 3.279-1.082a32.24 32.24 0 0 0 2.865-1.315c2.283-1.17 4.675-2.186 6.789-3.61 2.526-1.705 3.757-1.876 6.363-.474 1.049.564 2.358.844 3.56.882 2.013.064 3.418-1.15 4.792-2.574 3.739-3.875 6.503-8.595 10.743-12.05 1.777-1.448 2.263-3.677 2.123-6.573-1.619 1.367-2.815 2.46-4.095 3.442-2.952 2.266-4.553 5.892-7.899 7.757-2.133 1.189-4.1 2.866-6.376 3.56-3.345 1.019-6.9 1.34-10.36 1.989-1.376.258-2.737.593-4.105.893l2.038 1.608c-.782.582-1.517 1.59-2.354 1.682-10.531 1.176-20.916.939-30.725-3.81-2.858-1.383-5.733-2.732-8.583-4.132-.977-.48-2.047-1.14-1.345-2.411.766-1.388 1.86-.935 2.99-.218 6.14 3.9 12.994 6.149 19.988 7.67 5.156 1.12 10.525.609 15.77-.33-2.189-.266-4.383-.49-6.564-.808-2.415-.352-4.844-.674-7.219-1.217-2.728-.624-5.428-1.403-8.098-2.248-4.566-1.443-9.203-2.742-13.603-4.591-2.397-1.008-4.613-2.782-6.464-4.652-1.812-1.831-1.232-3.325 1.132-4.345-.094-.194-.185-.39-.283-.582zm166.195-52.977l.232.006.19-.049a9.218 9.218 0 0 0-.174-.023l-.248.066zm2.616.203c8.506-.456 14.912-5.23 21.112-10.38 5.59-4.644 9.377-10.812 13.67-16.53 4.356-5.799 6.622-12.678 9.307-19.32.18-.443.082-.997.114-1.5-2.066 1.977-3.654 4.128-4.954 6.44-5.382 9.564-11.626 18.513-18.82 26.798-2.934 3.377-6.046 6.469-9.869 8.967-3.982 2.604-8.263 4.111-12.754 5.279.732.103 1.47.285 2.194.246zm-143.96-1.055l-.034.04-.089.133c.052-.039.104-.079.156-.121a4.6 4.6 0 0 1-.033-.052zm-4.462.02a274.242 274.242 0 0 0-10.967-7.05c-3.212-1.953-6.534-3.723-9.812-5.566-6.34-3.563-12.944-6.734-18.966-10.773-8.604-5.77-15.499-13.435-20.612-22.437-4.058-7.145-7.651-14.58-11.033-22.076-2.433-5.392-3.495-11.157-2.935-17.208.4-4.311.576-8.705.225-13.011-.732-8.98 1.08-17.24 5.573-25.032 1.992-3.456 3.554-7.16 5.312-10.752-1.308.702-2.318 1.55-3.005 2.61-2.882 4.435-5.737 8.892-8.468 13.42-2.754 4.569-3.827 9.534-3.314 14.893.256 2.68.112 5.403.1 8.106-.035 7.407-.128 14.813-.138 22.22-.018 13.308 6.247 23.885 14.85 33.313 4.194 4.595 8.728 8.889 13.229 13.192 2.458 2.351 4.918 4.863 7.809 6.572 12.95 7.656 26.056 15.046 39.095 22.552.458.264.794.74 1.366 1.29-.705.59-1.143 1.172-1.72 1.401-1.749.698-3.244-.263-4.635-1.082-4.05-2.387-8.022-4.906-12.044-7.342-7.644-4.63-15.3-9.238-22.952-13.854-3.752-2.263-7.054-5.035-10.015-8.285-2.922-3.207-5.94-6.355-9.17-9.245-7.913-7.083-13.286-15.832-16.845-25.678-2.563-7.087-1.957-14.625-1.996-22.013-.03-5.752.335-11.504.35-17.256.017-5.994-.44-12.023 2.362-17.637.05-.1-.177-.336-.377-.689-2.322 3.528-4.245 7.105-4.837 11.249-.632 4.421-1.283 8.846-1.716 13.29-.295 3.028-.5 6.112-.27 9.135.533 7.031 1.388 14.038 2.048 21.06.628 6.677 2.511 12.986 6.208 18.551 2.985 4.493 6.53 8.613 9.816 12.906 6.26 8.176 13.968 14.536 23.34 18.889 4.156 1.929 8.365 3.834 12.25 6.235 9.459 5.847 18.742 11.977 28.267 18.103l7.966-11.848c-1.45 1.082-2.812.876-4.339-.154zm-5.383 14.899c-1.677-.81-3.013-1.25-4.114-2.024-4.033-2.831-7.959-5.814-11.978-8.665-6.52-4.625-13.197-9-20.577-12.176-6.295-2.709-12.05-6.174-17.378-10.592C64 242.36 59.049 235.71 53.854 229.2c-7.093-8.889-10.503-19.02-10.784-30.336-.087-3.518-.692-7.02-.94-10.537-.305-4.327-1.238-8.785-.56-12.97 1.44-8.893.917-18.308 6.14-26.4-1.008.602-1.911 1.206-2.51 2.03-5.542 7.648-9.71 15.867-9.567 25.6.081 5.518.48 11.036.892 16.542.226 3.03.699 6.047 1.193 9.048 1.216 7.382 4.915 13.952 6.996 21.03 2.326 7.914 6 14.76 12.454 19.996.361.293.642.685.956 1.035 7.77 8.633 16.749 15.33 28.18 18.482 5.781 1.595 11.23 4.131 16.133 7.728 5.96 4.372 11.988 8.648 17.996 12.952.457.327.991.544 1.654.9l2.474-3.08zm227.152-110.892c-2.766-.618-2.342-2.4-2.128-4.055.782-6.048 1.823-12.073 2.33-18.145.498-5.962.795-11.98.562-17.951-.191-4.903-1.2-9.722-3.972-14.086-4.461-7.027-8.535-14.299-12.912-21.38-1.97-3.189-4.242-6.195-6.443-9.237-1.653-2.284-3.294-4.598-5.148-6.716-4.87-5.563-9.655-11.222-14.846-16.474-5.071-5.131-11.3-8.82-17.588-12.3-3.914-2.167-8.206-3.094-12.71-3.13.402.48.876.774 1.359 1.05 3.962 2.275 8.036 4.378 11.855 6.871 3.04 1.985 5.648 4.624 8.661 6.657 6.78 4.574 12.642 10.083 18.162 16.104 9.205 10.04 17.126 20.909 22.868 33.276a90.303 90.303 0 0 1 7.27 23.884c1.254 7.875.154 15.714-1.213 23.505-.705 4.017-1.276 8.057-1.896 12.013 1.965 1.09 3.465 2.067 5.79.114zM64.818 297.698l.155-.638c-3.682-2.061-7.518-3.892-11.011-6.234-5.847-3.92-11.815-7.751-16.44-13.206-3.796-4.479-7.545-8.998-11.298-13.513-.824-.992-1.77-1.952-2.313-3.093-.898-1.882-2.007-3.877-2.093-5.865-.07-1.631-.443-2.923-1.153-4.27-3.681-6.983-6.531-14.315-9.016-21.792-.915-2.755-1.648-5.57-2.632-8.929-.115 5.533-.296 10.392-.282 15.25.007 2.371.824 4.447 2.459 6.384 1.226 1.452 1.974 3.488 2.41 5.384.576 2.517 1.826 4.472 3.411 6.434 1.672 2.07 3.166 4.36 4.326 6.753 1.788 3.69 3.269 7.532 4.797 11.345 1.01 2.519 2.214 4.638 5.38 4.765.704.029 1.5.644 2.046 1.196 3.37 3.407 6.652 6.904 10.028 10.306 1.319 1.329 2.77 2.535 4.235 3.706.616.493 1.408 1.039 2.14 1.07 3.663.153 6.738 1.936 9.977 3.308 1.573.667 3.246 1.1 4.874 1.639zm118.707-171.183l.746-.487c-2.023-4.274-3.255-8.926-7.036-12.32-1.91-1.712-3.42-3.863-5.193-5.739-3.616-3.828-7.089-7.767-11.488-10.823-9.9-6.877-20.759-11.978-31.68-16.828-10.52-4.672-21.559-8.094-32.95-10.105-3.846-.679-7.584-.004-11.33 1.303.738 2.212 2.08 2.48 3.742 2.446 1.983-.039 3.998-.052 5.95.245 9.425 1.43 18.565 4.078 27.574 7.086 10.811 3.61 21.571 7.423 31.107 13.93 5.912 4.035 12.19 7.607 17.125 12.902 4.648 4.987 9.218 10.063 12.087 16.383.329.723.892 1.34 1.346 2.007zm-35.438-106.02l.18-.44c-1.465-.293-2.921-.765-4.398-.843-3.748-.198-7.513-.42-11.257-.272-9.709.382-18.466 3.596-25.803 9.977-7.256 6.311-12.887 13.958-17.083 22.646a24.353 24.353 0 0 0-2.451 9.843c-.025.688.284 1.388.438 2.083.528-.516.583-.955.628-1.396.393-3.811 1.598-7.181 4.197-10.192 3.75-4.346 7.333-8.869 10.627-13.57 3.717-5.303 8.49-9.164 14.507-11.252 5.636-1.956 11.404-3.623 17.224-4.925 4.305-.964 8.787-1.136 13.19-1.66zm136.026 76.232c3.128 5.512 6.333 10.982 9.367 16.544 5.821 10.672 10.936 21.608 12.85 33.795.966 6.143 2.77 12.207.82 18.47-.077.247.196.603.293.87 2.162.38 2.507-1.13 2.695-2.525.248-1.857.227-3.75.377-5.62.658-8.186-.227-16.203-2.635-24.047a66.533 66.533 0 0 0-8.289-17.471c-4.678-7.018-8.762-14.47-15.478-20.016zm-2.32-77.494l.553.247c2.13-2.128 4.363-4.163 6.368-6.402 6.071-6.78 14.785-7.54 21.905-4.95.516.188 1.297.569 1.355.95.312 2.07 2.02 2.21 3.424 2.42 3.83.574 7.081 2.355 10.296 4.35 2.077 1.29 4.297 2.349 6.453 3.512l.32-.487-3.538-3.637c3.967-1.12 5.472 2.55 8.242 3.019-.209-3.854-1.79-5.483-5.11-5.82-4.903-.499-9.506-1.583-12.128-6.528-.429-.81-1.825-1.33-2.865-1.543-2.036-.418-4.132-.545-6.208-.75-1.044-.104-2.196-.42-3.126-.113-2.972.976-5.746.45-8.617-.41-1.003-.3-2.762-.268-3.262.351-1.531 1.895-3.481 2.621-5.665 3.22-.723.197-1.465.846-1.898 1.49-2.031 3.018-3.98 6.092-5.9 9.182-.34.546-.407 1.262-.6 1.899zm-143.922-3.33c4.56.966 8.853 1.622 12.984 2.827 3.562 1.04 6.907 2.797 10.41 4.069 3.193 1.16 6.51 1.982 9.691 3.173 1.921.72 3.608 2.078 5.537 2.759 2.759.973 5.652 1.562 8.47 2.371 1.118.322 2.47.512 3.23 1.257 1.759 1.726 3.916 1.97 6.114 2.336 5.602.93 11.053 2.46 15.911 5.425 2.016 1.23 3.924 1.616 6.23 1.287-1.116-1.027-2.377-1.742-3.666-2.403-1.762-.904-3.622-1.64-5.301-2.674-2.798-1.722-5.348-3.89-8.253-5.38-3.69-1.892-7.606-3.732-11.789-.582-.64-.523-1.192-1.176-1.896-1.507-1.559-.734-3.2-1.852-4.796-1.832-3.585.045-6.647-1.201-9.709-2.735-1.889-.947-3.781-1.897-5.723-2.727-5.262-2.252-10.634-4.266-15.8-6.715-3.414-1.618-6.84-2.24-10.583-2.068l-1.06 3.118zm-23.968 5.044c-3.048-.317-3.212-.438-5.042.73-3.36 2.145-7.114 3.99-9.767 6.834-2.907 3.116-5.584 6.166-9.774 7.446-1.855 2.903-4.265 5.602-5.42 8.76-1.338 3.66-1.624 7.717-2.275 11.617-.571 3.422-.196 6.796.957 10.058.415 1.175.93 2.5 2.803 1.577-.02-.501.075-.997-.077-1.4-1.35-3.577-1.204-7.19.13-10.659 1.384-3.6 2.817-7.25 4.783-10.548 5.764-9.67 12.778-18.228 22.906-23.732.276-.15.485-.423.776-.683zm254.065 136.66c-.895-1.835-1.616-2.947-1.983-4.166-.358-1.192-.667-2.548-.457-3.736.713-4.017 1.836-7.965 2.475-11.991.565-3.554 2.178-6.988 1.48-10.9-3.068-.561-4.355-2.618-5.012-5.535-.466-2.068-1.039-4.329-3.77-5.037-.72-.187-1.182-1.595-1.643-2.503-.576-1.132-1.032-2.32-2.776-1.984.128.505.106.939.313 1.156 3.422 3.608 4.78 8.306 6.723 12.69.903 2.037 1.757 4.1 2.509 6.197.344.96.616 2.088-.65 2.74-2.506-.982-1.273-4.623-4.124-5.785.19.921.279 1.497.427 2.057 1.342 5.066 1.847 10.169.695 15.346-1.097 4.932-2.213 9.86-3.292 14.797-.122.558-.057 1.157-.078 1.737 1.45-1.63 2.803-2.48 4.942-2.656 1.41-.116 2.717-1.513 4.221-2.428zM286.145 21.943c3.426-.44 6.631-1.132 9.85-1.198 4.695-.097 9.132.96 13.664 2.626 12.48 4.586 23.325 11.386 32.323 21.157.29.315.666.55 1.003.824-.031-1.763-.289-3.469-1.18-4.725-1.753-2.47-3.526-5.119-5.877-6.937-9.674-7.482-20.398-13.03-32.436-15.564-6.135-1.29-12.118-.624-17.347 3.817zm56.74 13.247c-2.556-4.368-5.482-8.627-9.893-11.53-6.69-4.403-13.518-8.361-21.452-10.433-5.481-1.432-10.673-1.305-16.008-.123-2.368.524-4.456 1.644-6.231 3.312.423.21.756.24 1.046.144 5.37-1.785 10.791-2.005 16.323-.77 6.714 1.497 12.956 4.09 18.854 7.6 2.311 1.377 4.872 2.37 7.065 3.901 3.543 2.474 6.875 5.25 10.296 7.899zm9.277 133.839c2.102-.411 3.087-1.29 3.057-3.162-.011-.69.14-1.396.303-2.074 1.171-4.907 2.268-9.836 3.579-14.707 1.283-4.769 1.247-9.529.374-14.32-.813-4.467-2.169-8.754-4.542-12.717-.213 1.185-.09 2.305-.01 3.427.183 2.574.55 5.156.48 7.724-.296 10.695-.773 21.378-3.019 31.895-.258 1.207-.15 2.493-.222 3.934zm-338.873 2.362l7.227 4.833 2.357-4.903-2.942.643c.292-1.309.269-2.29.706-2.981 2.323-3.666 4.502-7.417 7.993-10.23 2.459-1.983 4.868-4.155 6.8-6.633 3.164-4.058 7.45-6.416 11.801-8.752.992-.533 2.159-.738 3.245-1.094-2.249-.364-4.32-.065-6.37-.177-2.181-.119-4.204.05-6.255 1.329.244 3.41-1.608 5.292-4.783 6.334-.808.265-1.584 1.324-1.916 2.193-.656 1.722-1.571 3.082-3.13 4.116-.839.555-1.441 1.48-2.114 2.268-1.21 1.417-2.418 2.837-3.582 4.293-2.37 2.963-5.16 5.446-8.311 7.55-.33.22-.458.746-.726 1.21zM293.38 23.85c19.322 3.897 34.958 14 48.463 28.081.042-1.02.015-1.985-.448-2.646-1.607-2.294-3.049-4.845-5.12-6.647-9.564-8.32-20.163-14.948-32.505-18.378-3.381-.94-6.889-1.032-10.39-.41zm-153.42 240.478c-2.265 2.975-4.871 5.754-6.728 8.966-4.139 7.162-9.267 13.59-14.11 20.243-4.034 5.545-9.052 9.808-15.092 12.977-3.023 1.586-3.215 2.521-1.602 5.869 7.912-2.795 32.586-36.315 37.532-48.055zm89.844-220.41c4.598 1.148 8.78 2.167 12.948 3.24 2.127.547 4.11.18 6.212-.37 6.35-1.661 12.753-3.125 19.409-1.842.75.145 1.572-.09 2.721-.176-.25-1.92-.176-3.731-.757-5.3-1.018-2.754-3.365-3.151-5.464-1.09-4.533 4.45-10.024 6.724-16.266 7.417-1.833.204-3.458.038-4.882-1.342-1.335-1.294-3.074-1.981-4.856-1.294-1.837.708-3.378.441-5.047-.385-1.161-.575-2.47-.92-4.018 1.143zM330.453 233.52c-5.893 11.157-.846 10.07-25.534 35.034 3.452.186 3.394.163 4.48-2.529.268-.662.983-1.199 1.595-1.657 3.78-2.834 7.293-5.924 9.853-9.96 2.125-3.35 4.243-6.702 6.35-10.03l2.525.805c.954-1.935 2.45-3.756 2.632-5.698.165-1.764-1.103-3.66-1.9-5.965zM89.835 102.942c1.08-1.718.737-3.324.742-4.903.009-2.67.138-5.34.205-8.011.02-.81-.019-1.62.004-2.43.075-2.668.144-5.336.261-8.002.039-.875.219-1.743.431-3.346l-5.027 1.995c-.46 3.45-.516 6.566.878 9.569 1.33 2.864 1.563 5.725.388 8.796-.906 2.365-.007 4.467 2.118 6.332zM39.15 273.796c5.926 8.906 25.676 21.766 33.767 21.656-12.124-6.649-24.174-12.266-33.768-21.656zm155.883 32.475c6.756-2.596 9.699-9.816 6.294-13.452-1.472 2.526-2.767 5.298-4.581 7.675-1.317 1.726-1.876 3.396-1.713 5.777zm120.476-41.526c3.297-.784 6.387-1.396 8.83-3.614 2.097-1.902 2.148-2.508.796-5.236-.288-.578-.376-1.256-.604-2.062-3.063 3.704-5.946 7.19-9.022 10.912zM53.748 139.992c.836-.967 1.3-1.603 1.863-2.137a131.8 131.8 0 0 1 4.368-3.989c1.574-1.363 3.236-2.625 4.8-4 1.226-1.08 2.248-2.421 3.56-3.37 2.294-1.657 4.742-3.103 7.63-4.963-3.275.83-5.902 1.848-8.338 3.343-.58.357-1.222.844-1.497 1.43-1.244 2.65-3.487 3.904-6.039 5.034-1.513.67-2.974 1.88-3.956 3.217-1.036 1.41-1.473 3.26-2.39 5.435zm26.864 161.906c-3.798-1.267-7.625-2.255-11.975-3.173 2.085 3.128 6.46 5.662 9.041 5.57 1.436-.05 2.448-.668 2.934-2.397zm135.256-28.752c4.512-.93 7.408-4.676 11.986-6.19l-1.731-2.665-10.255 8.855zm-23.059 36.058c-.362.58-1.07 1.186-1.027 1.733.178 2.28-1.269 3.683-2.483 5.242-.453.582-.887 1.18-1.491 1.984 5.662-.893 4.865-5.213 5.001-8.959zm20.297-34.057c-1.494 1.097-2.966 2.225-4.487 3.284-1.424.991-1.45 2.093-.596 3.564 2.832-1.538 3.906-4.187 5.083-6.848zm106.927-105.508l.077-.747c-4.367-.638-8.712-.74-12.99 1.035l12.913-.288zm9.813 39.186l-4.331 5.644 2.087 2.082c.98-2.513 3.174-4.173 2.244-7.726zM115.95 20.13l7.517-2.402c-4.874-1.468-6.117-1.089-7.517 2.402zm19.009-3.839c-4.138-2.288-5.413-2.137-7.704.738l7.704-.738zm92.167 26.895c-3.27-1.622-6.082-1.852-7.86-.587 2.622.68 5.049 2.176 7.86.587zm49.538-11.606l.77.5c.841-.48 1.684-.957 3.15-1.79-1.267-.547-2.39-1.325-2.665-1.093-.637.535-.863 1.558-1.255 2.383zm-105.73 83.134c-1.343.615-2.212 1.096-3.136 1.425-9.964 3.548-19.052 8.38-26.505 16.183-4.92 5.153-9.14 10.603-12.518 16.917-4.285 8.006-4.928 16.326-3.802 25.008.992 7.65 3.844 14.28 9.284 20.098 5.133 5.49 10.337 10.68 17.293 13.627 6.583 2.788 13.228 5.548 20.065 7.582 8.623 2.567 17.45 2.034 26.13-.231 1.46-.38 2.821-1.166 4.195-1.832 5.287-2.562 10.56-5.153 15.839-7.73 2.639-1.288 5.25-2.636 7.927-3.838 5.595-2.514 10.185-6.243 13.84-11.146 1.895-2.541 3.767-5.1 5.667-7.64 3.358-4.487 4.938-9.598 5.185-15.128.382-8.544.2-17.01-4.98-24.414-2.224-3.18-4.56-6.283-6.901-9.379-1.703-2.25-3.499-4.43-5.253-6.641-.293-.37-.544-.78-.88-1.103-7.767-7.488-16.033-14.203-26.706-17.174-.453-.126-.935-.195-1.354-.395-7.447-3.541-14.894-2.475-22.344-.027-.559.184-1.131.576-1.665.525-.71-.067-1.39-.474-2.083-.735.393-.623.658-1.622 1.2-1.805 2.776-.94 5.597-1.78 8.451-2.447 4.937-1.153 9.774-.753 14.541 1.083 4.49 1.73 9.224 2.905 13.544 4.968 3.555 1.698 6.548 4.534 9.987 6.524 6.88 3.982 10.826 10.676 15.69 16.515 2.256 2.706 4.19 5.678 6.295 8.51 4.428 5.959 5.421 12.914 5.761 20.033.101 2.109-.032 4.24-.206 6.348-.462 5.604-1.94 10.89-5.32 15.492-4.519 6.153-8.631 12.672-14.994 17.21a37.18 37.18 0 0 1-4.514 2.733c-4.908 2.531-9.816 5.065-14.792 7.457-5.926 2.848-11.78 5.848-18.236 7.47-7.932 1.995-15.775 1.652-23.75.187-5.308-.976-9.867-3.725-14.885-5.336-1.894-.609-3.68-1.547-5.55-2.24-9.58-3.553-15.986-10.956-22.329-18.413-6.264-7.364-7.24-16.357-7.588-25.492-.442-11.595 4.982-21.071 11.257-30.145 1.58-2.285 4.078-3.915 5.819-6.113 3.956-4.993 9.043-8.523 14.517-11.51 4.111-2.245 8.398-4.187 12.694-6.065 1.398-.61 3.138-1.096 5.11 1.084zM144.02 83.448l.078-.008a7.42 7.42 0 0 0-.006.048l-.072-.04zm2.472-3.537c8.762-5.23 18.004-9.45 28.05-11.096 7.12-1.165 14.43-2.267 21.733-.673 1.487.325 3.022.496 4.544.588 11.398.68 21.633 5.023 31.824 9.73 7.837 3.62 15.228 7.987 22.234 12.916 4.479 3.151 8.595 6.997 12.27 11.076 7.018 7.791 13.292 16.19 17.762 25.776.992 2.128 2.031 4.266 2.708 6.504 2.351 7.77 4.22 15.652 5.226 23.732 1.087 8.719-1.009 16.782-4.515 24.666-3.83 8.613-9.3 16.023-15.744 22.828-2.662 2.81-4.946 5.978-7.442 8.95-2.038 2.426-3.941 5.01-6.243 7.161-7.903 7.388-16.019 14.546-23.932 21.922-8.575 7.993-19.178 11.123-30.327 13.02-3.937.67-7.886 1.48-11.857 1.676-4.56.225-9.15-.143-13.727-.282-2.926-.088-5.852-.21-8.775-.358-1.038-.054-2.09-.139-3.099-.366-3.77-.853-7.525-1.77-11.286-2.662-.114-.027-.235-.022-.349-.05-1.127-.282-2.583-.376-2.158-2.087.363-1.459 1.637-1.063 2.645-.845 1.148.248 2.278.599 3.394.966 5.087 1.675 10.374 1.96 15.654 2.26 4.578.26 9.162.604 13.742.592 2.916-.007 5.837-.552 8.746-.933 7.936-1.04 15.766-2.476 23.34-5.234 4.788-1.743 8.58-4.84 12.357-8.015 4.322-3.632 8.669-7.249 12.777-11.116 6.75-6.352 13.74-12.454 19.1-20.191 2.926-4.226 6.634-7.919 10.065-11.785 5.55-6.253 9.273-13.463 12.158-21.293 2.257-6.126 3.336-12.29 2.496-18.672-.735-5.583-1.833-11.143-3.157-16.62-2.931-12.125-9.442-22.336-16.85-32.25-9.256-12.39-21.686-20.386-35.013-27.31-5.833-3.03-11.837-5.925-18.065-7.96a92.955 92.955 0 0 0-27.058-4.587c-9.544-.18-18.98 1.285-27.87 5.294-5.048 2.276-10.046 4.552-14.541 7.855-.759.557-2.11.309-3.211.402.205-1.57.889-2.631 2.394-3.529zm123.898 39.121c-2.77-3.332-5.364-6.822-8.337-9.954-6.598-6.948-14.283-12.547-22.336-17.72-5.566-3.574-11.168-6.96-17.441-9.156-10.975-3.843-22.162-6.632-33.88-5.4-9.498 1-18.751 3.233-27.52 7.217-2.347 1.067-4.834 1.834-7.277 2.682-.887.308-1.965.617-2.378-.633-.42-1.276.407-2.01 1.515-2.367 9.592-3.088 18.87-7.22 28.929-8.76 7.948-1.217 15.88-1.282 23.793.351 4.137.854 8.515 1.05 12.387 2.562 6.092 2.376 12.583 3.887 18.042 7.842 5.994 4.344 12.357 8.197 18.206 12.72 4.54 3.511 8.602 7.656 12.75 11.65 3.268 3.148 5.369 7.109 7.188 11.229 2.133 4.832 4.539 9.554 6.462 14.466 5.687 14.525 6.015 29.528 2.237 44.409-2.112 8.321-6.615 15.743-12.934 21.933-7.223 7.075-13.978 14.634-21.303 21.596a268.856 268.856 0 0 1-19.762 17.03c-5.204 4.062-11.213 6.598-17.873 7.958-7.748 1.583-15.582 2.233-23.367 3.37-.796.117-1.635-.084-2.455-.108-3.288-.1-6.595-.456-9.86-.226-6.401.45-11.94-2.25-17.637-4.397-.515-.193-1.105-1.326-.977-1.857.296-1.234 1.346-1.007 2.291-.618 1.523.627 3.06 1.222 4.576 1.866 3.427 1.454 6.986 1.978 10.693 1.652 1.046-.092 2.127-.12 3.161.033 7.79 1.16 15.48.249 23.15-1.055 4.518-.767 9.137-1.207 13.506-2.491 3.663-1.076 7.264-2.797 10.484-4.868 9.939-6.394 18.534-14.425 26.743-22.88 5.487-5.65 11.011-11.262 16.5-16.91 7.346-7.56 11.904-16.562 13.5-26.968 1.147-7.473 1.442-15.04.105-22.494-.888-4.946-2.344-9.833-4.01-14.585-2.015-5.747-4.52-11.323-6.87-17.119zm-59.441 37.822c5.63 9.723 4.134 16.968-4.567 24.14-7.663 6.317-16.553 7.957-26.088 7.504-3.106-.148-5.73-1.69-7.734-3.841-2.627-2.82-4.895-5.984-7.202-9.086-1.79-2.407-2.118-5.16-1.436-8.067 2.292-9.76 7.02-17.963 15.688-23.339 3.7-2.294 8.085-2.408 12.331-1.824 7.838 1.076 13.662 5.237 17.614 12.06.472.813.93 1.635 1.394 2.453zm-14.422 1.212l.295.428-.295-.428zm-12.865-.252c-.719.601-1.394 1.26-2.052 1.928-5.171 5.253-4.167 11.369.653 15.84 4.453 4.129 9.452 5.135 14.697-.78 1.158-1.306 2.129-2.804 3.027-4.308 1.269-2.125 1.56-4.379.38-6.675.383-2.52-.714-4.074-3.152-4.757l3.123 4.796c-.88 4.318-2.274 8.316-6.136 11.022-4.612 3.232-11.238 1.02-12.73-4.417-.297-1.086-.456-2.49-.018-3.445 1.413-3.083 3.059-6.096 5.92-8.149 1.803-1.294 3.79-1.772 6.017-1.194 1.01.262 2.087.268 3.135.39-4.708-4.3-7.94-4.37-12.864-.25zm-1.84 27.287c-3.59-1.377-6.103-3.794-8.423-6.75-4.175-5.323-4.875-11.853-1.487-17.371 1.658-2.7 3.484-5.328 5.5-7.77 4.024-4.877 9.09-6.494 15.44-5.233 2.762.547 4.892 2.09 7.416 2.884 2.134.673 3.747 1.985 4.792 3.925 1.058 1.965 2.205 3.924 2.934 6.017 1.831 5.254 1.247 10.37-2.429 14.588-2.67 3.065-5.994 5.561-8.903 8.2 4.643-1.958 9.355-4.37 12.346-8.898 2.556-3.868 3.632-8.304 1.358-12.74-3.426-6.68-6.69-13.372-14.783-16.08-5.388-1.802-10.312-2.062-15.194.822-7.99 4.721-11.656 12.326-13.578 20.99-.53 2.392-.064 4.725 1.414 6.72 1.959 2.648 3.743 5.514 6.118 7.733 1.928 1.799 4.222 3.724 7.478 2.963zm12.067-4.23c3.558-.895 6.39-3.016 8.598-5.755 1.422-1.763 2.675-3.959 3.137-6.144 1.512-7.165-2.281-13.783-9.088-16.637-.862-.361-1.63-.973-2.507-1.275-4.525-1.559-9.097-2.318-12.698 1.774-2.692 3.06-5.212 6.34-7.329 9.815-1.772 2.909-2.006 6.319-.274 9.46a56.174 56.174 0 0 0 4.374 6.74c2.223 2.939 5.416 3.627 9.664 3.522-2.153-1.221-3.645-2.077-5.145-2.917-6.795-3.802-9.071-10.87-5.52-17.678 1.9-3.642 5.07-6.093 8.557-8.147 3.016-1.775 6.112-1.392 9.143-.192 1.394.55 2.656 1.472 3.916 2.316 4.944 3.312 6.74 9.976 3.92 15.165-2.138 3.937-4.518 7.752-8.748 9.952zm-34.874 57.4c1.607.316 2.878.402 4.03.818 9.536 3.442 19.33 3.492 29.235 2.399 1.864-.207 3.752-.236 5.63-.265 5.039-.077 9.64-1.693 14.248-3.593a100.122 100.122 0 0 0 22.295-12.748c5.233-3.957 10.12-8.38 15.069-12.703 7.121-6.219 13.063-13.431 18.293-21.325 6.534-9.863 8.78-20.502 7.559-32.192-1.081-10.334-4.043-20.03-8.738-29.206-1.705-3.333-4.008-6.364-6.09-9.499-7.707-11.602-17.812-20.414-30.05-27.145-6.814-3.748-13.968-6.142-21.327-8.161-7.48-2.054-15.167-2.018-22.782-1.116-7.338.868-14.761 1.553-21.73 4.354-1.636.658-3.241 1.39-4.871 2.063-.99.41-2.187.921-2.77-.367-.633-1.401.414-2.15 1.621-2.59 5.636-2.05 11.332-3.882 17.294-4.751 7.216-1.052 14.452-1.64 21.76-1.679 5.872-.031 11.409 1.527 16.972 2.925 3.855.97 7.818 2.08 11.267 3.976 9.764 5.367 19.869 10.369 27.385 18.98 3.24 3.713 6.294 7.598 9.299 11.51 6.388 8.311 10.826 17.62 13.504 27.728a74.954 74.954 0 0 1 2.134 26.932c-.94 9.217-5.938 16.656-11.025 24.105-5.508 8.064-12.532 14.675-19.634 21.146-7.995 7.283-16.521 14.066-26.383 18.73-5.912 2.797-11.705 6.094-18.355 7.02-1.974.275-3.96.537-5.948.626-5.626.253-11.255.514-16.885.564-2.548.022-5.129-.283-7.644-.729-3.581-.634-7.125-1.495-10.665-2.342-1.375-.33-2.714-.868-2.698-3.465zm29.154-118.25c.98-1.482 2.216-1.836 3.713-1.89 7.572-.27 14.272 1.957 20.468 6.344 8.926 6.32 15.812 14.326 20.857 23.957 2.073 3.959 3.944 8.023 5.903 12.04 2.063 4.23 2.301 8.542.796 13.02-2.601 7.735-6.906 14.063-14.11 18.279-8.647 5.062-17.421 9.815-26.946 13.063-1.657.565-3.19 1.5-4.77 2.283-4.003 1.978-8.218 2.796-12.666 2.336-5.914-.613-11.518-2.181-16.737-5.123a37.109 37.109 0 0 0-6.433-2.88c-6.05-2.017-10.496-6.188-14.557-10.782a43.414 43.414 0 0 1-5.614-8.058c-1.45-2.684-2.088-5.717-1.651-8.883.962-6.974 1.413-14.046 3.775-20.756 2.546-7.229 6.782-13.42 12.253-18.704 2.515-2.43 5.508-4.362 8.26-6.549 4.125-3.278 9.213-3.996 14.067-5.335.949-.261 2.07-.348 2.202.888.056.528-.763 1.391-1.384 1.693-1.04.504-2.233.703-3.373.99-10.07 2.533-17.47 8.668-23.622 16.828-5.484 7.275-7.377 15.627-8.524 24.326-.107.816-.099 1.66-.295 2.451-1.905 7.701 1.255 13.774 6.179 19.265 4.727 5.272 10.548 8.927 17.101 11.518 2.4.948 4.722 2.097 7.07 3.176 5.242 2.407 10.762 3.438 16.475 2.833 2.16-.23 4.29-1.116 6.342-1.936 4.576-1.828 9.2-3.59 13.612-5.766 6.525-3.218 13.03-6.528 19.275-10.249 7.026-4.183 10.225-11.145 11.922-18.81.886-4-.703-7.727-2.5-11.164-2.937-5.623-5.874-11.294-9.4-16.55-5.74-8.558-13.434-15.083-22.807-19.472-3.619-1.694-7.558-1.558-11.456-1.384-1.112.049-2.343.523-3.425-1zm-8.036 8.276c-.116 2.023-1.429 1.82-2.351 2.15-8.189 2.918-15.711 6.984-21.646 13.446-4.688 5.105-7.945 11.262-9.651 17.86-1.955 7.557-.416 14.73 4.234 21.415 5.204 7.481 13 10.938 20.585 14.873 1.245.645 2.653.967 3.95 1.523 2.818 1.21 5.702 1.287 8.642.614 10.46-2.394 20.755-5.354 30.152-10.648a55.28 55.28 0 0 0 14.912-12.26c1.879-2.199 2.504-4.89 2.23-7.918-.54-5.996-2.288-11.507-5.603-16.524-4.47-6.765-8.618-13.784-15.54-18.51-3.52-2.403-7.088-4.685-11.308-5.594-2.044-.44-4.16-.54-6.244-.802-.984-.123-1.967-.264-2.996-.402-.01-2.583 1.461-2.81 3.083-2.764 4.195.122 8.037 1.635 11.86 3.15 4.804 1.905 8.67 5.308 12.236 8.806 6.578 6.452 12.121 13.838 15.296 22.582 1.38 3.801 1.872 8.007 2.22 12.076.32 3.755-1.918 6.68-4.48 9.237-7.435 7.42-16.019 13.132-25.955 16.545-6.435 2.21-13.033 3.974-19.618 5.712-5.795 1.529-11.16-.129-16.264-2.877-3.414-1.838-6.991-3.436-10.198-5.585-11.382-7.631-18.599-21.159-13.098-35.752 2.878-7.633 6.86-14.75 13.406-19.948 3.847-3.053 7.66-6.25 12.49-7.81 1.44-.466 2.752-1.322 4.15-1.94 1.718-.757 3.476-1.303 5.506-.655zm58.678 136.298c-.176-.574-.267-.789-.307-1.012-.595-3.369 1.305-4.94 3.897-6.799 6.677-4.787 12.964-10.12 19.412-15.227 1.933-1.53 3.86-3.07 5.825-4.558 7.46-5.644 14.216-11.82 18.562-20.404 2.91-5.75 6.499-11.175 10.034-16.582 4.374-6.69 6.852-14.15 9.31-21.632.793-2.416 1.447-3.39 2.636-3.043 1.254.365 1.395 1.68.42 3.935-.093.216-.223.419-.292.642-3.414 11.02-8.945 20.935-15.598 30.302-1.76 2.478-3.136 5.263-4.441 8.024-3.088 6.534-7.72 11.781-13.27 16.264-8.783 7.092-17.614 14.124-26.447 21.153-1.902 1.513-3.9 2.909-6.34 4.719 9.04-2.506 14.702-8.746 20.928-14.21 3.265-2.864 6.81-5.41 10.05-8.301 4.027-3.597 7.935-7.333 11.775-11.13 6.225-6.155 11.364-13.201 15.814-20.685 2.504-4.214 4.493-8.791 6.232-13.386 1.954-5.16 3.366-10.526 5.012-15.803.139-.444.134-1.14.419-1.287.666-.344 1.523-.673 2.195-.523.4.09.666 1.076.851 1.7.083.278-.182.66-.293.993-1.717 5.127-3.361 10.28-5.168 15.375-3.826 10.79-9.981 20.207-17.334 28.885-6.172 7.281-12.815 14.055-20.41 19.92a185.722 185.722 0 0 0-15.202 13.145c-4.83 4.648-10.911 6.805-16.764 9.49-.377.172-.898.03-1.506.035zm-131.938-42.14l.016.009-.015-.009c2.722 3.426 5.685 6.584 9.586 8.72.509.278.972.671 1.392 1.077 6.615 6.4 15.074 9.367 23.4 12.581.436.168 1.053.173 1.293.482.455.587 1.077 1.45.918 1.99-.145.493-1.217.738-1.908 1.029-.17.071-.451-.086-.67-.168-7.5-2.793-15.217-5.29-21.46-10.479-5.311-4.413-11.028-8.37-15.584-13.708-3.02-3.54-5.65-7.207-7.28-11.568-.37-.991-.633-2.055-1.177-2.944-3.096-5.053-5.057-10.558-7.016-16.127-3.026-8.608-4.769-17.435-5.974-26.432-.577-4.304-1.31-8.62-2.42-12.812-1.635-6.178-1.273-12.247 1.233-17.927 2.79-6.324 6.208-12.387 9.588-18.432 2.353-4.207 6.383-6.837 10.159-9.644 5.094-3.79 10.212-7.545 15.287-11.36 3.88-2.917 8.033-5.313 12.603-6.979 1.124-.41 2.206-.998 3.176.326.098 1.705-1.32 2.144-2.464 2.496-7.036 2.165-12.617 6.674-18.272 11.095-3.242 2.534-6.416 5.197-9.872 7.41-5.885 3.766-9.707 9.171-12.783 15.2-1.975 3.872-3.7 7.875-5.44 11.86-1.796 4.114-2.05 8.427-1.259 12.806 1.381 7.63 2.874 15.24 4.189 22.881 1.605 9.327 4.48 18.266 7.992 27.017.654 1.628 1.651 3.116 2.428 4.698 1.136 2.318 2.277 4.636 3.308 7.002 1.666 3.826 3.947 7.192 7.097 9.95l.002.001.002.002-.059-.034.008.005zm76.236-89.165c-.624 1.714-2.334 1.784-3.655 2.34-5.886 2.48-11.496 5.36-16.022 10.034-3.993 4.123-7.25 8.642-8.528 14.363-.308 1.378-.557 2.79-1.066 4.095-2.482 6.358-.387 11.888 3.468 16.769 2.223 2.814 5.33 4.926 7.997 7.398 6.241 5.783 13.847 7.348 21.9 6.369 4.12-.501 8.198-2.05 12.075-3.656 4.652-1.927 9.133-4.303 13.563-6.715 2.25-1.224 4.232-2.946 6.324-4.457 5.144-3.715 6.14-8.925 5.163-14.75-.753-4.487-2.628-8.538-5.433-12.111-2.754-3.508-5.514-7.02-8.456-10.367-3.892-4.426-8.647-7.574-14.493-8.878-.455-.102-1.044-.148-1.305-.45-.406-.468-.858-1.185-.764-1.7.067-.366 1.056-.885 1.542-.802 4.472.767 8.604 2.495 12.081 5.383 6.385 5.305 11.511 11.772 15.996 18.699 2.794 4.314 4.073 9.233 4.103 14.416.02 3.43-1.238 6.357-3.301 9.093-3.076 4.08-7.36 6.64-11.616 9.041-6.445 3.634-13.187 6.758-20.322 8.895-4.682 1.401-9.412 2.03-14.253.865-.685-.165-1.386-.309-2.087-.354-5.349-.348-9.56-2.937-13.298-6.572-2.27-2.21-4.87-4.107-6.977-6.454-4.257-4.738-6.578-10.285-5.517-16.786.453-2.775 1.305-5.486 2.003-8.22 1.474-5.769 4.827-10.415 8.939-14.541 5.234-5.253 11.5-8.889 18.485-11.316 1.751-.609 1.75-.612 3.454.369zm-86.385 65.296c-1.199-3.663-3.152-7.073-4.513-10.693-1.274-3.39-2.587-6.837-3.235-10.378-1.777-9.71-2.678-19.544-2.887-29.413-.053-2.527.458-5.17 1.236-7.591 2.982-9.284 7.253-17.94 14.451-24.7 3.488-3.275 7.623-5.864 11.476-8.748 3-2.246 6.08-4.39 9.012-6.72 4.039-3.209 8.849-4.83 13.485-6.82.4-.172.93-.16 1.372-.081.301.054.555.373.812.56.115 1.663-1.203 1.95-2.234 2.355-7.29 2.864-13.91 6.794-19.838 11.945-2.12 1.841-4.536 3.356-6.891 4.906-7.753 5.1-12.646 12.445-16.497 20.665-3.604 7.692-4.705 15.654-3.38 24.066 1.042 6.613 1.5 13.32 2.591 19.923.53 3.208 1.464 6.518 2.998 9.358 4 7.408 5.889 15.62 9.369 23.204 1.025 2.235 1.922 4.587 3.32 6.575 1.321 1.877 3.027 3.63 4.912 4.937 4.15 2.877 8.395 5.67 12.835 8.064 4.642 2.504 9.564 4.488 14.352 6.724 1.657.773 3.28 1.618 4.991 2.467-.822 2.328-2.038 2.674-3.718 1.91-10.267-4.67-20.267-9.825-29.6-16.208-1.325-.906-2.792-1.606-4.197-2.397-4.853-7.354-7.514-15.627-10.222-23.91zm48.985-102.21c.335 2.26-1.092 2.637-2.182 3.154-2.653 1.261-5.312 2.526-8.042 3.604-8.704 3.44-15.788 9.215-22.554 15.464-4.433 4.096-8.416 8.585-11.18 13.986-5.241 10.248-7.18 21.15-5.337 32.506.975 6.012 2.713 11.906 4.237 17.82.938 3.638 2.095 7.222 3.2 10.816 3.628 11.794 10.73 20.968 20.727 28.142 6.183 4.437 12.687 8.033 20.042 10.037.566.154 1.124.36 1.655.609 1.003.469 2.13 1.206 1.45 2.336-.365.605-1.931 1.032-2.686.769-4.211-1.474-8.616-2.706-12.439-4.914-7.226-4.173-13.874-9.226-19.75-15.246-5.222-5.352-8.534-11.808-10.889-18.743-3.552-10.458-6.809-21.04-8.34-32.012-2.25-16.138 1.915-30.624 12.56-42.946 6.24-7.226 13.564-13.423 21.879-18.177 4.773-2.729 10.002-4.665 15.057-6.89.691-.303 1.56-.201 2.592-.314zm46.373 42.71c.605-2.458 2.23-2.27 3.693-1.923 4.49 1.07 8.769 2.741 12.336 5.73 7.345 6.153 11.498 14.149 13.053 23.537.13.786.06 1.658-.13 2.438-1.325 5.42-4.014 9.967-8.486 13.445-7.438 5.785-15.98 8.777-25.134 10.474-7.994 1.48-14.996-.79-20.96-5.792-3.62-3.037-6.931-6.614-8.352-11.524-1.413-4.88-1.087-9.701.826-14.132 1.981-4.587 4.134-9.197 7.684-12.98 3.01-3.205 6.269-6.065 10.14-8.068 1.82-.942 4.026-1.173 6.085-1.585.373-.075.883.532 1.33.823-.294.449-.498 1.16-.9 1.3-1.656.575-3.483.743-5.045 1.487-4.427 2.106-8.236 5.178-10.978 9.19-2.373 3.471-4.64 7.217-5.94 11.176-2.12 6.455-1.618 12.785 3.658 17.965 1.25 1.226 2.221 2.736 3.474 3.958 3.698 3.604 8.514 4.816 13.326 5.98.672.164 1.432.249 2.098.113 8.533-1.747 16.995-3.638 24.432-8.593 4.157-2.771 7.335-6.246 9.052-10.93.51-1.39.896-3.003.725-4.442-1.11-9.348-5.499-17.03-13-22.574-2.92-2.158-6.795-3.037-10.26-4.438-.815-.33-1.73-.412-2.727-.636zm123.49 24.646c.623-3.663 1.141-7.243 1.856-10.784.9-4.46.755-8.862-.156-13.3-1.332-6.486-3.06-12.853-6.404-18.602-1.702-2.925-3.867-5.6-5.976-8.266-3.062-3.87-6.321-7.585-9.393-11.449-7.84-9.858-16.282-19.171-25.206-28.05-.825-.82-1.809-1.5-2.783-2.149-15.04-10.005-31.456-16.827-48.854-21.554-9.503-2.582-19.084-3.962-28.907-3.96-3.646 0-7.292-.208-10.937-.36-4.904-.207-9.612.715-14.13 2.55-10.468 4.254-20.788 8.803-30.573 14.532-4.966 2.907-10.215 5.333-15.362 7.926-.91.458-1.946.664-2.962 1-.97-1.642-.643-2.575.833-3.299 2.945-1.445 5.842-2.989 8.773-4.466 8.608-4.339 17.121-8.882 25.87-12.918 5.734-2.646 11.79-4.607 17.741-6.767 3.372-1.224 6.9-1.195 10.46-1.048 5.395.223 10.81.034 16.198.342 7.64.435 15.094 1.792 22.527 3.873a342.97 342.97 0 0 1 25.483 8.24c2.86 1.046 5.646 2.37 8.328 3.819 4.967 2.684 9.928 5.403 14.705 8.404 2.864 1.8 5.62 3.923 7.995 6.325 4.875 4.932 9.525 10.092 14.14 15.271 2.657 2.98 5.056 6.189 7.588 9.28 3.576 4.367 6.963 8.915 10.815 13.025 3.702 3.949 6.433 8.366 8.404 13.339 2.395 6.04 4.104 12.248 4.964 18.704.881 6.614-1.126 12.832-2.388 19.158-.206 1.03-.783 1.719-2.648 1.184zM16.397 182.61c-.01 1.23.106 2.478-.052 3.69-.485 3.73-1.262 7.43-1.586 11.171-.726 8.351 1.747 16.067 5.266 23.477 2.825 5.946 5.823 11.81 8.82 17.672 2.676 5.232 5.14 10.613 8.29 15.55 2.437 3.819 5.744 7.096 8.75 10.54 4.282 4.906 9.315 8.9 14.808 12.416 2.944 1.884 5.496 4.39 8.187 6.66 5.055 4.267 11.042 6.602 17.248 8.573 5.937 1.886 11.809 3.976 17.7 5.999.306.105.536.427.904.734-.448 2.052-1.768 2.179-3.431 1.629-3.128-1.035-6.271-2.025-9.38-3.115-4.993-1.75-10.013-3.443-14.922-5.41-2.355-.942-4.494-2.432-6.707-3.717a20.171 20.171 0 0 1-2.32-1.602c-6.921-5.442-14.052-10.647-20.669-16.439-4.298-3.762-8.162-8.143-11.619-12.703-2.593-3.418-4.349-7.504-6.265-11.397-4.982-10.121-10.12-20.18-14.62-30.515-1.738-3.99-2.131-8.628-2.76-13.025-.92-6.428 1.104-12.582 2.324-18.792.115-.587.708-1.078 1.08-1.614l.954.218zM278.432 40.747l.05-.024.05.027s-.098-.004-.1-.003zm-1.825-1.077c.443-.739.761-1.613 1.369-2.172.471-.434 1.29-.587 1.978-.672 5.596-.688 11.027-1.299 16.629 1.038 4.891 2.04 10.012 3.55 14.182 6.912 5.569 4.49 11.98 7.919 16.715 13.47 3.583 4.202 7.339 8.258 11.053 12.346 2.706 2.979 4.043 6.58 4.857 10.422.107.506-.108 1.08-.188 1.734-2.262-.144-2.208-2.045-2.904-3.227-1.485-2.518-2.443-5.488-4.371-7.578-6.187-6.704-11.417-14.385-19.403-19.321-2.59-1.601-4.885-3.677-7.335-5.51-5.38-4.027-11.545-6.426-18.015-7.746-4.216-.86-8.619-.547-12.691 1.357l-1.876-1.053zm-76.25 124.216l-.02-.028.015-.069zm-4.396-1.884c-.054-.062-.474-.834-1.124-1.225-2.475-1.487-5.77-.828-7.567 1.488-.856 1.104-1.523 2.352-2.322 3.502-1.162 1.67-1.155 3.432.184 4.818 1.57 1.627 3.072 3.742 5.842 3.225 4.208-.783 7.293-7.312 4.987-11.808zm-6.775 1.645c2.573-1.35 4.575-.876 5.83 1.048.911 1.395.525 3.15-1.19 4.64-.686.596-1.557 1.05-2.418 1.364-2.49.91-3.81.575-4.588-1.015-.871-1.78-.338-4.134 1.274-5.402.455-.358 1.01-.589 1.092-.635zm3.16 2.376c-1.008-.152-1.753-.497-2.17-.262-.416.235-.504 1.05-.736 1.612.59.18 1.27.622 1.743.46.434-.148.645-.949 1.163-1.81z"/></g></g></svg>